<?xml version="1.0" encoding="utf-8"?>
<!-- Generator: Adobe Illustrator 25.4.1, SVG Export Plug-In . SVG Version: 6.00 Build 0)  -->
<svg version="1.1" id="Layer_1" xmlns="http://www.w3.org/2000/svg" xmlns:xlink="http://www.w3.org/1999/xlink" x="0px" y="0px"
	 viewBox="0 0 1800 1156" style="enable-background:new 0 0 1800 1156;" xml:space="preserve">
<style type="text/css">
	.st0{opacity:0.5;fill:#D848A2;enable-background:new    ;}
	.st1{opacity:0.6;fill:#4924CC;enable-background:new    ;}
	.st2{fill:#4924CC;}
	.st3{fill:#202020;}
	.st4{font-family:'ClarityCity-Bold';}
	.st5{font-size:50px;}
	.st6{fill:#FFFFFF;}
</style>
<path class="st0" d="M1400,257C921.7-19.2,310.1,144.7,34,623l216.5,125C457.6,389.3,916.3,266.4,1275,473.5
	c114,65.8,208.7,160.5,274.5,274.5L1766,623C1678.3,471,1552,344.7,1400,257z"/>
<path class="st1" d="M1275,473.5C916.3,266.4,457.6,389.3,250.5,748L467,873c138.1-239.1,443.9-321.1,683-183
	c76,43.9,139.1,107,183,183l216.5-125C1483.7,634,1389,539.3,1275,473.5z"/>
<path class="st2" d="M1150,690c-239.1-138.1-544.9-56.1-683,183l433,250l433-250C1289.1,797,1226,733.9,1150,690z"/>
<text transform="matrix(1 0 0 1 799.9512 287.7834)" class="st3 st4 st5">ASSESS</text>
<text transform="matrix(1 0 0 1 829.1504 541.1013)" class="st3 st4 st5">TRIAL</text>
<text transform="matrix(1 0 0 1 813.8794 863.6454)" class="st6 st4 st5">ADOPT</text>
</svg>
