<svg width="307" height="64" viewBox="0 0 307 64" fill="none" xmlns="http://www.w3.org/2000/svg">
<path d="M44.7261 24.7715C45.4393 24.3325 46.1042 23.8195 46.7098 23.2409C46.8278 23.1273 46.9385 23.0136 47.0507 22.9C47.4744 22.4688 47.8652 22.0066 48.2197 21.517C48.5804 21.0193 48.8905 20.4868 49.1451 19.9274C49.4999 19.1645 49.7177 18.3451 49.7886 17.5068C50.0085 14.6449 48.3127 11.7992 44.5312 9.50413L29.3052 0.270508L11.5553 17.2765L0 28.3463L16.0289 38.0728C18.5959 39.6444 21.5443 40.4826 24.5541 40.4964C28.2322 40.4964 31.7568 39.1975 34.3574 36.7046C37.1854 33.9948 38.1241 30.4879 36.3795 27.5729C36.0953 27.1001 35.7586 26.6609 35.3759 26.2637C36.3102 26.4719 37.2643 26.5783 38.2215 26.581H38.2466C39.8117 26.5837 41.3635 26.2939 42.8221 25.7264C43.4839 25.4655 44.1211 25.1459 44.7261 24.7715V24.7715ZM29.8794 33.5977C27.0278 36.3297 22.4405 36.7327 18.7063 34.4685L7.61744 27.7382L17.5713 18.1961L28.8506 25.0431C32.9154 27.5123 32.6911 30.9115 29.8794 33.6036V33.5977ZM31.1989 21.4638L20.7712 15.1393L30.2764 6.02676L40.5152 12.242C44.3438 14.5637 44.8412 17.7105 42.0723 20.3598C40.6362 21.7184 38.7911 22.5639 36.8244 22.7646C34.8577 22.9654 32.8799 22.5101 31.1989 21.4697V21.4638ZM35.6061 49.5071C32.7176 52.2746 28.7916 53.7992 24.5541 53.7992C21.2139 53.7857 17.9413 52.8572 15.0917 51.1144L0 41.9679V45.6091L16.0289 55.3372C18.5959 56.9087 21.5443 57.7469 24.5541 57.7607C28.2322 57.7607 31.7568 56.4604 34.3574 53.969C36.2585 52.1476 37.3094 49.9647 37.2621 47.8452V47.581C36.7751 48.2798 36.2204 48.9289 35.6061 49.5189V49.5071ZM35.6061 43.7509C32.7176 46.5198 28.7916 48.0444 24.5541 48.0444C21.2139 48.0309 17.9413 47.1024 15.0917 45.3597L0 36.2131V39.8558L16.0289 49.5839C18.596 51.155 21.5445 51.9927 24.5541 52.0059C28.2322 52.0059 31.7568 50.7071 34.3574 48.2157C36.2585 46.3928 37.3094 44.2114 37.2621 42.0904V41.8262C36.7759 42.5256 36.2211 43.1748 35.6061 43.7642V43.7509ZM35.6061 37.9946C32.7176 40.7635 28.7916 42.2882 24.5541 42.2882C21.2139 42.2747 17.9413 41.3461 15.0917 39.6034L0 30.4598V34.1025L16.0289 43.8306C18.596 45.4017 21.5445 46.2394 24.5541 46.2526C28.2322 46.2526 31.7568 44.9538 34.3574 42.4609C36.2585 40.6395 37.3094 38.4581 37.2621 36.3371V36.0685C36.7759 36.7693 36.2212 37.4199 35.6061 38.0109V37.9946ZM47.9584 41.7937C45.5495 44.0883 42.3973 45.4426 39.0746 45.6106V49.5676C41.931 49.4088 44.6376 48.2384 46.7098 46.2659C48.7761 44.2911 49.8314 42.117 49.8093 39.9724V39.6477C49.2672 40.4293 48.647 41.1538 47.9584 41.81V41.7937ZM35.6061 55.256C32.7176 58.0234 28.7916 59.5496 24.5541 59.5496C21.2137 59.5362 17.9409 58.6071 15.0917 56.8633L0 47.7212V51.3624L16.0289 61.0905C18.5959 62.662 21.5443 63.5002 24.5541 63.514C28.2322 63.514 31.7568 62.2137 34.3574 59.7223C36.2585 57.9009 37.3094 55.718 37.2621 53.5985V53.3343C36.7755 54.0334 36.2208 54.6825 35.6061 55.2722V55.256ZM48.2625 24.2298C48.1621 24.3316 48.0632 24.4335 47.9584 24.5324C46.9763 25.4514 45.8722 26.2306 44.6774 26.8482C43.4564 27.4642 42.1514 27.8973 40.8044 28.1337C40.1143 28.2616 39.4158 28.3391 38.7145 28.3654C38.7883 28.6031 38.8473 28.8451 38.899 29.0887C39.0221 29.6707 39.0781 30.265 39.0658 30.8598V32.2989H39.0731C40.3574 32.2219 41.622 31.9465 42.8221 31.4827C44.2692 30.9166 45.5919 30.0733 46.7157 29.0001C46.8352 28.8865 46.9385 28.7699 47.0507 28.6547C47.4744 28.2231 47.8652 27.7603 48.2197 27.2703C48.5812 26.772 48.8922 26.239 49.1481 25.6792C49.5018 24.9142 49.7176 24.0928 49.7857 23.2527C49.799 23.0712 49.8152 22.8881 49.8137 22.7066V22.4114C49.7074 22.559 49.5953 22.7155 49.4801 22.8675C49.1039 23.3524 48.6972 23.8128 48.2625 24.246V24.2298ZM48.2625 35.7305C48.1621 35.8338 48.0706 35.9386 47.9673 36.0404C45.5586 38.3353 42.4062 39.6892 39.0835 39.8558V43.8114C41.9397 43.6519 44.6461 42.4816 46.7186 40.5097C47.7338 39.5685 48.5594 38.4417 49.151 37.1902C49.5046 36.4252 49.7204 35.6038 49.7886 34.7637C49.8019 34.5807 49.8181 34.3977 49.8167 34.2162V33.8914C49.7074 34.0508 49.5997 34.2103 49.4816 34.3667C49.1038 34.8529 48.6945 35.3139 48.2566 35.7467L48.2625 35.7305ZM48.2625 29.9742C48.1621 30.0776 48.0706 30.1824 47.9673 30.2842C47.4772 30.748 46.9532 31.1748 46.3998 31.5609C45.8534 31.9464 45.2797 32.2917 44.6833 32.5941C42.9408 33.477 41.0339 33.9887 39.0835 34.0966H39.0761V38.033C41.9324 37.8738 44.6389 36.7034 46.7112 34.7313C46.8308 34.6176 46.9341 34.501 47.0463 34.3859C47.47 33.9543 47.8607 33.4915 48.2153 33.0014C48.5764 32.5035 48.8874 31.971 49.1436 31.4118C49.4974 30.6463 49.7132 29.8244 49.7812 28.9839C49.7945 28.8023 49.8108 28.6193 49.8093 28.4378V28.1131C49.7001 28.2725 49.5923 28.4319 49.4742 28.5883C49.0989 29.0823 48.6921 29.5516 48.2566 29.9934L48.2625 29.9742ZM83.8332 16.8618C84.6144 16.8618 85.4552 16.8702 86.3556 16.8869C87.2559 16.9036 88.1474 16.9528 89.03 17.0345C89.8605 17.1107 90.6857 17.2374 91.5008 17.4138C92.193 17.5551 92.8565 17.8115 93.4638 18.1724C94.682 18.911 95.7182 19.9144 96.4954 21.1081C97.3171 22.3696 97.7279 23.9125 97.7279 25.7368C97.7279 27.6594 97.261 29.3214 96.3272 30.7226C95.3934 32.1237 94.0601 33.1613 92.3273 33.8354V33.9357C94.5688 34.41 96.2844 35.4225 97.474 36.9733C98.6636 38.524 99.2579 40.4132 99.257 42.6409C99.2573 43.9559 99.0156 45.2598 98.5441 46.4873C98.0744 47.7259 97.3544 48.8544 96.429 49.8023C95.4407 50.8014 94.2631 51.5932 92.9649 52.1314C91.5874 52.7218 89.9992 53.017 88.2005 53.017H70.6263V16.881L83.8332 16.8618ZM85.1615 32.3992C87.9167 32.3992 89.8949 31.9181 91.0964 30.9558C92.2978 29.9934 92.901 28.5514 92.9059 26.6297C92.9059 25.3505 92.7022 24.338 92.2949 23.5922C91.907 22.8717 91.3238 22.2752 90.6123 21.8712C89.8445 21.456 89.0024 21.1962 88.1341 21.1067C87.1455 20.9853 86.1502 20.9262 85.1542 20.9295H75.4718V32.4184L85.1615 32.3992ZM87.6072 48.9492C89.7464 48.9492 91.4191 48.3756 92.6255 47.2282C93.8318 46.0809 94.4301 44.4992 94.4202 42.483C94.4202 41.3023 94.1998 40.3242 93.759 39.5488C93.3375 38.795 92.7329 38.1595 92.0011 37.7009C91.2264 37.2282 90.3714 36.902 89.4787 36.7386C88.5059 36.552 87.5174 36.459 86.5268 36.4611H75.4659V48.9625L87.6072 48.9492ZM128.165 52.8959C127.416 53.3338 126.38 53.5532 125.057 53.5542C123.935 53.5542 123.044 53.2423 122.382 52.6185C121.721 51.9946 121.39 50.9737 121.388 49.5558C120.284 50.9106 118.856 51.9642 117.236 52.6185C114.517 53.6476 111.552 53.8328 108.727 53.1498C107.727 52.9123 106.784 52.4822 105.949 51.8834C105.152 51.3021 104.509 50.5357 104.075 49.6503C103.617 48.7234 103.388 47.6017 103.387 46.2851C103.387 44.8003 103.642 43.5856 104.151 42.6409C104.634 41.727 105.323 40.9386 106.164 40.3384C107.032 39.7312 107.997 39.2773 109.018 38.9968C110.088 38.6937 111.184 38.4409 112.304 38.2382C113.493 38.002 114.625 37.8249 115.699 37.7068C116.653 37.6101 117.599 37.4408 118.527 37.2006C119.343 36.9821 119.987 36.6618 120.464 36.2397C120.94 35.8176 121.176 35.2065 121.176 34.3918C121.176 33.4472 120.998 32.688 120.642 32.1144C120.307 31.5625 119.833 31.1084 119.267 30.7978C118.678 30.4864 118.04 30.281 117.38 30.1912C116.696 30.0919 116.005 30.0426 115.314 30.0436C113.481 30.0436 111.952 30.388 110.728 31.0768C109.504 31.7656 108.841 33.0728 108.739 34.9984H104.408C104.476 33.3788 104.815 32.0125 105.426 30.8997C106.013 29.8141 106.852 28.8852 107.872 28.1913C108.934 27.4826 110.117 26.9766 111.363 26.6991C112.742 26.3886 114.153 26.2371 115.566 26.2474C116.752 26.2476 117.935 26.3324 119.109 26.5013C120.224 26.6509 121.303 27.001 122.294 27.5345C123.24 28.0498 124.033 28.8072 124.59 29.7292C125.168 30.6709 125.457 31.9009 125.457 33.4191V46.8504C125.457 47.8599 125.516 48.6004 125.635 49.0717C125.754 49.543 126.153 49.7787 126.832 49.7787C127.282 49.7685 127.728 49.7005 128.161 49.5765L128.165 52.8959ZM121.134 39.4839C120.589 39.8883 119.876 40.1805 118.994 40.3694C118.111 40.5584 117.184 40.7045 116.216 40.8226C115.248 40.9406 114.272 41.075 113.286 41.2255C112.373 41.355 111.48 41.6 110.629 41.9546C109.882 42.2652 109.225 42.7591 108.719 43.3907C108.227 44.0126 107.981 44.8603 107.981 45.9338C107.961 46.558 108.111 47.1758 108.415 47.7212C108.692 48.1961 109.076 48.6002 109.536 48.902C110.026 49.2177 110.57 49.4399 111.141 49.5573C111.777 49.694 112.426 49.7613 113.076 49.758C114.503 49.758 115.726 49.5652 116.746 49.1795C117.662 48.8534 118.509 48.3577 119.241 47.7183C119.846 47.1853 120.332 46.5317 120.669 45.7995C120.956 45.1923 121.112 44.5315 121.128 43.8601L121.134 39.4839ZM147.921 31.4133C146.834 30.5031 145.373 30.0475 143.539 30.0466C141.975 30.0466 140.668 30.3334 139.616 30.9071C138.6 31.4468 137.734 32.2291 137.093 33.1845C136.444 34.1792 135.986 35.2864 135.743 36.4493C135.469 37.704 135.332 38.9848 135.335 40.2691C135.333 41.4632 135.478 42.6529 135.768 43.8114C136.033 44.9038 136.49 45.9404 137.118 46.8725C137.734 47.7708 138.555 48.5087 139.514 49.0245C140.498 49.5647 141.67 49.8343 143.03 49.8333C145.17 49.8333 146.842 49.2769 148.048 48.164C149.253 47.0511 149.991 45.4822 150.262 43.4572H154.69C154.214 46.6954 153 49.1923 151.047 50.9477C149.094 52.7031 146.437 53.5803 143.077 53.5793C141.072 53.5793 139.298 53.2585 137.753 52.617C136.27 52.0165 134.947 51.0791 133.889 49.8791C132.824 48.6473 132.026 47.2086 131.545 45.6534C131.001 43.9111 130.732 42.0943 130.75 40.2691C130.736 38.4109 130.993 36.5608 131.514 34.777C131.981 33.1526 132.77 31.6384 133.833 30.324C134.885 29.0422 136.217 28.0187 137.726 27.3323C139.292 26.6091 141.112 26.2474 143.188 26.2474C144.606 26.2377 146.02 26.4163 147.391 26.7788C148.639 27.1048 149.815 27.6631 150.857 28.4245C151.867 29.1761 152.709 30.1315 153.327 31.2288C153.972 32.3594 154.38 33.7006 154.551 35.2523H150.067C149.723 33.5992 149.007 32.3195 147.921 31.4133ZM164.123 16.8884V38.2898L176.147 26.8526H181.957L171.511 36.3666L182.721 53.0184H177.217L168.199 39.3525L164.123 43.0985V53.0184H159.792V16.881L164.123 16.8884ZM189.294 47.1781C189.69 47.8258 190.241 48.365 190.898 48.747C191.594 49.148 192.351 49.4303 193.14 49.5824C193.987 49.7529 194.85 49.8374 195.714 49.8348C196.43 49.8332 197.145 49.7839 197.854 49.6872C198.565 49.5964 199.26 49.4087 199.921 49.1293C200.531 48.8747 201.066 48.4682 201.475 47.9485C201.882 47.425 202.086 46.7584 202.086 45.9486C202.086 44.8357 201.661 43.9924 200.812 43.4188C199.832 42.7871 198.756 42.3171 197.627 42.0269C196.354 41.6727 194.97 41.3519 193.475 41.0646C192.053 40.8001 190.662 40.3931 189.322 39.8499C188.105 39.3631 187.016 38.6043 186.138 37.6315C185.288 36.6869 184.863 35.3709 184.864 33.6833C184.864 32.3668 185.159 31.2352 185.75 30.2886C186.33 29.3575 187.114 28.5698 188.042 27.9846C189.017 27.378 190.083 26.9339 191.201 26.6696C192.345 26.3889 193.52 26.2471 194.699 26.2474C196.085 26.2367 197.47 26.3642 198.831 26.6282C200.017 26.8522 201.15 27.2984 202.17 27.9433C203.146 28.5755 203.943 29.4469 204.487 30.4746C205.065 31.5373 205.405 32.8612 205.507 34.4464H201.175C201.107 33.6031 200.887 32.903 200.514 32.3461C200.147 31.7964 199.658 31.3379 199.087 31.0059C198.493 30.6609 197.848 30.4118 197.177 30.268C196.482 30.1171 195.773 30.0409 195.062 30.0407C194.405 30.0398 193.749 30.0891 193.1 30.1883C192.475 30.2789 191.866 30.4578 191.291 30.7196C190.775 30.9488 190.32 31.2955 189.962 31.7321C189.622 32.1542 189.452 32.7023 189.452 33.3763C189.443 33.7232 189.509 34.0678 189.645 34.3868C189.782 34.7057 189.985 34.9914 190.243 35.2242C190.831 35.7516 191.514 36.1636 192.254 36.439C193.148 36.7825 194.068 37.053 195.006 37.2478C196.026 37.4682 197.045 37.696 198.064 37.9312C199.146 38.1673 200.207 38.4541 201.247 38.7916C202.225 39.1023 203.152 39.5554 203.997 40.1362C204.789 40.686 205.45 41.403 205.934 42.2365C206.426 43.0808 206.672 44.1267 206.672 45.3744C206.672 46.9616 206.34 48.2776 205.678 49.3226C205.024 50.3596 204.133 51.2267 203.079 51.8524C201.963 52.5111 200.738 52.9654 199.462 53.1941C198.143 53.4446 196.804 53.5715 195.462 53.5734C194.056 53.5795 192.654 53.4265 191.283 53.1173C190.026 52.8449 188.832 52.3387 187.762 51.6251C186.736 50.9262 185.897 49.988 185.316 48.8916C184.705 47.7611 184.365 46.386 184.297 44.7663H188.628C188.635 45.6123 188.865 46.4416 189.294 47.1707V47.1781ZM222.718 26.8585V30.6547H217.47V46.8932C217.459 47.302 217.502 47.7105 217.598 48.1079C217.67 48.3941 217.842 48.6452 218.082 48.8164C218.381 49.006 218.722 49.119 219.076 49.1455C219.626 49.2019 220.179 49.227 220.732 49.2208H222.718V53.017H219.406C218.442 53.0297 217.478 52.9532 216.528 52.7882C215.823 52.6782 215.156 52.3913 214.592 51.9543C214.066 51.4999 213.686 50.9016 213.496 50.2333C213.257 49.4914 213.138 48.5128 213.139 47.2976V30.6473H208.655V26.8511H213.139V19.0064H217.47V26.8511L222.718 26.8585ZM250.844 52.9151C250.095 53.353 249.059 53.5724 247.736 53.5734C246.614 53.5734 245.723 53.2615 245.061 52.6376C244.4 52.0138 244.069 50.9929 244.067 49.575C242.963 50.9298 241.535 51.9833 239.915 52.6376C237.196 53.6668 234.231 53.8519 231.406 53.169C230.406 52.9315 229.463 52.5014 228.628 51.9026C227.834 51.3141 227.196 50.541 226.768 49.6503C226.311 48.7234 226.081 47.6017 226.08 46.2851C226.08 44.8003 226.335 43.5856 226.845 42.6409C227.327 41.727 228.017 40.9386 228.858 40.3384C229.725 39.7312 230.69 39.2773 231.711 38.9968C232.782 38.6937 233.877 38.4409 234.998 38.2382C236.186 38.002 237.317 37.8249 238.393 37.7068C239.347 37.6101 240.292 37.4408 241.221 37.2006C242.037 36.9821 242.681 36.6618 243.157 36.2397C243.634 35.8176 243.87 35.2065 243.87 34.3918C243.87 33.4472 243.692 32.688 243.336 32.1144C243.001 31.5625 242.526 31.1084 241.96 30.7978C241.372 30.4864 240.734 30.281 240.074 30.1912C239.39 30.0919 238.699 30.0426 238.008 30.0436C236.175 30.0436 234.646 30.388 233.422 31.0768C232.198 31.7656 231.536 33.0728 231.435 34.9984H227.105C227.171 33.3788 227.51 32.0125 228.123 30.8997C228.709 29.8146 229.546 28.8858 230.564 28.1913C231.626 27.4826 232.809 26.9766 234.055 26.6991C235.434 26.3871 236.845 26.2341 238.259 26.243C239.444 26.2432 240.628 26.328 241.801 26.4969C242.916 26.6465 243.995 26.9965 244.986 27.5301C245.931 28.0468 246.722 28.8052 247.278 29.7278C247.856 30.6694 248.145 31.8994 248.145 33.4177V46.8489C248.145 47.8585 248.204 48.5989 248.323 49.0702C248.442 49.5416 248.841 49.7772 249.52 49.7772C249.97 49.767 250.416 49.699 250.849 49.575L250.844 52.9151ZM243.813 39.5031C243.268 39.9075 242.555 40.1997 241.673 40.3886C240.79 40.5776 239.863 40.7237 238.895 40.8418C237.927 40.9598 236.951 41.0941 235.965 41.2447C235.055 41.3748 234.164 41.6198 233.316 41.9738C232.568 42.2844 231.912 42.7783 231.406 43.4099C230.914 44.0318 230.668 44.8795 230.668 45.953C230.648 46.5771 230.798 47.195 231.102 47.7404C231.379 48.2152 231.762 48.6194 232.222 48.9212C232.712 49.2369 233.257 49.459 233.828 49.5765C234.464 49.7132 235.112 49.7805 235.763 49.7772C237.191 49.7772 238.414 49.5844 239.432 49.1986C240.348 48.8726 241.195 48.3769 241.928 47.7374C242.532 47.2045 243.019 46.5509 243.355 45.8187C243.642 45.2114 243.798 44.5507 243.814 43.8793L243.813 39.5031ZM274.638 60.4056C272.67 62.531 269.579 63.5937 265.365 63.5937C264.106 63.59 262.851 63.4545 261.62 63.1893C260.401 62.9405 259.231 62.4959 258.155 61.8727C257.133 61.2791 256.254 60.4672 255.582 59.495C254.902 58.511 254.528 57.313 254.46 55.901H258.792C258.806 56.6242 259.066 57.3211 259.53 57.8758C259.998 58.4216 260.57 58.8686 261.213 59.1909C261.896 59.5369 262.625 59.7853 263.378 59.9289C264.116 60.0769 264.867 60.1535 265.62 60.1577C267.046 60.1577 268.252 59.9117 269.238 59.4197C270.202 58.9462 271.04 58.2507 271.683 57.3902C272.36 56.4602 272.837 55.4005 273.084 54.2774C273.383 52.966 273.529 51.6242 273.518 50.2791V48.5625H273.415C272.668 50.1821 271.536 51.3718 270.02 52.1314C268.527 52.8855 266.876 53.2754 265.204 53.2693C263.236 53.2693 261.521 52.9151 260.059 52.2067C258.643 51.5321 257.392 50.5564 256.394 49.3477C255.386 48.1072 254.634 46.6796 254.18 45.1471C253.681 43.4978 253.432 41.7827 253.442 40.0595C253.45 38.4465 253.655 36.8405 254.053 35.2774C254.446 33.6764 255.141 32.1648 256.099 30.8229C257.09 29.4545 258.379 28.3295 259.87 27.533C261.431 26.672 263.35 26.2415 265.626 26.2415C267.22 26.225 268.795 26.599 270.212 27.3308C271.607 28.0595 272.745 29.1985 273.472 30.5941H273.524V26.8511H277.599V50.7897C277.595 55.0749 276.608 58.2802 274.638 60.4056V60.4056ZM269.109 48.6393C270.091 48.0685 270.922 47.2696 271.53 46.3102C272.159 45.3055 272.616 44.2024 272.88 43.0468C273.166 41.8531 273.311 40.6301 273.313 39.4027C273.313 38.2589 273.177 37.1191 272.905 36.008C272.651 34.9363 272.212 33.9173 271.607 32.997C271.015 32.1068 270.22 31.3698 269.288 30.8465C268.337 30.3063 267.183 30.0362 265.824 30.0362C264.43 30.0362 263.241 30.298 262.256 30.8214C261.296 31.322 260.467 32.0414 259.836 32.9217C259.19 33.8378 258.723 34.868 258.46 35.9578C258.169 37.1334 258.023 38.3405 258.028 39.5518C258.028 40.7415 258.148 41.9282 258.385 43.0941C258.603 44.2278 259.016 45.3151 259.607 46.3072C260.172 47.2575 260.959 48.0566 261.901 48.6363C262.851 49.2267 264.04 49.5219 265.467 49.5219C266.893 49.5219 268.108 49.2277 269.109 48.6393V48.6393ZM302.761 51.3462C300.793 52.831 298.313 53.5734 295.321 53.5734C293.215 53.5734 291.389 53.2359 289.844 52.5609C288.347 51.922 287.015 50.9532 285.945 49.727C284.865 48.4556 284.061 46.9733 283.584 45.3744C283.042 43.5835 282.744 41.7278 282.698 39.8573C282.677 37.9969 282.987 36.1477 283.615 34.3962C284.183 32.8071 285.054 31.3431 286.179 30.0849C287.274 28.8766 288.611 27.9113 290.102 27.2511C291.666 26.569 293.358 26.2269 295.064 26.2474C297.408 26.2474 299.353 26.7286 300.898 27.6909C302.403 28.6128 303.676 29.8682 304.618 31.3602C305.553 32.8485 306.209 34.4944 306.554 36.2176C306.902 37.8666 307.047 39.5517 306.987 41.2358H287.268C287.228 42.3389 287.366 43.4411 287.675 44.5007C287.968 45.5059 288.471 46.4372 289.151 47.2327C289.867 48.0509 290.758 48.6976 291.758 49.1248C292.811 49.5991 294.051 49.8353 295.477 49.8333C297.312 49.8333 298.815 49.4117 299.986 48.5684C301.157 47.7251 301.93 46.443 302.305 44.7221H306.585C306.007 47.6573 304.733 49.8653 302.764 51.3462H302.761ZM301.716 34.5438C301.348 33.6618 300.811 32.8597 300.137 32.1823C299.043 31.1444 297.672 30.4443 296.19 30.166C294.707 29.8877 293.176 30.043 291.78 30.6133C290.907 30.9829 290.118 31.5257 289.461 32.2088C288.811 32.8919 288.293 33.6896 287.934 34.5615C287.556 35.4712 287.332 36.4373 287.271 37.4205H302.404C302.34 36.4298 302.108 35.4571 301.719 34.5438H301.716ZM44.7261 24.7715C45.4393 24.3325 46.1042 23.8195 46.7098 23.2409C46.8278 23.1273 46.9385 23.0136 47.0507 22.9C47.4744 22.4688 47.8652 22.0066 48.2197 21.517C48.5804 21.0193 48.8905 20.4868 49.1451 19.9274C49.4999 19.1645 49.7177 18.3451 49.7886 17.5068C50.0085 14.6449 48.3127 11.7992 44.5312 9.50413L29.3052 0.270508L11.5553 17.2765L0 28.3463L16.0289 38.0728C18.5959 39.6444 21.5443 40.4826 24.5541 40.4964C28.2322 40.4964 31.7568 39.1975 34.3574 36.7046C37.1854 33.9948 38.1241 30.4879 36.3795 27.5729C36.0953 27.1001 35.7586 26.6609 35.3759 26.2637C36.3102 26.4719 37.2643 26.5783 38.2215 26.581H38.2466C39.8117 26.5837 41.3635 26.2939 42.8221 25.7264C43.4839 25.4655 44.1211 25.1459 44.7261 24.7715V24.7715ZM29.8794 33.5977C27.0278 36.3297 22.4405 36.7327 18.7063 34.4685L7.61744 27.7382L17.5713 18.1961L28.8506 25.0431C32.9154 27.5123 32.6911 30.9115 29.8794 33.6036V33.5977ZM31.1989 21.4638L20.7712 15.1393L30.2764 6.02676L40.5152 12.242C44.3438 14.5637 44.8412 17.7105 42.0723 20.3598C40.6362 21.7184 38.7911 22.5639 36.8244 22.7646C34.8577 22.9654 32.8799 22.5101 31.1989 21.4697V21.4638ZM35.6061 49.5071C32.7176 52.2746 28.7916 53.7992 24.5541 53.7992C21.2139 53.7857 17.9413 52.8572 15.0917 51.1144L0 41.9679V45.6091L16.0289 55.3372C18.5959 56.9087 21.5443 57.7469 24.5541 57.7607C28.2322 57.7607 31.7568 56.4604 34.3574 53.969C36.2585 52.1476 37.3094 49.9647 37.2621 47.8452V47.581C36.7751 48.2798 36.2204 48.9289 35.6061 49.5189V49.5071ZM35.6061 43.7509C32.7176 46.5198 28.7916 48.0444 24.5541 48.0444C21.2139 48.0309 17.9413 47.1024 15.0917 45.3597L0 36.2131V39.8558L16.0289 49.5839C18.596 51.155 21.5445 51.9927 24.5541 52.0059C28.2322 52.0059 31.7568 50.7071 34.3574 48.2157C36.2585 46.3928 37.3094 44.2114 37.2621 42.0904V41.8262C36.7759 42.5256 36.2211 43.1748 35.6061 43.7642V43.7509ZM35.6061 37.9946C32.7176 40.7635 28.7916 42.2882 24.5541 42.2882C21.2139 42.2747 17.9413 41.3461 15.0917 39.6034L0 30.4598V34.1025L16.0289 43.8306C18.596 45.4017 21.5445 46.2394 24.5541 46.2526C28.2322 46.2526 31.7568 44.9538 34.3574 42.4609C36.2585 40.6395 37.3094 38.4581 37.2621 36.3371V36.0685C36.7759 36.7693 36.2212 37.4199 35.6061 38.0109V37.9946ZM47.9584 41.7937C45.5495 44.0883 42.3973 45.4426 39.0746 45.6106V49.5676C41.931 49.4088 44.6376 48.2384 46.7098 46.2659C48.7761 44.2911 49.8314 42.117 49.8093 39.9724V39.6477C49.2672 40.4293 48.647 41.1538 47.9584 41.81V41.7937ZM35.6061 55.256C32.7176 58.0234 28.7916 59.5496 24.5541 59.5496C21.2137 59.5362 17.9409 58.6071 15.0917 56.8633L0 47.7212V51.3624L16.0289 61.0905C18.5959 62.662 21.5443 63.5002 24.5541 63.514C28.2322 63.514 31.7568 62.2137 34.3574 59.7223C36.2585 57.9009 37.3094 55.718 37.2621 53.5985V53.3343C36.7755 54.0334 36.2208 54.6825 35.6061 55.2722V55.256ZM48.2625 24.2298C48.1621 24.3316 48.0632 24.4335 47.9584 24.5324C46.9763 25.4514 45.8722 26.2306 44.6774 26.8482C43.4564 27.4642 42.1514 27.8973 40.8044 28.1337C40.1143 28.2616 39.4158 28.3391 38.7145 28.3654C38.7883 28.6031 38.8473 28.8451 38.899 29.0887C39.0221 29.6707 39.0781 30.265 39.0658 30.8598V32.2989H39.0731C40.3574 32.2219 41.622 31.9465 42.8221 31.4827C44.2692 30.9166 45.5919 30.0733 46.7157 29.0001C46.8352 28.8865 46.9385 28.7699 47.0507 28.6547C47.4744 28.2231 47.8652 27.7603 48.2197 27.2703C48.5812 26.772 48.8922 26.239 49.1481 25.6792C49.5018 24.9142 49.7176 24.0928 49.7857 23.2527C49.799 23.0712 49.8152 22.8881 49.8137 22.7066V22.4114C49.7074 22.559 49.5953 22.7155 49.4801 22.8675C49.1039 23.3524 48.6972 23.8128 48.2625 24.246V24.2298ZM48.2625 35.7305C48.1621 35.8338 48.0706 35.9386 47.9673 36.0404C45.5586 38.3353 42.4062 39.6892 39.0835 39.8558V43.8114C41.9397 43.6519 44.6461 42.4816 46.7186 40.5097C47.7338 39.5685 48.5594 38.4417 49.151 37.1902C49.5046 36.4252 49.7204 35.6038 49.7886 34.7637C49.8019 34.5807 49.8181 34.3977 49.8167 34.2162V33.8914C49.7074 34.0508 49.5997 34.2103 49.4816 34.3667C49.1038 34.8529 48.6945 35.3139 48.2566 35.7467L48.2625 35.7305ZM48.2625 29.9742C48.1621 30.0776 48.0706 30.1824 47.9673 30.2842C47.4772 30.748 46.9532 31.1748 46.3998 31.5609C45.8534 31.9464 45.2797 32.2917 44.6833 32.5941C42.9408 33.477 41.0339 33.9887 39.0835 34.0966H39.0761V38.033C41.9324 37.8738 44.6389 36.7034 46.7112 34.7313C46.8308 34.6176 46.9341 34.501 47.0463 34.3859C47.47 33.9543 47.8607 33.4915 48.2153 33.0014C48.5764 32.5035 48.8874 31.971 49.1436 31.4118C49.4974 30.6463 49.7132 29.8244 49.7812 28.9839C49.7945 28.8023 49.8108 28.6193 49.8093 28.4378V28.1131C49.7001 28.2725 49.5923 28.4319 49.4742 28.5883C49.0989 29.0823 48.6921 29.5516 48.2566 29.9934L48.2625 29.9742Z" fill="white"/>
</svg>
