<svg width="90" height="113" viewBox="0 0 90 113" fill="none" xmlns="http://www.w3.org/2000/svg">
<path d="M30.0344 107.865V87.4297H59.7392V107.865" stroke="#64F9BF" stroke-width="9.53665" stroke-linecap="round" stroke-linejoin="round"/>
<path d="M74.5914 5.68652H15.1819C9.71337 5.68652 5.28027 10.2612 5.28027 15.9044V97.647C5.28027 103.29 9.71337 107.865 15.1819 107.865H74.5914C80.0599 107.865 84.493 103.29 84.493 97.647V15.9044C84.493 10.2612 80.0599 5.68652 74.5914 5.68652Z" stroke="#4924CC" stroke-width="9.53665" stroke-linecap="round" stroke-linejoin="round"/>
<path d="M25.0844 26.1221H25.1336" stroke="#4924CC" stroke-width="10.2178" stroke-linecap="round" stroke-linejoin="round"/>
<path d="M64.6899 26.1221H64.7392" stroke="#4924CC" stroke-width="10.2178" stroke-linecap="round" stroke-linejoin="round"/>
<path d="M44.887 26.1221H44.9362" stroke="#4924CC" stroke-width="10.2178" stroke-linecap="round" stroke-linejoin="round"/>
<path d="M44.887 46.5576H44.9362" stroke="#4924CC" stroke-width="10.2178" stroke-linecap="round" stroke-linejoin="round"/>
<path d="M44.887 66.9932H44.9362" stroke="#4924CC" stroke-width="10.2178" stroke-linecap="round" stroke-linejoin="round"/>
<path d="M64.6899 46.5576H64.7392" stroke="#4924CC" stroke-width="10.2178" stroke-linecap="round" stroke-linejoin="round"/>
<path d="M64.6899 66.9932H64.7392" stroke="#4924CC" stroke-width="10.2178" stroke-linecap="round" stroke-linejoin="round"/>
<path d="M25.0844 46.5576H25.1336" stroke="#4924CC" stroke-width="10.2178" stroke-linecap="round" stroke-linejoin="round"/>
<path d="M25.0844 66.9932H25.1336" stroke="#4924CC" stroke-width="10.2178" stroke-linecap="round" stroke-linejoin="round"/>
</svg>
