<svg width="66" height="83" viewBox="0 0 66 83" fill="none" xmlns="http://www.w3.org/2000/svg">
<path d="M21.985 78.7676V63.7676H43.7886V78.7676" stroke="#64F9BF" stroke-width="7" stroke-linecap="round" stroke-linejoin="round"/>
<path d="M54.6903 3.76758H11.0831C7.06912 3.76758 3.81519 7.12544 3.81519 11.2676V71.2676C3.81519 75.4097 7.06912 78.7676 11.0831 78.7676H54.6903C58.7042 78.7676 61.9582 75.4097 61.9582 71.2676V11.2676C61.9582 7.12544 58.7042 3.76758 54.6903 3.76758Z" stroke="#4924CC" stroke-width="7" stroke-linecap="round" stroke-linejoin="round"/>
<path d="M18.3516 18.7676H18.3877" stroke="#4924CC" stroke-width="7.5" stroke-linecap="round" stroke-linejoin="round"/>
<path d="M47.4225 18.7676H47.4586" stroke="#4924CC" stroke-width="7.5" stroke-linecap="round" stroke-linejoin="round"/>
<path d="M32.887 18.7676H32.9232" stroke="#4924CC" stroke-width="7.5" stroke-linecap="round" stroke-linejoin="round"/>
<path d="M32.887 33.7676H32.9232" stroke="#4924CC" stroke-width="7.5" stroke-linecap="round" stroke-linejoin="round"/>
<path d="M32.887 48.7676H32.9232" stroke="#4924CC" stroke-width="7.5" stroke-linecap="round" stroke-linejoin="round"/>
<path d="M47.4225 33.7676H47.4586" stroke="#4924CC" stroke-width="7.5" stroke-linecap="round" stroke-linejoin="round"/>
<path d="M47.4225 48.7676H47.4586" stroke="#4924CC" stroke-width="7.5" stroke-linecap="round" stroke-linejoin="round"/>
<path d="M18.3516 33.7676H18.3877" stroke="#4924CC" stroke-width="7.5" stroke-linecap="round" stroke-linejoin="round"/>
<path d="M18.3516 48.7676H18.3877" stroke="#4924CC" stroke-width="7.5" stroke-linecap="round" stroke-linejoin="round"/>
</svg>
