<svg width="348" height="396" viewBox="0 0 348 396" fill="none" xmlns="http://www.w3.org/2000/svg">
<path d="M41.6594 145.873L38.8087 152.912L35.9434 145.873H33.5291L37.6015 155.865H40.0013L44.0737 145.873H41.6594ZM48.9366 148.171C47.8894 148.171 46.8567 148.462 45.795 149L46.5077 150.411C47.104 150.105 47.7585 149.872 48.4566 149.872C49.6929 149.872 50.2019 150.571 50.2019 151.371V151.531C49.562 151.269 48.8784 151.138 48.2675 151.138C46.5367 151.138 45.155 152.156 45.155 153.639C45.155 155.079 46.3768 156.039 47.9766 156.039C48.8057 156.039 49.6638 155.705 50.2019 155.108V155.865H52.2527V151.371C52.2527 149.407 50.9001 148.171 48.9366 148.171ZM48.4566 154.57C47.7294 154.57 47.1767 154.192 47.1767 153.581C47.1767 152.97 47.8021 152.52 48.573 152.52C49.1547 152.52 49.722 152.621 50.2019 152.81V153.494C50.0419 154.192 49.2711 154.57 48.4566 154.57ZM57.9573 156.039C59.2226 156.039 60.2407 155.53 60.9825 154.716L59.5717 153.523C59.179 153.959 58.5681 154.25 57.9863 154.25C56.8664 154.25 55.9356 153.261 55.9356 152.083C55.9356 150.934 56.8664 149.96 57.9718 149.96C58.5536 149.96 59.1499 150.236 59.5281 150.658L60.9389 149.451C60.2116 148.665 59.1935 148.171 57.9863 148.171C55.7611 148.171 53.8703 149.96 53.8703 152.098C53.8703 154.236 55.7465 156.039 57.9573 156.039ZM66.1311 156.039C67.3964 156.039 68.4146 155.53 69.1563 154.716L67.7455 153.523C67.3528 153.959 66.7419 154.25 66.1602 154.25C65.0403 154.25 64.1094 153.261 64.1094 152.083C64.1094 150.934 65.0403 149.96 66.1456 149.96C66.7274 149.96 67.3237 150.236 67.7019 150.658L69.1127 149.451C68.3855 148.665 67.3674 148.171 66.1602 148.171C63.9349 148.171 62.0441 149.96 62.0441 152.098C62.0441 154.236 63.9203 156.039 66.1311 156.039ZM71.8324 147.313C72.4578 147.313 72.9668 146.789 72.9668 146.149C72.9668 145.553 72.4578 145.015 71.8324 145.015C71.1779 145.015 70.6688 145.553 70.6688 146.149C70.6688 146.789 71.1779 147.313 71.8324 147.313ZM70.7561 155.865H72.8796V148.345H70.7561V155.865ZM79.601 148.171C78.6265 148.171 77.7975 148.593 77.3321 149.262V148.345H75.2086V155.865H77.3321V151.414C77.3321 150.6 78.0157 149.96 78.9029 149.96C79.7464 149.96 80.3428 150.6 80.3428 151.531V155.865H82.379V151.08C82.379 149.363 81.23 148.171 79.601 148.171ZM88.0083 154.396C86.9757 154.396 86.2775 153.683 86.0885 152.665H91.7462C91.7462 149.872 90.3209 148.171 87.9647 148.171C85.7685 148.171 84.0668 149.814 84.0668 152.083C84.0668 154.396 85.8412 156.039 88.0811 156.039C89.1864 156.039 90.4809 155.574 91.1499 154.876L89.9573 153.654C89.4773 154.09 88.7065 154.396 88.0083 154.396ZM87.9938 149.814C88.9392 149.814 89.5355 150.469 89.71 151.4H86.103C86.3357 150.44 87.0484 149.814 87.9938 149.814ZM96.2226 156.039C98.0697 156.039 99.2915 155.094 99.2915 153.61C99.2915 151.967 97.837 151.531 96.5426 151.196C95.5245 150.92 95.1027 150.803 95.1027 150.396C95.1027 149.974 95.539 149.698 96.1208 149.698C96.8044 149.698 97.6189 150.032 98.3025 150.469L99.0733 149.102C98.2443 148.549 97.1825 148.171 96.1208 148.171C94.3318 148.171 93.1828 149.189 93.1828 150.614C93.1828 152.098 94.3755 152.52 95.9172 152.898C96.7462 153.101 97.3571 153.305 97.3571 153.785C97.3571 154.221 96.9789 154.483 96.2662 154.483C95.4518 154.483 94.4627 154.119 93.6919 153.567L92.8338 154.905C93.7355 155.632 95.0154 156.039 96.2226 156.039ZM41.7543 166.247C41.7543 164.269 40.1689 162.873 37.9873 162.873H33.493V172.865H35.6456V169.621H36.9401L39.2235 172.865H41.667L39.2672 169.447C40.7652 169.01 41.7543 167.818 41.7543 166.247ZM35.6456 164.836H37.7691C38.8308 164.836 39.5581 165.389 39.5581 166.247C39.5581 167.105 38.8308 167.658 37.7691 167.658H35.6456V164.836ZM47.2244 171.396C46.1918 171.396 45.4936 170.683 45.3046 169.665H50.9623C50.9623 166.872 49.537 165.171 47.1808 165.171C44.9846 165.171 43.2829 166.814 43.2829 169.083C43.2829 171.396 45.0573 173.039 47.2971 173.039C48.4025 173.039 49.697 172.574 50.366 171.876L49.1734 170.654C48.6934 171.09 47.9225 171.396 47.2244 171.396ZM47.2099 166.814C48.1553 166.814 48.7516 167.469 48.9261 168.4H45.3191C45.5518 167.44 46.2645 166.814 47.2099 166.814ZM58.3185 165.345V166.567C57.7222 165.694 56.8059 165.171 55.6714 165.171C53.6788 165.171 52.2244 166.8 52.2244 169.098C52.2244 171.41 53.6788 173.039 55.6714 173.039C56.8059 173.039 57.7222 172.516 58.3185 171.643V175.366H60.442V165.345H58.3185ZM56.2968 171.25C55.1187 171.25 54.2897 170.363 54.2897 169.098C54.2897 167.847 55.1187 166.96 56.2968 166.96C57.4167 166.96 58.2167 167.847 58.2167 169.098C58.2167 170.363 57.4167 171.25 56.2968 171.25ZM67.6684 165.345V169.796C67.6684 170.61 66.9848 171.25 66.0976 171.25C65.254 171.25 64.6577 170.61 64.6577 169.68V165.345H62.6215V170.13C62.6215 171.847 63.7705 173.039 65.414 173.039C66.3739 173.039 67.2029 172.617 67.6684 171.948V172.865H69.7918V165.345H67.6684ZM73.1959 164.313C73.8213 164.313 74.3304 163.789 74.3304 163.149C74.3304 162.553 73.8213 162.015 73.1959 162.015C72.5414 162.015 72.0323 162.553 72.0323 163.149C72.0323 163.789 72.5414 164.313 73.1959 164.313ZM72.1196 172.865H74.2431V165.345H72.1196V172.865ZM78.6956 166.756V165.345H76.5721V172.865H78.6956V169.272C78.6956 167.861 79.6992 166.96 81.27 166.96V165.171C80.121 165.171 79.1901 165.782 78.6956 166.756ZM86.5596 171.396C85.5269 171.396 84.8288 170.683 84.6397 169.665H90.2975C90.2975 166.872 88.8721 165.171 86.5159 165.171C84.3197 165.171 82.618 166.814 82.618 169.083C82.618 171.396 84.3925 173.039 86.6323 173.039C87.7377 173.039 89.0321 172.574 89.7012 171.876L88.5085 170.654C88.0286 171.09 87.2577 171.396 86.5596 171.396ZM86.545 166.814C87.4904 166.814 88.0867 167.469 88.2613 168.4H84.6543C84.887 167.44 85.5996 166.814 86.545 166.814ZM97.5518 162.698V166.422C96.9555 165.636 96.0683 165.171 95.0066 165.171C93.014 165.171 91.5595 166.8 91.5595 169.098C91.5595 171.41 93.014 173.039 95.0066 173.039C96.0683 173.039 96.9555 172.574 97.5518 171.788V172.865H99.6753V162.698H97.5518ZM95.632 171.25C94.4539 171.25 93.6248 170.363 93.6248 169.098C93.6248 167.847 94.4539 166.96 95.632 166.96C96.7519 166.96 97.5518 167.847 97.5518 169.098C97.5518 170.363 96.7519 171.25 95.632 171.25Z" fill="black"/>
<path d="M254.237 155.865H256.39V149.64L259.473 155.283L262.571 149.64V155.865H264.709V145.873H262.571L259.473 151.516L256.39 145.873H254.237V155.865ZM270.462 148.171C269.415 148.171 268.382 148.462 267.32 149L268.033 150.411C268.629 150.105 269.284 149.872 269.982 149.872C271.218 149.872 271.727 150.571 271.727 151.371V151.531C271.087 151.269 270.404 151.138 269.793 151.138C268.062 151.138 266.68 152.156 266.68 153.639C266.68 155.079 267.902 156.039 269.502 156.039C270.331 156.039 271.189 155.705 271.727 155.108V155.865H273.778V151.371C273.778 149.407 272.425 148.171 270.462 148.171ZM269.982 154.57C269.255 154.57 268.702 154.192 268.702 153.581C268.702 152.97 269.327 152.52 270.098 152.52C270.68 152.52 271.247 152.621 271.727 152.81V153.494C271.567 154.192 270.796 154.57 269.982 154.57ZM278.683 156.039C280.53 156.039 281.752 155.094 281.752 153.61C281.752 151.967 280.297 151.531 279.003 151.196C277.985 150.92 277.563 150.803 277.563 150.396C277.563 149.974 277.999 149.698 278.581 149.698C279.264 149.698 280.079 150.032 280.763 150.469L281.533 149.102C280.704 148.549 279.643 148.171 278.581 148.171C276.792 148.171 275.643 149.189 275.643 150.614C275.643 152.098 276.836 152.52 278.377 152.898C279.206 153.101 279.817 153.305 279.817 153.785C279.817 154.221 279.439 154.483 278.726 154.483C277.912 154.483 276.923 154.119 276.152 153.567L275.294 154.905C276.196 155.632 277.475 156.039 278.683 156.039ZM283.539 155.865H285.663V154.032L286.565 153.043L288.441 155.865H290.87L287.976 151.676L290.913 148.345H288.47L285.663 151.603V145.698H283.539V155.865ZM295.172 156.039C297.019 156.039 298.241 155.094 298.241 153.61C298.241 151.967 296.787 151.531 295.492 151.196C294.474 150.92 294.052 150.803 294.052 150.396C294.052 149.974 294.489 149.698 295.071 149.698C295.754 149.698 296.569 150.032 297.252 150.469L298.023 149.102C297.194 148.549 296.132 148.171 295.071 148.171C293.282 148.171 292.133 149.189 292.133 150.614C292.133 152.098 293.325 152.52 294.867 152.898C295.696 153.101 296.307 153.305 296.307 153.785C296.307 154.221 295.929 154.483 295.216 154.483C294.402 154.483 293.412 154.119 292.642 153.567L291.784 154.905C292.685 155.632 293.965 156.039 295.172 156.039ZM251.14 166.247C251.14 164.269 249.554 162.873 247.373 162.873H242.878V172.865H245.031V169.621H246.325L248.609 172.865H251.052L248.653 169.447C250.151 169.01 251.14 167.818 251.14 166.247ZM245.031 164.836H247.154C248.216 164.836 248.943 165.389 248.943 166.247C248.943 167.105 248.216 167.658 247.154 167.658H245.031V164.836ZM256.61 171.396C255.577 171.396 254.879 170.683 254.69 169.665H260.348C260.348 166.872 258.922 165.171 256.566 165.171C254.37 165.171 252.668 166.814 252.668 169.083C252.668 171.396 254.443 173.039 256.682 173.039C257.788 173.039 259.082 172.574 259.751 171.876L258.559 170.654C258.079 171.09 257.308 171.396 256.61 171.396ZM256.595 166.814C257.541 166.814 258.137 167.469 258.311 168.4H254.704C254.937 167.44 255.65 166.814 256.595 166.814ZM267.704 165.345V166.567C267.108 165.694 266.191 165.171 265.057 165.171C263.064 165.171 261.61 166.8 261.61 169.098C261.61 171.41 263.064 173.039 265.057 173.039C266.191 173.039 267.108 172.516 267.704 171.643V175.366H269.827V165.345H267.704ZM265.682 171.25C264.504 171.25 263.675 170.363 263.675 169.098C263.675 167.847 264.504 166.96 265.682 166.96C266.802 166.96 267.602 167.847 267.602 169.098C267.602 170.363 266.802 171.25 265.682 171.25ZM277.054 165.345V169.796C277.054 170.61 276.37 171.25 275.483 171.25C274.639 171.25 274.043 170.61 274.043 169.68V165.345H272.007V170.13C272.007 171.847 273.156 173.039 274.799 173.039C275.759 173.039 276.588 172.617 277.054 171.948V172.865H279.177V165.345H277.054ZM282.581 164.313C283.207 164.313 283.716 163.789 283.716 163.149C283.716 162.553 283.207 162.015 282.581 162.015C281.927 162.015 281.418 162.553 281.418 163.149C281.418 163.789 281.927 164.313 282.581 164.313ZM281.505 172.865H283.628V165.345H281.505V172.865ZM288.081 166.756V165.345H285.957V172.865H288.081V169.272C288.081 167.861 289.085 166.96 290.655 166.96V165.171C289.506 165.171 288.575 165.782 288.081 166.756ZM295.945 171.396C294.912 171.396 294.214 170.683 294.025 169.665H299.683C299.683 166.872 298.257 165.171 295.901 165.171C293.705 165.171 292.003 166.814 292.003 169.083C292.003 171.396 293.778 173.039 296.018 173.039C297.123 173.039 298.417 172.574 299.086 171.876L297.894 170.654C297.414 171.09 296.643 171.396 295.945 171.396ZM295.93 166.814C296.876 166.814 297.472 167.469 297.647 168.4H294.04C294.272 167.44 294.985 166.814 295.93 166.814ZM306.937 162.698V166.422C306.341 165.636 305.454 165.171 304.392 165.171C302.399 165.171 300.945 166.8 300.945 169.098C300.945 171.41 302.399 173.039 304.392 173.039C305.454 173.039 306.341 172.574 306.937 171.788V172.865H309.061V162.698H306.937ZM305.017 171.25C303.839 171.25 303.01 170.363 303.01 169.098C303.01 167.847 303.839 166.96 305.017 166.96C306.137 166.96 306.937 167.847 306.937 169.098C306.937 170.363 306.137 171.25 305.017 171.25Z" fill="black"/>
<path d="M56.1913 356.872H59.7837C63.1435 356.872 65.5288 354.792 65.5288 351.868C65.5288 348.945 63.1435 346.88 59.7837 346.88H56.1913V356.872ZM58.3439 354.923V348.829H60.0601C61.9654 348.829 63.318 350.094 63.318 351.868C63.318 353.657 61.9654 354.923 60.0601 354.923H58.3439ZM70.669 349.178C69.6218 349.178 68.5891 349.468 67.5274 350.007L68.24 351.417C68.8364 351.112 69.4909 350.879 70.189 350.879C71.4253 350.879 71.9343 351.577 71.9343 352.377V352.537C71.2944 352.276 70.6108 352.145 69.9999 352.145C68.2691 352.145 66.8874 353.163 66.8874 354.646C66.8874 356.086 68.1091 357.046 69.709 357.046C70.5381 357.046 71.3962 356.712 71.9343 356.115V356.872H73.9851V352.377C73.9851 350.414 72.6325 349.178 70.669 349.178ZM70.189 355.577C69.4618 355.577 68.9091 355.199 68.9091 354.588C68.9091 353.977 69.5345 353.526 70.3053 353.526C70.8871 353.526 71.4544 353.628 71.9343 353.817V354.501C71.7743 355.199 71.0035 355.577 70.189 355.577ZM77.2171 348.319C77.8425 348.319 78.3516 347.796 78.3516 347.156C78.3516 346.56 77.8425 346.021 77.2171 346.021C76.5626 346.021 76.0536 346.56 76.0536 347.156C76.0536 347.796 76.5626 348.319 77.2171 348.319ZM76.1408 356.872H78.2643V349.352H76.1408V356.872ZM80.5933 356.872H82.7168V346.705H80.5933V356.872ZM86.6312 359.49C87.8093 359.49 88.7692 358.719 89.3364 357.25L92.4198 349.352H90.2527L88.3765 354.632L86.3985 349.352H84.2023L87.3293 356.944L87.0675 357.497C86.9075 357.773 86.5876 357.904 86.1803 357.904C85.9331 357.904 85.5549 357.773 85.1913 357.57L84.7404 359.024C85.2495 359.3 86.0058 359.49 86.6312 359.49ZM28.8265 373.872H30.9645V365.814H34.0916V363.88H25.714V365.814H28.8265V373.872ZM39.2937 372.403C38.261 372.403 37.5629 371.69 37.3738 370.672H43.0316C43.0316 367.879 41.6062 366.178 39.25 366.178C37.0538 366.178 35.3521 367.821 35.3521 370.09C35.3521 372.403 37.1266 374.046 39.3664 374.046C40.4718 374.046 41.7662 373.581 42.4353 372.883L41.2426 371.661C40.7627 372.097 39.9918 372.403 39.2937 372.403ZM39.2791 367.821C40.2245 367.821 40.8208 368.476 40.9954 369.406H37.3884C37.6211 368.447 38.3337 367.821 39.2791 367.821ZM53.7475 366.178C52.5985 366.178 51.7113 366.876 51.4931 367.923C51.0859 366.861 50.0968 366.178 48.9188 366.178C47.9879 366.178 47.2462 366.628 46.8825 367.341V366.352H44.7591V373.872H46.8825V369.334C46.8825 368.534 47.4789 367.967 48.337 367.967C49.1224 367.967 49.6605 368.577 49.6605 369.45V373.886H51.7113V369.334C51.7113 368.534 52.3076 367.967 53.1512 367.967C53.9366 367.967 54.4893 368.577 54.4893 369.45V373.886H56.5255V369.086C56.5255 367.385 55.3183 366.178 53.7475 366.178ZM63.3679 366.178C62.3062 366.178 61.4335 366.643 60.8372 367.428V366.352H58.7137V376.373H60.8372V372.795C61.4335 373.581 62.3062 374.046 63.3679 374.046C65.375 374.046 66.8295 372.417 66.8295 370.105C66.8295 367.807 65.375 366.178 63.3679 366.178ZM62.757 372.257C61.6371 372.257 60.8372 371.37 60.8372 370.105C60.8372 368.854 61.6371 367.967 62.757 367.967C63.9351 367.967 64.7642 368.854 64.7642 370.105C64.7642 371.37 63.9351 372.257 62.757 372.257ZM72.1242 372.403C71.0915 372.403 70.3934 371.69 70.2043 370.672H75.8621C75.8621 367.879 74.4367 366.178 72.0806 366.178C69.8844 366.178 68.1827 367.821 68.1827 370.09C68.1827 372.403 69.9571 374.046 72.1969 374.046C73.3023 374.046 74.5967 373.581 75.2658 372.883L74.0731 371.661C73.5932 372.097 72.8223 372.403 72.1242 372.403ZM72.1096 367.821C73.055 367.821 73.6514 368.476 73.8259 369.406H70.2189C70.4516 368.447 71.1643 367.821 72.1096 367.821ZM79.7131 367.763V366.352H77.5896V373.872H79.7131V370.279C79.7131 368.868 80.7166 367.967 82.2874 367.967V366.178C81.1384 366.178 80.2076 366.788 79.7131 367.763ZM87.3007 366.178C86.2535 366.178 85.2208 366.468 84.1591 367.007L84.8718 368.417C85.4681 368.112 86.1226 367.879 86.8207 367.879C88.057 367.879 88.566 368.577 88.566 369.377V369.537C87.9261 369.276 87.2425 369.145 86.6316 369.145C84.9009 369.145 83.5192 370.163 83.5192 371.646C83.5192 373.086 84.7409 374.046 86.3408 374.046C87.1698 374.046 88.0279 373.712 88.566 373.115V373.872H90.6168V369.377C90.6168 367.414 89.2642 366.178 87.3007 366.178ZM86.8207 372.577C86.0935 372.577 85.5408 372.199 85.5408 371.588C85.5408 370.977 86.1662 370.526 86.9371 370.526C87.5189 370.526 88.0861 370.628 88.566 370.817V371.501C88.4061 372.199 87.6352 372.577 86.8207 372.577ZM96.5977 372.01C96.4523 372.155 96.1614 372.257 95.8705 372.257C95.4778 372.257 95.1724 371.908 95.1724 371.414V368.068H96.8013V366.352H95.1724V364.287H93.1216V366.352H92.089V368.068H93.1216V371.748C93.1216 373.101 94.0525 374.046 95.3905 374.046C95.9869 374.046 96.6704 373.784 97.1068 373.392L96.5977 372.01ZM103.675 366.352V370.803C103.675 371.617 102.991 372.257 102.104 372.257C101.26 372.257 100.664 371.617 100.664 370.686V366.352H98.6278V371.137C98.6278 372.853 99.7768 374.046 101.42 374.046C102.38 374.046 103.209 373.624 103.675 372.955V373.872H105.798V366.352H103.675ZM110.249 367.763V366.352H108.126V373.872H110.249V370.279C110.249 368.868 111.253 367.967 112.824 367.967V366.178C111.675 366.178 110.744 366.788 110.249 367.763ZM118.113 372.403C117.081 372.403 116.383 371.69 116.194 370.672H121.851C121.851 367.879 120.426 366.178 118.07 366.178C115.874 366.178 114.172 367.821 114.172 370.09C114.172 372.403 115.946 374.046 118.186 374.046C119.291 374.046 120.586 373.581 121.255 372.883L120.062 371.661C119.582 372.097 118.812 372.403 118.113 372.403ZM118.099 367.821C119.044 367.821 119.641 368.476 119.815 369.406H116.208C116.441 368.447 117.153 367.821 118.099 367.821ZM53.1242 392.046C54.6368 392.046 56.0185 391.392 56.993 390.374L55.4367 388.977C54.8695 389.646 54.0405 390.097 53.1242 390.097C51.437 390.097 50.0117 388.614 50.0117 386.868C50.0117 385.138 51.437 383.654 53.1242 383.654C54.0259 383.654 54.8695 384.105 55.4367 384.774L56.993 383.378C56.0185 382.345 54.6368 381.705 53.1242 381.705C50.2444 381.705 47.8009 384.061 47.8009 386.868C47.8009 389.675 50.2444 392.046 53.1242 392.046ZM63.1592 384.178C62.1848 384.178 61.3557 384.599 60.8903 385.268V381.705H58.7668V391.872H60.8903V387.421C60.8903 386.607 61.5739 385.967 62.4611 385.967C63.3047 385.967 63.901 386.607 63.901 387.537V391.872H65.9372V387.086C65.9372 385.37 64.7882 384.178 63.1592 384.178ZM71.5666 390.403C70.5339 390.403 69.8358 389.69 69.6467 388.672H75.3045C75.3045 385.879 73.8791 384.178 71.5229 384.178C69.3267 384.178 67.625 385.821 67.625 388.09C67.625 390.403 69.3995 392.046 71.6393 392.046C72.7447 392.046 74.0391 391.581 74.7081 390.883L73.5155 389.661C73.0355 390.097 72.2647 390.403 71.5666 390.403ZM71.552 385.821C72.4974 385.821 73.0937 386.476 73.2683 387.406H69.6613C69.894 386.447 70.6066 385.821 71.552 385.821ZM80.5808 392.046C81.8461 392.046 82.8642 391.537 83.606 390.723L82.1952 389.53C81.8025 389.966 81.1916 390.257 80.6099 390.257C79.49 390.257 78.5591 389.268 78.5591 388.09C78.5591 386.941 79.49 385.967 80.5953 385.967C81.1771 385.967 81.7734 386.243 82.1516 386.665L83.5624 385.458C82.8352 384.672 81.8171 384.178 80.6099 384.178C78.3846 384.178 76.4938 385.967 76.4938 388.105C76.4938 390.243 78.37 392.046 80.5808 392.046ZM85.2058 391.872H87.3293V390.039L88.231 389.05L90.1072 391.872H92.5361L89.6418 387.683L92.5798 384.352H90.1363L87.3293 387.61V381.705H85.2058V391.872ZM96.8387 392.046C98.6858 392.046 99.9075 391.101 99.9075 389.617C99.9075 387.974 98.4531 387.537 97.1586 387.203C96.1405 386.926 95.7188 386.81 95.7188 386.403C95.7188 385.981 96.1551 385.705 96.7369 385.705C97.4204 385.705 98.2349 386.039 98.9185 386.476L99.6894 385.108C98.8603 384.556 97.7986 384.178 96.7369 384.178C94.9479 384.178 93.7989 385.196 93.7989 386.621C93.7989 388.105 94.9915 388.526 96.5332 388.905C97.3623 389.108 97.9731 389.312 97.9731 389.792C97.9731 390.228 97.595 390.49 96.8823 390.49C96.0678 390.49 95.0788 390.126 94.308 389.574L93.4498 390.912C94.3516 391.639 95.6315 392.046 96.8387 392.046Z" fill="black"/>
<path d="M228.02 356.872H230.187L232.558 350.007L234.914 356.872H237.081L240.107 346.88H237.765L235.932 353.585L233.722 346.88H231.38L229.169 353.585L227.322 346.88H224.995L228.02 356.872ZM243.956 350.763V349.352H241.833V356.872H243.956V353.279C243.956 351.868 244.96 350.967 246.531 350.967V349.178C245.382 349.178 244.451 349.788 243.956 350.763ZM249.45 348.319C250.075 348.319 250.584 347.796 250.584 347.156C250.584 346.56 250.075 346.021 249.45 346.021C248.795 346.021 248.286 346.56 248.286 347.156C248.286 347.796 248.795 348.319 249.45 348.319ZM248.373 356.872H250.497V349.352H248.373V356.872ZM255.575 357.046C257.422 357.046 258.643 356.101 258.643 354.617C258.643 352.974 257.189 352.537 255.895 352.203C254.876 351.926 254.455 351.81 254.455 351.403C254.455 350.981 254.891 350.705 255.473 350.705C256.156 350.705 256.971 351.039 257.654 351.476L258.425 350.108C257.596 349.556 256.535 349.178 255.473 349.178C253.684 349.178 252.535 350.196 252.535 351.621C252.535 353.105 253.727 353.526 255.269 353.905C256.098 354.108 256.709 354.312 256.709 354.792C256.709 355.228 256.331 355.49 255.618 355.49C254.804 355.49 253.815 355.126 253.044 354.574L252.186 355.912C253.088 356.639 254.367 357.046 255.575 357.046ZM264.257 355.01C264.111 355.155 263.82 355.257 263.529 355.257C263.137 355.257 262.831 354.908 262.831 354.414V351.068H264.46V349.352H262.831V347.287H260.78V349.352H259.748V351.068H260.78V354.748C260.78 356.101 261.711 357.046 263.049 357.046C263.646 357.046 264.329 356.784 264.766 356.392L264.257 355.01ZM271.188 349.178C270.068 349.178 269.152 349.687 268.556 350.545V346.705H266.432V356.872H268.556V355.679C269.152 356.537 270.068 357.046 271.188 357.046C273.195 357.046 274.635 355.417 274.635 353.105C274.635 350.807 273.195 349.178 271.188 349.178ZM270.577 355.257C269.443 355.257 268.657 354.37 268.657 353.105C268.657 351.854 269.443 350.967 270.577 350.967C271.741 350.967 272.57 351.854 272.57 353.105C272.57 354.37 271.741 355.257 270.577 355.257ZM279.666 349.178C278.618 349.178 277.586 349.468 276.524 350.007L277.237 351.417C277.833 351.112 278.488 350.879 279.186 350.879C280.422 350.879 280.931 351.577 280.931 352.377V352.537C280.291 352.276 279.608 352.145 278.997 352.145C277.266 352.145 275.884 353.163 275.884 354.646C275.884 356.086 277.106 357.046 278.706 357.046C279.535 357.046 280.393 356.712 280.931 356.115V356.872H282.982V352.377C282.982 350.414 281.629 349.178 279.666 349.178ZM279.186 355.577C278.458 355.577 277.906 355.199 277.906 354.588C277.906 353.977 278.531 353.526 279.302 353.526C279.884 353.526 280.451 353.628 280.931 353.817V354.501C280.771 355.199 280 355.577 279.186 355.577ZM289.53 349.178C288.555 349.178 287.726 349.599 287.261 350.268V349.352H285.138V356.872H287.261V352.421C287.261 351.607 287.945 350.967 288.832 350.967C289.675 350.967 290.272 351.607 290.272 352.537V356.872H292.308V352.086C292.308 350.37 291.159 349.178 289.53 349.178ZM300.017 346.705V350.428C299.421 349.643 298.534 349.178 297.472 349.178C295.479 349.178 294.025 350.807 294.025 353.105C294.025 355.417 295.479 357.046 297.472 357.046C298.534 357.046 299.421 356.581 300.017 355.795V356.872H302.141V346.705H300.017ZM298.097 355.257C296.919 355.257 296.09 354.37 296.09 353.105C296.09 351.854 296.919 350.967 298.097 350.967C299.217 350.967 300.017 351.854 300.017 353.105C300.017 354.37 299.217 355.257 298.097 355.257ZM307.217 357.046C309.064 357.046 310.286 356.101 310.286 354.617C310.286 352.974 308.831 352.537 307.537 352.203C306.519 351.926 306.097 351.81 306.097 351.403C306.097 350.981 306.533 350.705 307.115 350.705C307.799 350.705 308.613 351.039 309.297 351.476L310.068 350.108C309.238 349.556 308.177 349.178 307.115 349.178C305.326 349.178 304.177 350.196 304.177 351.621C304.177 353.105 305.37 353.526 306.911 353.905C307.74 354.108 308.351 354.312 308.351 354.792C308.351 355.228 307.973 355.49 307.26 355.49C306.446 355.49 305.457 355.126 304.686 354.574L303.828 355.912C304.73 356.639 306.01 357.046 307.217 357.046ZM320.152 355.01C320.007 355.155 319.716 355.257 319.425 355.257C319.033 355.257 318.727 354.908 318.727 354.414V351.068H320.356V349.352H318.727V347.287H316.676V349.352H315.644V351.068H316.676V354.748C316.676 356.101 317.607 357.046 318.945 357.046C319.542 357.046 320.225 356.784 320.661 356.392L320.152 355.01ZM325.906 357.046C328.16 357.046 330.007 355.272 330.007 353.105C330.007 350.937 328.16 349.178 325.906 349.178C323.652 349.178 321.804 350.937 321.804 353.105C321.804 355.272 323.652 357.046 325.906 357.046ZM325.906 355.257C324.771 355.257 323.841 354.283 323.841 353.105C323.841 351.926 324.771 350.967 325.906 350.967C327.04 350.967 327.957 351.926 327.957 353.105C327.957 354.283 327.04 355.257 325.906 355.257ZM234.133 363.705V367.428C233.536 366.643 232.649 366.178 231.588 366.178C229.595 366.178 228.141 367.807 228.141 370.105C228.141 372.417 229.595 374.046 231.588 374.046C232.649 374.046 233.536 373.581 234.133 372.795V373.872H236.256V363.705H234.133ZM232.213 372.257C231.035 372.257 230.206 371.37 230.206 370.105C230.206 368.854 231.035 367.967 232.213 367.967C233.333 367.967 234.133 368.854 234.133 370.105C234.133 371.37 233.333 372.257 232.213 372.257ZM242.031 372.403C240.998 372.403 240.3 371.69 240.111 370.672H245.769C245.769 367.879 244.343 366.178 241.987 366.178C239.791 366.178 238.089 367.821 238.089 370.09C238.089 372.403 239.864 374.046 242.103 374.046C243.209 374.046 244.503 373.581 245.172 372.883L243.98 371.661C243.5 372.097 242.729 372.403 242.031 372.403ZM242.016 367.821C242.961 367.821 243.558 368.476 243.732 369.406H240.125C240.358 368.447 241.071 367.821 242.016 367.821ZM251.888 366.178C250.914 366.178 250.085 366.599 249.619 367.268V366.352H247.496V373.872H249.619V369.421C249.619 368.607 250.303 367.967 251.19 367.967C252.034 367.967 252.63 368.607 252.63 369.537V373.872H254.666V369.086C254.666 367.37 253.517 366.178 251.888 366.178ZM260.427 374.046C262.681 374.046 264.528 372.272 264.528 370.105C264.528 367.937 262.681 366.178 260.427 366.178C258.172 366.178 256.325 367.937 256.325 370.105C256.325 372.272 258.172 374.046 260.427 374.046ZM260.427 372.257C259.292 372.257 258.361 371.283 258.361 370.105C258.361 368.926 259.292 367.967 260.427 367.967C261.561 367.967 262.477 368.926 262.477 370.105C262.477 371.283 261.561 372.257 260.427 372.257ZM270.14 372.01C269.995 372.155 269.704 372.257 269.413 372.257C269.02 372.257 268.715 371.908 268.715 371.414V368.068H270.344V366.352H268.715V364.287H266.664V366.352H265.631V368.068H266.664V371.748C266.664 373.101 267.595 374.046 268.933 374.046C269.529 374.046 270.213 373.784 270.649 373.392L270.14 372.01ZM275.763 372.403C274.73 372.403 274.032 371.69 273.843 370.672H279.501C279.501 367.879 278.075 366.178 275.719 366.178C273.523 366.178 271.821 367.821 271.821 370.09C271.821 372.403 273.596 374.046 275.836 374.046C276.941 374.046 278.235 373.581 278.904 372.883L277.712 371.661C277.232 372.097 276.461 372.403 275.763 372.403ZM275.748 367.821C276.694 367.821 277.29 368.476 277.464 369.406H273.857C274.09 368.447 274.803 367.821 275.748 367.821ZM288.231 374.046C290.078 374.046 291.3 373.101 291.3 371.617C291.3 369.974 289.845 369.537 288.551 369.203C287.533 368.926 287.111 368.81 287.111 368.403C287.111 367.981 287.547 367.705 288.129 367.705C288.812 367.705 289.627 368.039 290.311 368.476L291.081 367.108C290.252 366.556 289.191 366.178 288.129 366.178C286.34 366.178 285.191 367.196 285.191 368.621C285.191 370.105 286.384 370.526 287.925 370.905C288.754 371.108 289.365 371.312 289.365 371.792C289.365 372.228 288.987 372.49 288.274 372.49C287.46 372.49 286.471 372.126 285.7 371.574L284.842 372.912C285.744 373.639 287.024 374.046 288.231 374.046ZM297.742 366.178C296.68 366.178 295.807 366.643 295.211 367.428V366.352H293.088V376.373H295.211V372.795C295.807 373.581 296.68 374.046 297.742 374.046C299.749 374.046 301.203 372.417 301.203 370.105C301.203 367.807 299.749 366.178 297.742 366.178ZM297.131 372.257C296.011 372.257 295.211 371.37 295.211 370.105C295.211 368.854 296.011 367.967 297.131 367.967C298.309 367.967 299.138 368.854 299.138 370.105C299.138 371.37 298.309 372.257 297.131 372.257ZM306.222 366.178C305.174 366.178 304.142 366.468 303.08 367.007L303.793 368.417C304.389 368.112 305.044 367.879 305.742 367.879C306.978 367.879 307.487 368.577 307.487 369.377V369.537C306.847 369.276 306.163 369.145 305.553 369.145C303.822 369.145 302.44 370.163 302.44 371.646C302.44 373.086 303.662 374.046 305.262 374.046C306.091 374.046 306.949 373.712 307.487 373.115V373.872H309.538V369.377C309.538 367.414 308.185 366.178 306.222 366.178ZM305.742 372.577C305.014 372.577 304.462 372.199 304.462 371.588C304.462 370.977 305.087 370.526 305.858 370.526C306.44 370.526 307.007 370.628 307.487 370.817V371.501C307.327 372.199 306.556 372.577 305.742 372.577ZM315.242 374.046C316.508 374.046 317.526 373.537 318.268 372.723L316.857 371.53C316.464 371.966 315.853 372.257 315.271 372.257C314.152 372.257 313.221 371.268 313.221 370.09C313.221 368.941 314.152 367.967 315.257 367.967C315.839 367.967 316.435 368.243 316.813 368.665L318.224 367.458C317.497 366.672 316.479 366.178 315.271 366.178C313.046 366.178 311.155 367.967 311.155 370.105C311.155 372.243 313.032 374.046 315.242 374.046ZM323.314 372.403C322.282 372.403 321.584 371.69 321.395 370.672H327.052C327.052 367.879 325.627 366.178 323.271 366.178C321.075 366.178 319.373 367.821 319.373 370.09C319.373 372.403 321.147 374.046 323.387 374.046C324.492 374.046 325.787 373.581 326.456 372.883L325.263 371.661C324.783 372.097 324.013 372.403 323.314 372.403ZM323.3 367.821C324.245 367.821 324.842 368.476 325.016 369.406H321.409C321.642 368.447 322.354 367.821 323.3 367.821ZM232.606 392.046C233.871 392.046 234.889 391.537 235.631 390.723L234.22 389.53C233.828 389.966 233.217 390.257 232.635 390.257C231.515 390.257 230.584 389.268 230.584 388.09C230.584 386.941 231.515 385.967 232.62 385.967C233.202 385.967 233.799 386.243 234.177 386.665L235.587 385.458C234.86 384.672 233.842 384.178 232.635 384.178C230.41 384.178 228.519 385.967 228.519 388.105C228.519 390.243 230.395 392.046 232.606 392.046ZM240.809 392.046C243.063 392.046 244.91 390.272 244.91 388.105C244.91 385.937 243.063 384.178 240.809 384.178C238.554 384.178 236.707 385.937 236.707 388.105C236.707 390.272 238.554 392.046 240.809 392.046ZM240.809 390.257C239.674 390.257 238.743 389.283 238.743 388.105C238.743 386.926 239.674 385.967 240.809 385.967C241.943 385.967 242.86 386.926 242.86 388.105C242.86 389.283 241.943 390.257 240.809 390.257ZM255.686 384.178C254.537 384.178 253.649 384.876 253.431 385.923C253.024 384.861 252.035 384.178 250.857 384.178C249.926 384.178 249.184 384.628 248.821 385.341V384.352H246.697V391.872H248.821V387.334C248.821 386.534 249.417 385.967 250.275 385.967C251.061 385.967 251.599 386.577 251.599 387.45V391.886H253.649V387.334C253.649 386.534 254.246 385.967 255.089 385.967C255.875 385.967 256.427 386.577 256.427 387.45V391.886H258.464V387.086C258.464 385.385 257.256 384.178 255.686 384.178ZM263.066 383.945C263.066 383.45 263.386 383.101 263.779 383.101C264.07 383.101 264.361 383.203 264.506 383.349L265.015 382.054C264.579 381.661 263.895 381.4 263.284 381.4C261.961 381.4 261.03 382.345 261.03 383.698V384.352H259.997V386.068H261.03V391.872H263.066V386.068H264.695V384.352H263.066V383.945ZM269.861 392.046C272.116 392.046 273.963 390.272 273.963 388.105C273.963 385.937 272.116 384.178 269.861 384.178C267.607 384.178 265.76 385.937 265.76 388.105C265.76 390.272 267.607 392.046 269.861 392.046ZM269.861 390.257C268.727 390.257 267.796 389.283 267.796 388.105C267.796 386.926 268.727 385.967 269.861 385.967C270.996 385.967 271.912 386.926 271.912 388.105C271.912 389.283 270.996 390.257 269.861 390.257ZM277.873 385.763V384.352H275.75V391.872H277.873V388.279C277.873 386.868 278.877 385.967 280.447 385.967V384.178C279.298 384.178 278.368 384.788 277.873 385.763ZM286.115 390.01C285.97 390.155 285.679 390.257 285.388 390.257C284.995 390.257 284.69 389.908 284.69 389.414V386.068H286.319V384.352H284.69V382.287H282.639V384.352H281.606V386.068H282.639V389.748C282.639 391.101 283.57 392.046 284.908 392.046C285.504 392.046 286.188 391.784 286.624 391.392L286.115 390.01ZM292.544 391.872H294.668V381.705H292.544V391.872ZM300.444 390.403C299.411 390.403 298.713 389.69 298.524 388.672H304.182C304.182 385.879 302.756 384.178 300.4 384.178C298.204 384.178 296.502 385.821 296.502 388.09C296.502 390.403 298.277 392.046 300.517 392.046C301.622 392.046 302.916 391.581 303.585 390.883L302.393 389.661C301.913 390.097 301.142 390.403 300.444 390.403ZM300.429 385.821C301.375 385.821 301.971 386.476 302.146 387.406H298.539C298.771 386.447 299.484 385.821 300.429 385.821ZM308.309 391.872H310.287L313.501 384.352H311.276L309.298 389.428L307.276 384.352H305.066L308.309 391.872ZM318.411 390.403C317.378 390.403 316.68 389.69 316.491 388.672H322.149C322.149 385.879 320.723 384.178 318.367 384.178C316.171 384.178 314.469 385.821 314.469 388.09C314.469 390.403 316.244 392.046 318.483 392.046C319.589 392.046 320.883 391.581 321.552 390.883L320.36 389.661C319.88 390.097 319.109 390.403 318.411 390.403ZM318.396 385.821C319.342 385.821 319.938 386.476 320.112 387.406H316.505C316.738 386.447 317.451 385.821 318.396 385.821ZM323.876 391.872H326V381.705H323.876V391.872Z" fill="black"/>
<g filter="url(#filter0_d_2142_1036)">
<path d="M69.7595 120.734C99.8819 120.734 124.301 96.7148 124.301 67.0862C124.301 37.4577 99.8819 13.439 69.7595 13.439C39.6371 13.439 15.2181 37.4577 15.2181 67.0862C15.2181 96.7148 39.6371 120.734 69.7595 120.734Z" fill="#FCFCFC"/>
<path d="M43.6745 72.7713C43.7096 72.4301 43.8626 72.111 44.1079 71.8672C44.1505 71.8185 44.1958 71.7722 44.2437 71.7285L71.1071 45.3056C71.316 45.0515 71.6015 44.8692 71.9226 44.7852C72.2436 44.7012 72.5835 44.7197 72.8931 44.8381C73.1464 44.9248 73.3729 45.0739 73.5508 45.2713C73.7288 45.4687 73.8522 45.7077 73.9093 45.9654C73.9664 46.2232 73.9553 46.491 73.8771 46.7433C73.7988 46.9956 73.656 47.224 73.4623 47.4065C72.028 48.8344 70.5849 50.2522 69.1331 51.6596C68.9137 51.8754 68.9399 51.9729 69.1331 52.1733C76.016 58.9365 82.899 65.7015 89.7819 72.4682C90.3815 73.0299 90.8219 73.7355 91.06 74.5155C91.2981 75.2954 91.3256 76.123 91.1397 76.9166C90.6854 79.3565 90.2781 81.8067 89.8237 84.2517C89.7146 85.2408 89.5046 86.2165 89.1971 87.1642C89.1135 87.3697 89.2911 87.4416 89.3903 87.5392L97.8765 95.8914C97.9653 95.9736 98.0488 96.0609 98.1324 96.1482C98.2966 96.3181 98.4192 96.5225 98.4909 96.746C98.5627 96.9696 98.5817 97.2062 98.5464 97.438C98.5112 97.6698 98.4226 97.8907 98.2875 98.0837C98.1524 98.2768 97.9743 98.437 97.7668 98.5522C97.4748 98.717 97.1373 98.7868 96.8025 98.7518C96.4677 98.7167 96.1527 98.5786 95.9025 98.357L95.6883 98.1464C92.8439 95.3486 89.9995 92.5491 87.1551 89.748C87.0956 89.6718 87.0116 89.6176 86.9168 89.5943C86.822 89.571 86.7219 89.5799 86.6329 89.6195C85.7307 89.9018 84.8015 90.0928 83.8599 90.1897C81.4681 90.616 79.0606 90.9859 76.6688 91.4276C75.372 91.7569 73.9957 91.5724 72.8357 90.914C72.5062 90.7088 72.2029 90.4657 71.9322 90.1897L51.252 69.8382C50.9126 69.5044 50.9857 69.5044 50.6462 69.8382C49.2206 71.2406 47.7949 72.648 46.364 74.0452C46.1464 74.2768 45.8591 74.4337 45.5443 74.4929C45.2294 74.5521 44.9035 74.5104 44.6145 74.3739C44.3062 74.2383 44.0492 74.0103 43.8804 73.7225C43.7116 73.4347 43.6396 73.1018 43.6745 72.7713ZM61.7645 67.686C62.0753 67.6921 62.3774 67.7892 62.632 67.9647C62.8867 68.1402 63.0825 68.3863 63.1945 68.6716C63.3065 68.957 63.3296 69.2686 63.261 69.5669C63.1923 69.8653 63.0349 70.1367 62.8089 70.3468C61.7958 71.3741 60.7827 72.3501 59.7591 73.3466C59.5711 73.5212 59.5607 73.6291 59.7591 73.814C60.767 74.79 61.7697 75.7711 62.7619 76.7676C62.9342 76.9423 63.023 76.9423 63.2006 76.7676C64.198 75.766 65.2112 74.7797 66.2243 73.7883C66.3915 73.6011 66.6024 73.4566 66.8389 73.3671C67.0754 73.2776 67.3304 73.2459 67.5821 73.2747C67.8849 73.301 68.1725 73.4172 68.4066 73.6081C68.6408 73.7989 68.8103 74.0553 68.8929 74.3431C68.9925 74.625 69.0051 74.9296 68.9288 75.2185C68.8526 75.5074 68.6911 75.7676 68.4646 75.9663C67.4672 76.9371 66.4854 77.9234 65.4775 78.889C65.2738 79.0894 65.2529 79.1973 65.4775 79.4027C66.4802 80.3684 67.4724 81.3444 68.4542 82.3306C68.6422 82.5207 68.7466 82.5104 68.9242 82.3306C69.9408 81.3033 70.9644 80.2948 71.9949 79.3051C72.1611 79.1424 72.3623 79.0185 72.5838 78.9424C72.8052 78.8664 73.0411 78.8403 73.2742 78.8659C73.5072 78.8915 73.7315 78.9683 73.9304 79.0906C74.1292 79.2128 74.2977 79.3774 74.4232 79.5722C74.6291 79.8955 74.7102 80.2806 74.6518 80.6577C74.5933 81.0348 74.3992 81.3787 74.1047 81.6269C73.1229 82.5977 72.1254 83.5531 71.1332 84.5137C71.0079 84.6421 70.9034 84.7346 71.0862 84.9144C72.1672 85.9417 73.2273 87.0204 74.3083 88.0683C74.4563 88.2105 74.6374 88.3149 74.8359 88.3722C75.0344 88.4295 75.2442 88.438 75.4468 88.397L77.9169 87.9809C80.3453 87.5649 82.7789 87.1539 85.2281 86.7327C85.524 86.693 85.7981 86.558 86.0078 86.349C86.2175 86.1399 86.351 85.8685 86.3875 85.577C86.9463 82.4539 87.4946 79.3308 88.069 76.2077C88.14 75.9352 88.1364 75.649 88.0584 75.3783C87.9804 75.1076 87.8309 74.8621 87.6251 74.6667L66.8718 54.3153C66.7047 54.1509 66.6159 54.1201 66.4332 54.3153C62.1022 58.5855 57.7659 62.849 53.4245 67.1055C53.2469 67.2853 53.226 67.3881 53.4245 67.5781C54.6569 68.7698 55.8755 69.9684 57.0801 71.1738C57.2576 71.3536 57.3464 71.3382 57.5135 71.1738C58.5058 70.1773 59.5137 69.2013 60.5163 68.2151C60.6747 68.0481 60.8663 67.9149 61.0792 67.8239C61.2921 67.7329 61.5218 67.6859 61.754 67.686H61.7645Z" fill="#64F9BF"/>
<path d="M51.5967 61.1357C51.6168 61.4591 51.5348 61.7808 51.3619 62.0567C51.1889 62.3325 50.9335 62.549 50.6306 62.6766C50.336 62.7986 50.0105 62.8291 49.6977 62.7639C49.385 62.6987 49.1001 62.541 48.8811 62.3119C46.2595 59.7368 43.6484 57.1686 41.0477 54.6072C40.8127 54.3761 40.7083 54.3915 40.4889 54.6072C39.6482 55.4599 38.7969 56.292 37.9353 57.1241C37.7324 57.3374 37.471 57.4883 37.1828 57.5585C36.8945 57.6287 36.5917 57.6152 36.3111 57.5196C36.0256 57.4417 35.7702 57.2819 35.5776 57.0604C35.3851 56.839 35.2641 56.566 35.2301 56.2766C35.1785 56.0172 35.1957 55.7492 35.2798 55.4982C35.3639 55.2473 35.5123 55.0218 35.7106 54.8435L39.1207 51.4945L49.6384 41.1599L53.9885 36.8864C54.2233 36.632 54.5379 36.4621 54.8822 36.4038C55.2264 36.3454 55.5807 36.4018 55.8886 36.5642C56.1965 36.7265 56.4404 36.9854 56.5815 37.2997C56.7226 37.6141 56.7529 37.9657 56.6675 38.2989C56.5846 38.6225 56.4022 38.9131 56.1453 39.131C55.2993 39.958 54.4637 40.8004 53.6073 41.6171C53.4088 41.8071 53.4141 41.8996 53.6073 42.0948C56.2219 44.6527 58.833 47.221 61.4407 49.7995C61.7398 50.0896 61.9096 50.4848 61.9125 50.8981C61.9154 51.3113 61.7514 51.7088 61.4563 52.003C61.1613 52.2973 60.7596 52.4642 60.3394 52.4671C59.9193 52.47 59.5152 52.3086 59.216 52.0184L52.9493 45.8547C52.427 45.3102 51.8421 44.7709 51.299 44.2213C51.158 44.0826 51.0849 44.0672 50.9335 44.2213C48.3397 46.7861 45.7391 49.344 43.1314 51.8952C42.933 52.0852 43.0374 52.1622 43.1732 52.2958L50.9282 59.9183C51.1209 60.0631 51.2802 60.2465 51.3954 60.4564C51.5106 60.6662 51.5792 60.8978 51.5967 61.1357Z" fill="#64F9BF"/>
</g>
<g filter="url(#filter1_d_2142_1036)">
<path d="M276.314 120.734C306.437 120.734 330.856 96.7148 330.856 67.0862C330.856 37.4577 306.437 13.439 276.314 13.439C246.192 13.439 221.773 37.4577 221.773 67.0862C221.773 96.7148 246.192 120.734 276.314 120.734Z" fill="#FCFCFC"/>
<path d="M245.931 80.841C244.704 80.841 243.477 80.841 242.25 80.841C239.774 80.7985 237.409 79.8194 235.648 78.1071C233.887 76.3949 232.864 74.0811 232.792 71.6464C232.745 70.2698 232.792 68.8931 232.792 67.5371C232.823 61.7943 236.777 57.7774 242.631 57.6387C245.08 57.5719 247.54 57.5873 249.994 57.6387C251.112 57.6387 251.812 57.4641 251.686 56.1696C251.634 55.8572 251.703 55.5369 251.879 55.2718C252.055 55.0066 252.325 54.8157 252.637 54.7365C259.948 52.3942 267.212 49.795 274.915 48.8756C278.294 48.4698 281.516 49.3892 284.748 50.1803C289.683 51.372 294.509 52.9335 299.334 54.4797C300.269 54.7776 301.131 55.1166 301.005 56.3186C300.885 57.423 301.46 57.6438 302.468 57.6541C305.507 57.6849 308.552 57.4076 311.575 57.8031C313.827 58.0805 315.902 59.1435 317.424 60.7989C318.946 62.4542 319.813 64.5919 319.868 66.8231C319.92 68.5387 319.936 70.2646 319.868 71.9854C319.726 74.3317 318.699 76.5413 316.987 78.1813C315.275 79.8213 313.003 80.7735 310.614 80.8513C307.867 80.918 305.121 80.8872 302.374 80.8513C301.564 80.8513 300.974 80.9489 301.021 81.93C301.068 82.9111 300.347 83.2809 299.512 83.5223C292.681 85.4743 285.876 87.5546 278.805 88.5871C274.931 89.1573 271.259 88.1453 267.567 87.3492C262.778 86.3218 258.078 84.9401 253.378 83.5737C252.423 83.2963 251.592 82.9933 251.655 81.7862C251.697 81.0208 251.227 80.841 250.532 80.8564C248.981 80.8616 247.451 80.8461 245.931 80.841ZM253.9 69.0267C253.9 72.5813 253.942 76.141 253.874 79.7007C253.848 80.8513 254.146 81.4625 255.368 81.7553C259.494 82.7827 263.572 84.0155 267.713 84.9863C271.625 85.9058 275.547 86.8766 279.651 86.1266C285.694 85.0222 291.574 83.358 297.459 81.6937C298.582 81.3804 298.734 80.7794 298.728 79.8239C298.728 72.5915 298.697 65.3642 298.728 58.1318C298.728 57.0223 298.358 56.5189 297.282 56.1799C292.394 54.6389 287.506 53.0979 282.498 51.9576C279.829 51.3617 277.166 50.694 274.361 51.146C267.703 52.2144 261.342 54.3102 254.945 56.3135C253.994 56.6114 253.874 57.1867 253.9 57.9983C253.911 61.6864 253.9 65.3591 253.9 69.0318V69.0267ZM251.624 69.2681C251.624 66.5765 251.624 63.8798 251.624 61.183C251.624 60.279 251.378 59.8269 250.334 59.8475C247.649 59.8988 244.96 59.791 242.276 59.8834C240.446 59.9337 238.7 60.6476 237.373 61.888C236.047 63.1284 235.233 64.8074 235.09 66.6022C234.946 68.3749 234.946 70.1561 235.09 71.9289C235.231 73.7223 236.054 75.3975 237.394 76.6215C238.734 77.8454 240.494 78.5284 242.323 78.5346C244.934 78.5706 247.587 78.4935 250.214 78.5346C251.289 78.5655 251.65 78.2059 251.629 77.1632C251.592 74.5537 251.624 71.9135 251.624 69.2732V69.2681ZM300.984 69.2167C300.984 71.7388 301.037 74.2661 300.984 76.7882C300.948 78.0518 301.225 78.6476 302.708 78.5706C305.152 78.4422 307.612 78.5706 310.066 78.5295C312.015 78.5722 313.902 77.8516 315.311 76.5261C316.721 75.2006 317.537 73.3789 317.581 71.4615C317.649 70.0335 317.633 68.5952 317.581 67.1621C317.56 65.2121 316.754 63.3497 315.34 61.9833C313.925 60.6169 312.017 59.8581 310.035 59.8732C307.523 59.8218 305.006 59.9143 302.499 59.8423C301.345 59.8064 300.932 60.1916 300.974 61.3063C301.021 63.9465 300.99 66.5868 300.984 69.2219V69.2167Z" fill="#64F9BF"/>
<path d="M276.137 69.8559C271.221 69.8559 266.31 69.8559 261.405 69.8559C260.553 69.8559 259.446 70.0614 259.441 68.7772C259.436 67.493 260.564 67.5547 261.493 67.5547H291.125C291.36 67.5547 291.595 67.5547 291.83 67.5547C292.629 67.5855 293.219 67.9091 293.198 68.7721C293.177 69.635 292.524 69.861 291.736 69.8559C288.754 69.8559 285.772 69.8559 282.795 69.8559H276.137Z" fill="#64F9BF"/>
<path d="M291.757 62.7257C289.401 62.2532 286.853 61.8833 284.383 61.2156C277.531 59.3561 270.847 60.5632 264.157 62.0528C263.191 62.2686 262.22 62.4586 261.248 62.6384C260.47 62.7771 259.64 62.885 259.441 61.8525C259.243 60.82 259.995 60.63 260.783 60.4194C269.985 58.0103 279.208 56.9264 288.55 59.7105C289.772 60.0752 291.047 60.2858 292.3 60.5529C292.447 60.5705 292.588 60.6185 292.715 60.6939C292.842 60.7693 292.951 60.8704 293.035 60.9904C293.119 61.1104 293.176 61.2465 293.202 61.3899C293.228 61.5332 293.224 61.6804 293.188 61.8217C293.104 62.5408 292.566 62.7206 291.757 62.7257Z" fill="#64F9BF"/>
<path d="M276.267 79.2664C270.915 79.0302 265.765 77.6946 260.559 76.6981C259.755 76.5389 259.258 76.0715 259.446 75.2445C259.676 74.2479 260.491 74.3147 261.269 74.4688C264.705 75.1366 268.162 75.7222 271.573 76.4875C276.476 77.5919 281.208 76.4875 285.965 75.5938C287.856 75.2342 289.73 74.7976 291.616 74.4226C292.294 74.289 292.952 74.3712 293.156 75.1674C293.215 75.3331 293.235 75.51 293.213 75.6844C293.191 75.8587 293.128 76.0256 293.029 76.172C292.931 76.3183 292.799 76.4402 292.644 76.5279C292.489 76.6157 292.316 76.6669 292.138 76.6776C286.874 77.6844 281.667 79.0507 276.267 79.2664Z" fill="#64F9BF"/>
</g>
<g filter="url(#filter2_d_2142_1036)">
<path d="M71.4734 320.741C101.596 320.741 126.015 296.723 126.015 267.094C126.015 237.465 101.596 213.447 71.4734 213.447C41.351 213.447 16.9319 237.465 16.9319 267.094C16.9319 296.723 41.351 320.741 71.4734 320.741Z" fill="#FCFCFC"/>
<path d="M62.1205 296.044C59.5276 296.169 56.9297 295.937 54.402 295.355C53.4829 295.124 53.3993 295.422 53.4829 296.167C53.6187 297.405 53.7022 298.653 53.8223 299.896C53.885 300.559 53.8902 301.257 53.0494 301.355C52.2087 301.452 52.005 300.774 51.9266 300.05C51.7961 298.329 51.6342 296.609 51.4932 294.914C51.4619 294.544 51.4619 294.189 51.0911 293.943C47.3206 291.441 44.5528 287.938 41.5657 284.656C40.7667 283.778 39.999 282.884 39.1843 282.011C38.73 281.523 38.4689 280.983 39.0538 280.47C39.6387 279.956 40.1557 280.29 40.6205 280.773L46.8872 287.702C47.1117 287.949 47.3729 288.169 47.5765 288.426C51.9737 294.01 58.021 294.703 64.5645 294.03C65.3852 293.99 66.1992 293.864 66.9929 293.655C67.4472 293.54 67.8487 293.278 68.1329 292.91C68.4171 292.543 68.5674 292.093 68.5596 291.631C68.6026 290.75 68.5217 289.867 68.3194 289.007C68.1512 288.437 68.1576 287.832 68.3378 287.266C68.5181 286.701 68.8641 286.2 69.3325 285.827C69.8547 285.396 70.0584 284.933 69.651 284.286C69.5628 284.176 69.5009 284.048 69.47 283.912C69.4391 283.775 69.44 283.633 69.4727 283.497C69.5053 283.36 69.5688 283.233 69.6585 283.124C69.7481 283.016 69.8616 282.928 69.9905 282.869C70.5127 282.53 70.5754 282.17 70.3247 281.584C69.5675 279.792 70.0009 278.636 71.6668 277.691C74.842 275.883 74.8576 275.729 72.633 272.888C71.4005 271.301 69.8129 269.889 69.745 267.67C69.7223 266.161 69.8659 264.654 70.1733 263.175C70.7835 260.005 70.3116 256.726 68.8311 253.847C68.6849 253.549 68.5648 253.241 68.4343 252.938C68.3631 252.828 68.3173 252.703 68.3 252.574C68.2828 252.444 68.2944 252.313 68.3342 252.188C68.374 252.063 68.4409 251.949 68.5303 251.852C68.6198 251.755 68.7296 251.679 68.852 251.628C69.4422 251.356 69.8599 251.659 70.1263 252.183C71.0366 253.954 71.7123 255.832 72.1368 257.772C72.6591 260.217 72.1995 262.62 71.7974 265.004C71.4162 267.254 71.719 269.205 73.4058 270.895C74.1212 271.648 74.7661 272.463 75.3329 273.33C76.5496 275.092 76.299 276.741 74.6018 278.076C74.0114 278.527 73.3763 278.917 72.7061 279.242C71.8444 279.669 71.6616 280.269 72.1316 281.03C72.7165 282 72.7583 282.894 71.8809 283.726C71.7911 283.794 71.7262 283.889 71.6961 283.997C71.6659 284.104 71.6722 284.218 71.7138 284.322C72.2047 285.514 71.5206 286.315 70.7373 287.024C70.4778 287.234 70.2872 287.515 70.1896 287.831C70.0921 288.147 70.0918 288.485 70.1889 288.801C70.4393 289.809 70.517 290.85 70.4187 291.883C70.2255 293.799 69.322 294.867 67.442 295.448C65.6299 295.982 63.776 295.838 62.1205 296.044Z" fill="#64F9BF"/>
<path d="M93.3759 266.915C95.8042 266.915 98.2326 266.915 100.687 266.915C101.376 266.915 102.081 266.992 102.108 267.794C102.134 268.677 101.397 268.754 100.666 268.749C95.9557 268.749 91.2434 268.749 86.5295 268.749C85.1664 268.749 84.5346 269.371 84.6547 270.609C84.7435 271.523 85.1769 272.109 86.2214 272.093C88.3938 272.093 90.5611 272.093 92.7283 272.093H93.402C94.06 272.093 94.6606 272.258 94.6762 273.013C94.6919 273.768 94.1018 273.979 93.4437 273.979C91.5742 273.979 89.7046 273.979 87.835 273.979C86.4981 273.979 85.8819 274.538 85.9132 275.699C85.9393 276.768 86.5817 277.307 87.8559 277.312H94.5874C95.2611 277.312 95.9504 277.348 95.9609 278.216C95.9713 279.085 95.2976 279.141 94.6135 279.136C92.744 279.136 90.8744 279.136 89.0048 279.136C87.8402 279.136 87.2188 279.732 87.1979 280.775C87.177 281.817 87.8194 282.465 89.0361 282.47C91.0572 282.47 93.0782 282.47 95.094 282.47H95.8826C96.551 282.47 97.2404 282.542 97.256 283.4C97.2717 284.257 96.5928 284.355 95.9139 284.36H90.394C89.0884 284.36 88.4983 284.874 88.4826 285.963C88.4669 287.052 89.0414 287.612 90.3 287.73C94.3145 288.166 98.3506 288.382 102.39 288.377C105.669 288.336 108.886 288.013 111.79 286.364C112.354 286.045 112.897 286.04 113.236 286.646C113.576 287.252 113.236 287.674 112.672 287.982C110.387 289.26 107.826 289.986 105.199 290.098C99.8918 290.36 94.5714 290.15 89.3025 289.471C87.3128 289.245 86.0804 287.001 86.7645 284.848C86.8771 284.609 86.9017 284.339 86.8341 284.084C86.7664 283.829 86.6107 283.605 86.3937 283.451C85.87 282.969 85.5043 282.345 85.3434 281.658C85.1824 280.97 85.2336 280.252 85.4902 279.593C85.6013 279.391 85.6361 279.157 85.5883 278.932C85.5405 278.707 85.4132 278.507 85.2291 278.365C84.6457 277.892 84.2327 277.246 84.0512 276.523C83.8697 275.801 83.9293 275.04 84.2212 274.354C84.324 274.147 84.3473 273.911 84.2869 273.689C84.2264 273.467 84.0862 273.274 83.8922 273.146C83.303 272.625 82.8981 271.933 82.7366 271.17C82.575 270.406 82.6652 269.612 82.994 268.903C83.6676 267.403 84.8636 266.848 86.5034 266.884C88.8116 266.961 91.0937 266.915 93.3759 266.915Z" fill="#64F9BF"/>
<path d="M46.7669 235.939C44.5466 235.966 42.3375 236.254 40.1869 236.797C39.5027 236.967 38.7507 237.147 38.5105 236.284C38.2442 235.308 39.1006 235.159 39.7847 234.989C43.1373 234.202 46.5918 233.917 50.0308 234.147C56.8657 234.544 63.6131 235.861 70.0844 238.061C70.7925 238.295 71.4694 238.612 72.1002 239.006C74.1891 240.295 74.8941 242.088 74.1891 244.394C73.7761 245.735 73.1787 247.014 72.4135 248.195C71.1758 250.158 69.5517 250.815 67.2487 250.363C61.7444 249.295 58.0627 251.858 57.0078 257.298C55.8328 263.349 52.1929 267.525 46.511 270.016C46.0638 270.205 45.5985 270.35 45.1219 270.447C44.9979 270.494 44.8651 270.515 44.7324 270.508C44.5997 270.501 44.47 270.467 44.3517 270.407C44.2334 270.347 44.1293 270.264 44.046 270.162C43.9628 270.06 43.9023 269.942 43.8686 269.816C43.6962 269.204 44.0513 268.865 44.6258 268.67C50.6993 266.616 54.1303 262.398 55.321 256.224C56.4281 250.461 61.3371 247.322 67.2017 248.442C69.4264 248.863 70.2045 248.488 71.228 246.49C71.7369 245.592 72.1382 244.639 72.4239 243.65C72.6133 243.124 72.6129 242.549 72.4227 242.024C72.2325 241.498 71.8641 241.053 71.3795 240.763C70.7388 240.32 70.0348 239.974 69.2906 239.735C62.0388 237.288 54.4334 236.006 46.7669 235.939Z" fill="#64F9BF"/>
<path d="M83.5577 261.454H86.1428C86.5188 261.454 86.9731 261.408 87.1872 261.757C87.8216 262.84 88.1799 264.058 88.2317 265.306C88.2317 265.918 87.3909 266.205 86.853 265.856C86.6455 265.698 86.4953 265.478 86.4247 265.229C85.6623 263.308 85.6571 263.308 83.5055 263.308C81.5994 263.308 79.6933 263.278 77.7871 263.308C77.6118 263.339 77.432 263.336 77.2581 263.298C77.0842 263.26 76.9196 263.189 76.7739 263.088C76.6282 262.987 76.5043 262.859 76.4093 262.711C76.3143 262.563 76.2501 262.397 76.2204 262.225C75.4267 259.43 74.5911 256.647 73.7921 253.852C73.4944 252.825 73.7399 252.414 74.8365 252.25C79.8551 251.49 84.879 250.709 89.908 250.021C91.142 249.871 92.3929 250.096 93.4934 250.665C94.5938 251.234 95.4911 252.12 96.0651 253.205C96.6431 254.277 97.1035 255.407 97.4385 256.575C98.2114 259.184 98.9582 261.798 99.7415 264.408C99.9347 265.065 100.05 265.712 99.2193 265.948C98.3158 266.221 98.0965 265.522 97.8876 264.854C96.9058 261.731 96.2165 258.521 95.0154 255.47C93.7725 252.317 92.1901 251.495 88.8374 252.029C85.4847 252.563 82.2678 253.056 78.9726 253.483C78.1214 253.601 77.8237 253.801 78.1318 254.72C78.7846 256.672 79.3381 258.66 79.8813 260.643C80.0484 261.238 80.3043 261.5 80.957 261.459C81.8344 261.423 82.7013 261.454 83.5577 261.454ZM79.0405 260.91C78.3877 258.716 77.714 256.436 77.0247 254.161C76.9045 253.78 76.539 253.899 76.257 253.935C75.8183 253.986 75.8653 254.304 75.9436 254.592C76.1525 255.332 76.3771 256.066 76.5964 256.806C76.9985 258.172 77.4164 259.538 77.7976 260.915C77.9386 261.428 78.278 261.505 78.7271 261.428C79.0091 261.423 79.1084 261.259 79.0405 260.91Z" fill="#64F9BF"/>
<path d="M33.9515 272.815C33.9515 273.37 33.9515 273.919 33.9515 274.469C33.9706 275.17 34.2163 275.846 34.653 276.401C35.0897 276.955 35.6946 277.358 36.3799 277.551C37.0658 277.752 37.7991 277.735 38.4746 277.502C39.1501 277.268 39.733 276.831 40.1399 276.251C40.2496 276.102 40.3383 275.943 40.4376 275.784C40.4919 275.665 40.5723 275.559 40.673 275.475C40.7736 275.39 40.8921 275.328 41.0198 275.294C41.1476 275.26 41.2815 275.254 41.412 275.276C41.5425 275.299 41.6662 275.349 41.7745 275.424C42.2967 275.743 42.2967 276.236 42.0252 276.775C40.7927 279.343 37.2677 280.335 34.714 278.83C34.004 278.45 33.3986 277.906 32.9501 277.244C32.5015 276.583 32.2233 275.825 32.1394 275.034C31.9514 273.499 31.9514 271.947 32.1394 270.411C32.2729 269.365 32.7334 268.384 33.4574 267.606C34.1814 266.828 35.1332 266.29 36.1814 266.066C37.2461 265.826 38.3603 265.915 39.3711 266.323C40.3819 266.73 41.2397 267.435 41.8267 268.341C42.2079 268.922 42.563 269.569 41.7797 270.067C40.9963 270.565 40.6464 269.975 40.2704 269.415C39.8817 268.781 39.2905 268.292 38.5891 268.024C37.8878 267.755 37.1158 267.723 36.3939 267.932C35.672 268.141 35.0407 268.579 34.5988 269.178C34.157 269.777 33.9293 270.504 33.9515 271.243C33.9515 271.757 33.9515 272.271 33.9515 272.784V272.815Z" fill="#64F9BF"/>
<path d="M101.46 261.372C102.768 261.835 104.023 262.433 105.204 263.154C106.865 264.35 108.345 265.772 109.601 267.376C111.032 269.061 112.212 270.972 114.045 272.313C114.216 272.463 114.325 272.67 114.349 272.894C114.374 273.118 114.313 273.343 114.178 273.526C114.044 273.708 113.845 273.835 113.62 273.881C113.396 273.928 113.162 273.89 112.964 273.777C112.317 273.405 111.744 272.922 111.272 272.349C110.379 271.321 109.492 270.263 108.661 269.185C106.63 266.585 104.374 264.279 101.094 263.205C100.572 263.031 100.144 262.692 100.279 262.065C100.384 261.531 100.807 261.3 101.46 261.372Z" fill="#64F9BF"/>
</g>
<g filter="url(#filter3_d_2142_1036)">
<path d="M278.432 320.741C308.554 320.741 332.973 296.723 332.973 267.094C332.973 237.465 308.554 213.447 278.432 213.447C248.309 213.447 223.89 237.465 223.89 267.094C223.89 296.723 248.309 320.741 278.432 320.741Z" fill="#FCFCFC"/>
<path d="M276.489 262.567C286.419 262.567 294.469 254.649 294.469 244.882C294.469 235.114 286.419 227.196 276.489 227.196C266.559 227.196 258.509 235.114 258.509 244.882C258.509 254.649 266.559 262.567 276.489 262.567Z" fill="#FCEF06"/>
<path d="M258.508 299.964C268.439 299.964 276.489 292.046 276.489 282.278C276.489 272.511 268.439 264.593 258.508 264.593C248.578 264.593 240.528 272.511 240.528 282.278C240.528 292.046 248.578 299.964 258.508 299.964Z" fill="#FF0033"/>
<path d="M300.647 299.964C310.578 299.964 318.628 292.046 318.628 282.278C318.628 272.511 310.578 264.593 300.647 264.593C290.717 264.593 282.667 272.511 282.667 282.278C282.667 292.046 290.717 299.964 300.647 299.964Z" fill="#64F9BF"/>
</g>
<defs>
<filter id="filter0_d_2142_1036" x="0.673702" y="0.349026" width="138.172" height="136.383" filterUnits="userSpaceOnUse" color-interpolation-filters="sRGB">
<feFlood flood-opacity="0" result="BackgroundImageFix"/>
<feColorMatrix in="SourceAlpha" type="matrix" values="0 0 0 0 0 0 0 0 0 0 0 0 0 0 0 0 0 0 127 0" result="hardAlpha"/>
<feOffset dy="1.45444"/>
<feGaussianBlur stdDeviation="7.27219"/>
<feComposite in2="hardAlpha" operator="out"/>
<feColorMatrix type="matrix" values="0 0 0 0 0 0 0 0 0 0 0 0 0 0 0 0 0 0 0.1 0"/>
<feBlend mode="normal" in2="BackgroundImageFix" result="effect1_dropShadow_2142_1036"/>
<feBlend mode="normal" in="SourceGraphic" in2="effect1_dropShadow_2142_1036" result="shape"/>
</filter>
<filter id="filter1_d_2142_1036" x="207.229" y="0.349026" width="138.172" height="136.383" filterUnits="userSpaceOnUse" color-interpolation-filters="sRGB">
<feFlood flood-opacity="0" result="BackgroundImageFix"/>
<feColorMatrix in="SourceAlpha" type="matrix" values="0 0 0 0 0 0 0 0 0 0 0 0 0 0 0 0 0 0 127 0" result="hardAlpha"/>
<feOffset dy="1.45444"/>
<feGaussianBlur stdDeviation="7.27219"/>
<feComposite in2="hardAlpha" operator="out"/>
<feColorMatrix type="matrix" values="0 0 0 0 0 0 0 0 0 0 0 0 0 0 0 0 0 0 0.1 0"/>
<feBlend mode="normal" in2="BackgroundImageFix" result="effect1_dropShadow_2142_1036"/>
<feBlend mode="normal" in="SourceGraphic" in2="effect1_dropShadow_2142_1036" result="shape"/>
</filter>
<filter id="filter2_d_2142_1036" x="2.38757" y="200.357" width="138.172" height="136.383" filterUnits="userSpaceOnUse" color-interpolation-filters="sRGB">
<feFlood flood-opacity="0" result="BackgroundImageFix"/>
<feColorMatrix in="SourceAlpha" type="matrix" values="0 0 0 0 0 0 0 0 0 0 0 0 0 0 0 0 0 0 127 0" result="hardAlpha"/>
<feOffset dy="1.45444"/>
<feGaussianBlur stdDeviation="7.27219"/>
<feComposite in2="hardAlpha" operator="out"/>
<feColorMatrix type="matrix" values="0 0 0 0 0 0 0 0 0 0 0 0 0 0 0 0 0 0 0.1 0"/>
<feBlend mode="normal" in2="BackgroundImageFix" result="effect1_dropShadow_2142_1036"/>
<feBlend mode="normal" in="SourceGraphic" in2="effect1_dropShadow_2142_1036" result="shape"/>
</filter>
<filter id="filter3_d_2142_1036" x="209.346" y="200.357" width="138.172" height="136.383" filterUnits="userSpaceOnUse" color-interpolation-filters="sRGB">
<feFlood flood-opacity="0" result="BackgroundImageFix"/>
<feColorMatrix in="SourceAlpha" type="matrix" values="0 0 0 0 0 0 0 0 0 0 0 0 0 0 0 0 0 0 127 0" result="hardAlpha"/>
<feOffset dy="1.45444"/>
<feGaussianBlur stdDeviation="7.27219"/>
<feComposite in2="hardAlpha" operator="out"/>
<feColorMatrix type="matrix" values="0 0 0 0 0 0 0 0 0 0 0 0 0 0 0 0 0 0 0.1 0"/>
<feBlend mode="normal" in2="BackgroundImageFix" result="effect1_dropShadow_2142_1036"/>
<feBlend mode="normal" in="SourceGraphic" in2="effect1_dropShadow_2142_1036" result="shape"/>
</filter>
</defs>
</svg>
