<svg width="120" height="91" viewBox="0 0 120 91" fill="none" xmlns="http://www.w3.org/2000/svg">
<path fill-rule="evenodd" clip-rule="evenodd" d="M30.1492 64.2568H21.5003V61.5342C20.8178 62.4454 19.9675 63.217 18.9953 63.8074C17.4524 64.6524 15.7168 65.0805 13.959 65.0498C10.9178 65.0498 8.21063 64.0013 5.83748 61.9043C3.00726 59.402 1.59215 56.089 1.59216 51.9655C1.59216 47.7715 3.04243 44.4233 5.94296 41.9211C8.12805 39.9741 10.9564 38.9096 13.8799 38.9341C15.5778 38.9245 17.2554 39.3043 18.7844 40.0443C19.8053 40.5747 20.7247 41.2816 21.5003 42.1325V24.5547H30.1492V64.2568ZM21.764 51.992C21.7769 51.256 21.6384 50.5253 21.3571 49.8454C21.0759 49.1655 20.6579 48.551 20.1292 48.0402C19.6146 47.5142 18.9985 47.0987 18.3185 46.8192C17.6385 46.5397 16.9088 46.4021 16.1739 46.4146C15.3645 46.3958 14.5615 46.5622 13.8259 46.9012C13.0903 47.2401 12.4414 47.7427 11.9286 48.3707C11.0611 49.3768 10.5838 50.6622 10.5838 51.992C10.5838 53.3218 11.0611 54.6072 11.9286 55.6133C12.439 56.2441 13.0874 56.7486 13.8236 57.0878C14.5598 57.427 15.364 57.5918 16.1739 57.5693C16.9099 57.5848 17.6414 57.4498 18.3237 57.1726C19.006 56.8954 19.6248 56.4817 20.1424 55.9569C20.6698 55.4431 21.0861 54.8259 21.3651 54.1437C21.6441 53.4615 21.7799 52.7291 21.764 51.992V51.992ZM62.587 64.2568H53.9382V61.5342C53.2557 62.4454 52.4054 63.217 51.4332 63.8074C49.8903 64.6524 48.1547 65.0805 46.3968 65.0498C43.3557 65.0498 40.6485 64.0013 38.2754 61.9043C35.4451 59.402 34.03 56.089 34.03 51.9655C34.03 47.7715 35.4803 44.4233 38.3808 41.9211C40.5659 39.9741 43.3943 38.9096 46.3177 38.9341C48.0156 38.9245 49.6932 39.3043 51.2222 40.0443C52.2431 40.5747 53.1626 41.2816 53.9382 42.1325V39.7271H62.587V64.2568ZM54.2019 51.992C54.2148 51.256 54.0763 50.5253 53.795 49.8454C53.5137 49.1655 53.0957 48.551 52.567 48.0402C52.0525 47.5142 51.4364 47.0987 50.7564 46.8192C50.0763 46.5397 49.3466 46.4021 48.6118 46.4146C47.8024 46.3958 46.9994 46.5622 46.2638 46.9012C45.5281 47.2401 44.8793 47.7427 44.3665 48.3707C43.499 49.3768 43.0217 50.6622 43.0217 51.992C43.0217 53.3218 43.499 54.6072 44.3665 55.6133C44.8769 56.2441 45.5253 56.7486 46.2615 57.0878C46.9976 57.427 47.8019 57.5918 48.6118 57.5693C49.3478 57.5848 50.0793 57.4498 50.7616 57.1726C51.4439 56.8954 52.0627 56.4817 52.5802 55.9569C53.1077 55.4431 53.5239 54.8259 53.8029 54.1437C54.0819 53.4615 54.2178 52.7291 54.2019 51.992H54.2019ZM96.0005 52.0184C96.0005 56.2124 94.5503 59.5606 91.6497 62.0629C89.4647 64.0099 86.6363 65.0743 83.7129 65.0498C82.015 65.0594 80.3374 64.6797 78.8083 63.9396C77.7874 63.4092 76.868 62.7023 76.0924 61.8514V76.5216H67.4435V39.7271H76.0924V42.4497C76.7586 41.5238 77.6122 40.7492 78.5974 40.1765C80.1403 39.3315 81.8759 38.9034 83.6338 38.9341C86.6749 38.9341 89.3821 39.9826 91.7552 42.0796C94.5855 44.582 96.0006 47.8949 96.0005 52.0184ZM87.0089 51.992C87.0123 51.2564 86.8698 50.5274 86.5897 49.8475C86.3097 49.1675 85.8976 48.5502 85.3775 48.0313C84.8574 47.5123 84.2396 47.1022 83.56 46.8247C82.8804 46.5471 82.1526 46.4078 81.4188 46.4146C80.6828 46.3991 79.9513 46.5341 79.269 46.8113C78.5867 47.0885 77.9679 47.5022 77.4504 48.027C76.4092 49.0809 75.8262 50.5048 75.8287 51.9881C75.8312 53.4713 76.4189 54.8933 77.4635 55.9437C77.9781 56.4697 78.5942 56.8852 79.2742 57.1647C79.9542 57.4442 80.6839 57.5819 81.4188 57.5693C82.2287 57.5918 83.0329 57.427 83.7691 57.0878C84.5053 56.7486 85.1537 56.244 85.6641 55.6132C86.5398 54.6121 87.0184 53.3235 87.0089 51.992V51.992ZM118.234 47.7363C117.085 47.1697 115.823 46.8715 114.542 46.864C111.694 46.864 109.849 48.027 109.005 50.3531C108.688 51.199 108.53 52.3356 108.53 53.763V64.2568H99.8814V39.7271H108.53V43.7449C109.444 42.3175 110.429 41.2867 111.484 40.6523C112.907 39.8064 114.595 39.3835 116.546 39.3835C117.003 39.3835 117.566 39.4099 118.234 39.4628V47.7363Z" fill="#0D2192"/>
<path d="M67.3751 64.4355H76.0833L76.8333 84.9312L71.7293 88.5167L66.6251 84.9312L67.3751 64.4355Z" fill="#0D2192"/>
<path d="M80.2441 2.60352H48.4931C48.1379 2.60352 47.8499 2.89221 47.8499 3.24832V25.2666C47.8499 25.6227 48.1379 25.9114 48.4931 25.9114H80.2441C80.5994 25.9114 80.8874 25.6227 80.8874 25.2666V3.24832C80.8874 2.89221 80.5994 2.60352 80.2441 2.60352Z" fill="#0D2192"/>
<path opacity="0.08" d="M60.0707 2.60352H47.8499V25.9114H60.0707V2.60352Z" fill="white"/>
<path d="M89.6898 24.4082H38.6142C37.9534 24.4082 37.4177 24.9452 37.4177 25.6076V28.8029C37.4177 29.4654 37.9534 30.0023 38.6142 30.0023H89.6898C90.3506 30.0023 90.8862 29.4654 90.8862 28.8029V25.6076C90.8862 24.9452 90.3506 24.4082 89.6898 24.4082Z" fill="#0D2192"/>
<path opacity="0.08" d="M53.961 24.4082H37.4177V31.2933H53.961V24.4082Z" fill="white"/>
</svg>
