<svg width="67" height="74" viewBox="0 0 67 74" fill="none" xmlns="http://www.w3.org/2000/svg">
<g clip-path="url(#clip0_1610_19902)">
<path d="M56.3235 7.47656H49.7186V4.16321C49.7195 3.7275 49.6349 3.29588 49.4697 2.89307C49.3045 2.49026 49.062 2.12416 48.7559 1.81574C48.4498 1.50731 48.0862 1.26262 47.6859 1.09566C47.2856 0.928711 46.8565 0.842772 46.4231 0.842773C45.5473 0.842773 44.7073 1.19261 44.0879 1.81531C43.4686 2.43801 43.1207 3.28258 43.1207 4.16321V7.47656H23.32V4.16321C23.32 3.28258 22.972 2.43801 22.3527 1.81531C21.7334 1.19261 20.8934 0.842773 20.0175 0.842773C19.5842 0.842772 19.155 0.928711 18.7548 1.09566C18.3545 1.26262 17.9909 1.50731 17.6848 1.81574C17.3787 2.12416 17.1361 2.49026 16.9709 2.89307C16.8057 3.29588 16.7212 3.7275 16.7221 4.16321V7.47656H10.1172C7.49256 7.48031 4.97653 8.53025 3.12066 10.3962C1.26479 12.2622 0.220522 14.7919 0.216797 17.4308V63.8886C0.220522 66.5274 1.26479 69.0571 3.12066 70.9231C4.97653 72.7891 7.49256 73.839 10.1172 73.8428H56.3235C58.9481 73.839 61.4641 72.7891 63.32 70.9231C65.1758 69.0571 66.2201 66.5274 66.2238 63.8886V17.4308C66.2201 14.7919 65.1758 12.2622 63.32 10.3962C61.4641 8.53025 58.9481 7.48031 56.3235 7.47656ZM59.6189 63.8886C59.6189 64.768 59.2719 65.6115 58.6541 66.234C58.0363 66.8565 57.1981 67.2071 56.3235 67.209H10.1172C9.24251 67.2071 8.40432 66.8565 7.78651 66.234C7.1687 65.6115 6.82173 64.768 6.82173 63.8886V17.4308C6.82359 16.5526 7.17138 15.7109 7.78899 15.09C8.4066 14.469 9.24372 14.1193 10.1172 14.1174H56.3235C57.1969 14.1193 58.034 14.469 58.6517 15.09C59.2693 15.7109 59.6171 16.5526 59.6189 17.4308V63.8886Z" fill="#4924CC"/>
<path d="M33.2203 47.3005C36.7202 47.2949 40.0751 45.8945 42.5499 43.4063C45.0247 40.918 46.4175 37.5448 46.4231 34.0259C46.4212 30.5051 45.0298 27.129 42.5544 24.6388C40.079 22.1486 36.722 20.7479 33.2203 20.7441C29.7198 20.7479 26.3638 22.1477 23.8886 24.6363C21.4134 27.125 20.0212 30.4993 20.0175 34.0188C20.0212 37.539 21.4132 40.914 23.8882 43.4038C26.3632 45.8936 29.7192 47.2949 33.2203 47.3005ZM33.2203 27.385C34.9708 27.3869 36.649 28.0874 37.8861 29.3326C39.1233 30.5778 39.8182 32.2658 39.8182 34.0259C39.8163 35.7847 39.1206 37.4709 37.8836 38.7146C36.6467 39.9583 34.9696 40.6578 33.2203 40.6597C31.471 40.6578 29.7939 39.9583 28.5569 38.7146C27.32 37.4709 26.6242 35.7847 26.6224 34.0259C26.6224 32.2658 27.3173 30.5778 28.5544 29.3326C29.7916 28.0874 31.4698 27.3869 33.2203 27.385Z" fill="#64F9BF"/>
<path d="M51.641 56.2144C46.4725 52.4975 40.2619 50.6143 33.2204 50.6143C26.7157 50.6477 20.3588 52.5676 14.9125 56.1436C14.1771 56.6208 13.6601 57.3721 13.4752 58.2323C13.2904 59.0926 13.4528 59.9914 13.9267 60.7313C14.2248 61.1989 14.6352 61.5835 15.1201 61.8495C15.605 62.1155 16.1487 62.2545 16.7011 62.2535C17.3332 62.2516 17.9515 62.0673 18.4826 61.7225C22.8653 58.8384 27.9826 57.2873 33.2204 57.2551C38.8536 57.2551 43.7827 58.7207 47.8034 61.6092C48.1559 61.8633 48.5548 62.045 48.9773 62.1437C49.3998 62.2425 49.8375 62.2564 50.2653 62.1847C50.6931 62.113 51.1027 61.9571 51.4705 61.7259C51.8383 61.4947 52.157 61.1928 52.4085 60.8375C52.9149 60.1216 53.1184 59.2331 52.9746 58.3666C52.8307 57.5 52.3512 56.7262 51.641 56.2144Z" fill="#64F9BF"/>
</g>
<defs>
<clipPath id="clip0_1610_19902">
<rect width="66" height="73" fill="white" transform="translate(0.216797 0.842773)"/>
</clipPath>
</defs>
</svg>
