<svg width="157" height="82" viewBox="0 0 157 82" fill="none" xmlns="http://www.w3.org/2000/svg">
<path d="M4.08076 23.2554C3.77512 23.0575 3.52396 22.7865 3.35009 22.4673C3.17621 22.148 3.08514 21.7906 3.08514 21.4273C3.08514 21.0641 3.17621 20.7066 3.35009 20.3874C3.52396 20.0681 3.77512 19.7972 4.08076 19.5992L28.5973 3.71859C28.9523 3.48862 29.3667 3.36621 29.7902 3.36621C30.2136 3.36621 30.628 3.48862 30.983 3.71859L55.4996 19.5992C55.8052 19.7972 56.0564 20.0681 56.2302 20.3874C56.4041 20.7066 56.4952 21.0641 56.4952 21.4273C56.4952 21.7906 56.4041 22.148 56.2302 22.4673C56.0564 22.7865 55.8052 23.0574 55.4996 23.2554L30.983 39.1361C30.628 39.366 30.2136 39.4884 29.7902 39.4884C29.3667 39.4884 28.9523 39.366 28.5973 39.1361L4.08076 23.2554Z" fill="#326CE5"/>
<path d="M33.6601 26.058H35.3607C35.5872 26.058 35.8097 25.9986 36.0058 25.8858C36.202 25.7729 36.3649 25.6106 36.4781 25.4152C36.5914 25.2198 36.651 24.9981 36.651 24.7724C36.651 24.5468 36.5914 24.3251 36.4781 24.1297L30.9065 14.5144C30.7932 14.3189 30.6303 14.1566 30.4342 14.0438C30.238 13.931 30.0155 13.8716 29.789 13.8716C29.5625 13.8716 29.34 13.931 29.1439 14.0438C28.9477 14.1566 28.7848 14.3189 28.6716 14.5144L23.0999 24.1296C22.9866 24.3251 22.927 24.5468 22.927 24.7724C22.927 24.9981 22.9866 25.2198 23.0999 25.4152C23.2131 25.6106 23.376 25.7729 23.5721 25.8857C23.7683 25.9986 23.9908 26.058 24.2173 26.058H25.918C26.2602 26.058 26.5884 26.1934 26.8304 26.4345C27.0723 26.6756 27.2083 27.0026 27.2083 27.3435V38.3195L28.3496 39.0588C28.778 39.3363 29.278 39.484 29.789 39.484C30.3 39.484 30.8 39.3363 31.2284 39.0588L32.3698 38.3195V27.3435C32.3698 27.1747 32.4031 27.0075 32.468 26.8516C32.5328 26.6956 32.6279 26.5539 32.7477 26.4345C32.8675 26.3151 33.0097 26.2204 33.1663 26.1558C33.3228 26.0912 33.4906 26.058 33.6601 26.058V26.058Z" fill="#C1D2F7"/>
<path d="M38.2838 47.2783L32.3709 43.4482V45.2633C34.2941 46.0666 36.2696 46.7398 38.2838 47.2783V47.2783ZM32.3709 48.5267V51.0749C34.3248 51.6691 36.3015 52.1571 38.2587 52.6378C44.649 54.2072 50.6851 55.6898 55.5392 60.5262C55.7852 60.7713 56.0168 61.0216 56.246 61.2727C56.4992 60.7912 56.5629 60.233 56.4247 59.7071C56.2866 59.1813 55.9565 58.7257 55.4991 58.4296L45.8956 52.2089C43.5648 51.442 41.1892 50.8562 38.8422 50.2798C36.6292 49.7363 34.4639 49.1938 32.3709 48.5267V48.5267ZM27.2094 46.4368C26.3715 46.0138 25.5594 45.5419 24.7773 45.0235L22.5812 46.4461C24.029 47.4993 25.5796 48.4047 27.2094 49.1486L27.2094 46.4368ZM34.5581 54.5483C33.8237 54.3679 33.0947 54.1867 32.3709 54.0048V56.509C32.9063 56.6429 33.4408 56.7753 33.9746 56.9062C40.365 58.4756 46.4011 59.9581 51.2552 64.7945C51.2635 64.8028 51.2709 64.8115 51.2791 64.8198L53.3554 63.4749C53.2287 63.3427 53.1099 63.2078 52.9788 63.0772C47.6444 57.7623 40.9917 56.1283 34.5581 54.5483V54.5483ZM27.2094 52.5134C24.4321 51.5657 21.8005 50.3463 19.3992 48.5073L17.2489 49.9001C20.3065 52.4128 23.7104 53.9372 27.2094 55.0675V52.5134ZM27.2094 58.0472C22.4292 56.7992 17.9342 55.2755 14.0934 51.9441L11.9799 53.3131C16.4904 57.4537 21.8566 59.1846 27.2094 60.5555V58.0472ZM32.3709 61.8444C37.3712 63.1304 42.0734 64.6687 46.0562 68.2029L48.1582 66.8414C43.5045 62.4831 37.9195 60.7429 32.3709 59.3378V61.8444ZM8.85722 55.3358L6.77089 56.6872C6.84421 56.7623 6.91094 56.8397 6.98574 56.9142C12.3201 62.2291 18.9728 63.8631 25.4063 65.4432C30.9777 66.8114 36.2791 68.1152 40.7633 71.6314L42.9013 70.2465C37.8495 66.0085 31.8312 64.5196 25.9898 63.0852C19.6634 61.5315 13.6861 60.0578 8.85722 55.3358V55.3358ZM4.42524 59.4653C4.18241 59.2234 3.9541 58.9764 3.72771 58.7287C3.49843 58.9576 3.3233 59.2347 3.21507 59.5396C3.10685 59.8445 3.06826 60.1696 3.10211 60.4913C3.13597 60.813 3.24142 61.1231 3.41078 61.399C3.58014 61.6749 3.80914 61.9097 4.08111 62.0863L11.3002 66.7625C14.4952 68.0805 17.8368 68.9047 21.1224 69.7115C26.2523 70.9714 31.1523 72.1794 35.3974 75.1072L37.5812 73.6926C32.7533 70.0767 27.1526 68.6913 21.7059 67.3536C15.3154 65.7843 9.27935 64.3017 4.42524 59.4653V59.4653ZM27.9166 77.5258C28.397 77.7583 28.8724 78.0031 29.34 78.2668C29.906 78.3876 30.497 78.2796 30.9831 77.9665L32.195 77.1815C28.3026 74.5877 23.9749 73.2741 19.6625 72.1791L27.9166 77.5258Z" fill="#326CE5"/>
<path d="M77.3168 20.8062C74.8654 20.8062 72.8905 21.601 71.3923 23.1907C69.8938 24.7808 69.1448 27.0294 69.1452 29.9366V32.0881H64.4758V35.9844H69.1452V60.1768H73.5228V35.9844H79.2429V32.0881H73.5228V29.9366C73.5228 28.1538 73.9022 26.7871 74.661 25.8367C75.4198 24.8869 76.519 24.4119 77.9587 24.4116C78.4432 24.4029 78.926 24.4717 79.3887 24.6152C79.7668 24.7375 80.1293 24.9035 80.4686 25.1098L81.5775 21.7949C80.987 21.4281 80.3343 21.1718 79.6514 21.0386C78.8833 20.8812 78.1009 20.8033 77.3168 20.8062V20.8062ZM86.28 21.3876H90.6577V60.1766H86.28V21.3876ZM117.577 52.7332C116.639 53.9623 115.444 54.9742 114.075 55.699C112.601 56.5406 110.93 56.9817 109.231 56.9781C108.366 56.9865 107.503 56.8889 106.662 56.6876C105.915 56.5102 105.223 56.1505 104.649 55.6409C104.06 55.1002 103.619 54.4201 103.365 53.6637C103.046 52.6681 102.898 51.6259 102.927 50.5812V32.0881H98.5493V51.9189C98.5493 54.9821 99.3081 57.2404 100.826 58.6937C102.343 60.1475 104.581 60.8744 107.538 60.8745C109.551 60.8959 111.537 60.4163 113.316 59.4791C114.923 58.6599 116.367 57.5564 117.577 56.2223V60.1768H121.955V32.0881H117.577V52.7332ZM143.2 45.7543L153.415 32.0881H148.337L140.515 42.7887L132.694 32.0881H127.616L137.831 45.7543L127.033 60.1769H132.052L140.515 48.6622L148.979 60.1769H154.057L143.2 45.7543V45.7543Z" fill="#1A1A1A"/>
</svg>
