<svg width="786" height="362" viewBox="0 0 786 362" fill="none" xmlns="http://www.w3.org/2000/svg">
<path fill-rule="evenodd" clip-rule="evenodd" d="M684.202 401.441L-16.4645 -214.435L-15.5637 -215.227L685.103 400.649L684.202 401.441Z" fill="#5C2CFF"/>
<path fill-rule="evenodd" clip-rule="evenodd" d="M684.202 401.441L-16.4645 -214.435L-15.5637 -215.227L685.103 400.649L684.202 401.441Z" fill="black" fill-opacity="0.2"/>
<path fill-rule="evenodd" clip-rule="evenodd" d="M317.308 401.441L-383.359 -214.435L-382.458 -215.227L318.209 400.649L317.308 401.441Z" fill="#5C2CFF"/>
<path fill-rule="evenodd" clip-rule="evenodd" d="M317.308 401.441L-383.359 -214.435L-382.458 -215.227L318.209 400.649L317.308 401.441Z" fill="black" fill-opacity="0.2"/>
<path fill-rule="evenodd" clip-rule="evenodd" d="M1051.1 401.441L350.43 -214.435L351.331 -215.227L1052 400.649L1051.1 401.441Z" fill="#5C2CFF"/>
<path fill-rule="evenodd" clip-rule="evenodd" d="M1051.1 401.441L350.43 -214.435L351.331 -215.227L1052 400.649L1051.1 401.441Z" fill="black" fill-opacity="0.2"/>
<path fill-rule="evenodd" clip-rule="evenodd" d="M133.86 401.441L-566.807 -214.435L-565.906 -215.227L134.76 400.649L133.86 401.441Z" fill="#5C2CFF"/>
<path fill-rule="evenodd" clip-rule="evenodd" d="M133.86 401.441L-566.807 -214.435L-565.906 -215.227L134.76 400.649L133.86 401.441Z" fill="black" fill-opacity="0.2"/>
<path fill-rule="evenodd" clip-rule="evenodd" d="M867.651 401.441L166.984 -214.435L167.885 -215.227L868.552 400.649L867.651 401.441Z" fill="#5C2CFF"/>
<path fill-rule="evenodd" clip-rule="evenodd" d="M867.651 401.441L166.984 -214.435L167.885 -215.227L868.552 400.649L867.651 401.441Z" fill="black" fill-opacity="0.2"/>
<path fill-rule="evenodd" clip-rule="evenodd" d="M500.755 401.441L-199.912 -214.435L-199.011 -215.227L501.655 400.649L500.755 401.441Z" fill="#5C2CFF"/>
<path fill-rule="evenodd" clip-rule="evenodd" d="M500.755 401.441L-199.912 -214.435L-199.011 -215.227L501.655 400.649L500.755 401.441Z" fill="black" fill-opacity="0.2"/>
<path fill-rule="evenodd" clip-rule="evenodd" d="M1234.54 401.441L533.878 -214.435L534.778 -215.227L1235.44 400.649L1234.54 401.441Z" fill="#5C2CFF"/>
<path fill-rule="evenodd" clip-rule="evenodd" d="M1234.54 401.441L533.878 -214.435L534.778 -215.227L1235.44 400.649L1234.54 401.441Z" fill="black" fill-opacity="0.2"/>
<path fill-rule="evenodd" clip-rule="evenodd" d="M42.1364 401.441L-658.53 -214.435L-657.629 -215.227L43.0372 400.649L42.1364 401.441Z" fill="#5C2CFF"/>
<path fill-rule="evenodd" clip-rule="evenodd" d="M42.1364 401.441L-658.53 -214.435L-657.629 -215.227L43.0372 400.649L42.1364 401.441Z" fill="black" fill-opacity="0.2"/>
<path fill-rule="evenodd" clip-rule="evenodd" d="M775.926 401.441L75.2596 -214.435L76.1604 -215.227L776.827 400.649L775.926 401.441Z" fill="#5C2CFF"/>
<path fill-rule="evenodd" clip-rule="evenodd" d="M775.926 401.441L75.2596 -214.435L76.1604 -215.227L776.827 400.649L775.926 401.441Z" fill="black" fill-opacity="0.2"/>
<path fill-rule="evenodd" clip-rule="evenodd" d="M409.031 401.441L-291.636 -214.435L-290.735 -215.227L409.932 400.649L409.031 401.441Z" fill="#5C2CFF"/>
<path fill-rule="evenodd" clip-rule="evenodd" d="M409.031 401.441L-291.636 -214.435L-290.735 -215.227L409.932 400.649L409.031 401.441Z" fill="black" fill-opacity="0.2"/>
<path fill-rule="evenodd" clip-rule="evenodd" d="M1142.82 401.441L442.153 -214.435L443.054 -215.227L1143.72 400.649L1142.82 401.441Z" fill="#5C2CFF"/>
<path fill-rule="evenodd" clip-rule="evenodd" d="M1142.82 401.441L442.153 -214.435L443.054 -215.227L1143.72 400.649L1142.82 401.441Z" fill="black" fill-opacity="0.2"/>
<path fill-rule="evenodd" clip-rule="evenodd" d="M225.585 401.441L-475.082 -214.435L-474.181 -215.227L226.486 400.649L225.585 401.441Z" fill="#5C2CFF"/>
<path fill-rule="evenodd" clip-rule="evenodd" d="M225.585 401.441L-475.082 -214.435L-474.181 -215.227L226.486 400.649L225.585 401.441Z" fill="black" fill-opacity="0.2"/>
<path fill-rule="evenodd" clip-rule="evenodd" d="M959.373 401.441L258.706 -214.435L259.607 -215.227L960.274 400.649L959.373 401.441Z" fill="#5C2CFF"/>
<path fill-rule="evenodd" clip-rule="evenodd" d="M959.373 401.441L258.706 -214.435L259.607 -215.227L960.274 400.649L959.373 401.441Z" fill="black" fill-opacity="0.2"/>
<path fill-rule="evenodd" clip-rule="evenodd" d="M592.479 401.441L-108.188 -214.435L-107.287 -215.227L593.38 400.649L592.479 401.441Z" fill="#5C2CFF"/>
<path fill-rule="evenodd" clip-rule="evenodd" d="M592.479 401.441L-108.188 -214.435L-107.287 -215.227L593.38 400.649L592.479 401.441Z" fill="black" fill-opacity="0.2"/>
<path fill-rule="evenodd" clip-rule="evenodd" d="M1326.27 401.441L625.602 -214.435L626.502 -215.227L1327.17 400.649L1326.27 401.441Z" fill="#5C2CFF"/>
<path fill-rule="evenodd" clip-rule="evenodd" d="M1326.27 401.441L625.602 -214.435L626.502 -215.227L1327.17 400.649L1326.27 401.441Z" fill="black" fill-opacity="0.2"/>
<path fill-rule="evenodd" clip-rule="evenodd" d="M730.065 401.441L29.3983 -214.435L30.2991 -215.227L730.966 400.649L730.065 401.441Z" fill="#5C2CFF"/>
<path fill-rule="evenodd" clip-rule="evenodd" d="M730.065 401.441L29.3983 -214.435L30.2991 -215.227L730.966 400.649L730.065 401.441Z" fill="black" fill-opacity="0.2"/>
<path fill-rule="evenodd" clip-rule="evenodd" d="M363.169 401.441L-337.498 -214.435L-336.597 -215.227L364.07 400.649L363.169 401.441Z" fill="#5C2CFF"/>
<path fill-rule="evenodd" clip-rule="evenodd" d="M363.169 401.441L-337.498 -214.435L-336.597 -215.227L364.07 400.649L363.169 401.441Z" fill="black" fill-opacity="0.2"/>
<path fill-rule="evenodd" clip-rule="evenodd" d="M1096.96 401.441L396.291 -214.435L397.192 -215.227L1097.86 400.649L1096.96 401.441Z" fill="#5C2CFF"/>
<path fill-rule="evenodd" clip-rule="evenodd" d="M1096.96 401.441L396.291 -214.435L397.192 -215.227L1097.86 400.649L1096.96 401.441Z" fill="black" fill-opacity="0.2"/>
<path fill-rule="evenodd" clip-rule="evenodd" d="M179.723 401.441L-520.944 -214.435L-520.043 -215.227L180.624 400.649L179.723 401.441Z" fill="#5C2CFF"/>
<path fill-rule="evenodd" clip-rule="evenodd" d="M179.723 401.441L-520.944 -214.435L-520.043 -215.227L180.624 400.649L179.723 401.441Z" fill="black" fill-opacity="0.2"/>
<path fill-rule="evenodd" clip-rule="evenodd" d="M913.511 401.441L212.845 -214.435L213.746 -215.227L914.412 400.649L913.511 401.441Z" fill="#5C2CFF"/>
<path fill-rule="evenodd" clip-rule="evenodd" d="M913.511 401.441L212.845 -214.435L213.746 -215.227L914.412 400.649L913.511 401.441Z" fill="black" fill-opacity="0.2"/>
<path fill-rule="evenodd" clip-rule="evenodd" d="M546.616 401.441L-154.05 -214.435L-153.149 -215.227L547.517 400.649L546.616 401.441Z" fill="#5C2CFF"/>
<path fill-rule="evenodd" clip-rule="evenodd" d="M546.616 401.441L-154.05 -214.435L-153.149 -215.227L547.517 400.649L546.616 401.441Z" fill="black" fill-opacity="0.2"/>
<path fill-rule="evenodd" clip-rule="evenodd" d="M1280.41 401.441L579.739 -214.435L580.64 -215.227L1281.31 400.649L1280.41 401.441Z" fill="#5C2CFF"/>
<path fill-rule="evenodd" clip-rule="evenodd" d="M1280.41 401.441L579.739 -214.435L580.64 -215.227L1281.31 400.649L1280.41 401.441Z" fill="black" fill-opacity="0.2"/>
<path fill-rule="evenodd" clip-rule="evenodd" d="M87.9985 401.441L-612.668 -214.435L-611.767 -215.227L88.8994 400.649L87.9985 401.441Z" fill="#5C2CFF"/>
<path fill-rule="evenodd" clip-rule="evenodd" d="M87.9985 401.441L-612.668 -214.435L-611.767 -215.227L88.8994 400.649L87.9985 401.441Z" fill="black" fill-opacity="0.2"/>
<path fill-rule="evenodd" clip-rule="evenodd" d="M821.787 401.441L121.12 -214.435L122.021 -215.227L822.688 400.649L821.787 401.441Z" fill="#5C2CFF"/>
<path fill-rule="evenodd" clip-rule="evenodd" d="M821.787 401.441L121.12 -214.435L122.021 -215.227L822.688 400.649L821.787 401.441Z" fill="black" fill-opacity="0.2"/>
<path fill-rule="evenodd" clip-rule="evenodd" d="M454.894 401.441L-245.773 -214.435L-244.872 -215.227L455.794 400.649L454.894 401.441Z" fill="#5C2CFF"/>
<path fill-rule="evenodd" clip-rule="evenodd" d="M454.894 401.441L-245.773 -214.435L-244.872 -215.227L455.794 400.649L454.894 401.441Z" fill="black" fill-opacity="0.2"/>
<path fill-rule="evenodd" clip-rule="evenodd" d="M1188.68 401.441L488.016 -214.435L488.917 -215.227L1189.58 400.649L1188.68 401.441Z" fill="#5C2CFF"/>
<path fill-rule="evenodd" clip-rule="evenodd" d="M1188.68 401.441L488.016 -214.435L488.917 -215.227L1189.58 400.649L1188.68 401.441Z" fill="black" fill-opacity="0.2"/>
<path fill-rule="evenodd" clip-rule="evenodd" d="M271.446 401.441L-429.221 -214.435L-428.32 -215.227L272.347 400.649L271.446 401.441Z" fill="#5C2CFF"/>
<path fill-rule="evenodd" clip-rule="evenodd" d="M271.446 401.441L-429.221 -214.435L-428.32 -215.227L272.347 400.649L271.446 401.441Z" fill="black" fill-opacity="0.2"/>
<path fill-rule="evenodd" clip-rule="evenodd" d="M1005.23 401.441L304.568 -214.435L305.469 -215.227L1006.14 400.649L1005.23 401.441Z" fill="#5C2CFF"/>
<path fill-rule="evenodd" clip-rule="evenodd" d="M1005.23 401.441L304.568 -214.435L305.469 -215.227L1006.14 400.649L1005.23 401.441Z" fill="black" fill-opacity="0.2"/>
<path fill-rule="evenodd" clip-rule="evenodd" d="M638.34 401.441L-62.3261 -214.435L-61.4253 -215.227L639.241 400.649L638.34 401.441Z" fill="#5C2CFF"/>
<path fill-rule="evenodd" clip-rule="evenodd" d="M638.34 401.441L-62.3261 -214.435L-61.4253 -215.227L639.241 400.649L638.34 401.441Z" fill="black" fill-opacity="0.2"/>
<path fill-rule="evenodd" clip-rule="evenodd" d="M1372.13 401.441L671.462 -214.435L672.363 -215.227L1373.03 400.649L1372.13 401.441Z" fill="#5C2CFF"/>
<path fill-rule="evenodd" clip-rule="evenodd" d="M1372.13 401.441L671.462 -214.435L672.363 -215.227L1373.03 400.649L1372.13 401.441Z" fill="black" fill-opacity="0.2"/>
<path fill-rule="evenodd" clip-rule="evenodd" d="M707.133 401.441L6.46686 -214.435L7.36768 -215.227L708.034 400.649L707.133 401.441Z" fill="#5C2CFF"/>
<path fill-rule="evenodd" clip-rule="evenodd" d="M707.133 401.441L6.46686 -214.435L7.36768 -215.227L708.034 400.649L707.133 401.441Z" fill="black" fill-opacity="0.2"/>
<path fill-rule="evenodd" clip-rule="evenodd" d="M340.239 401.441L-360.428 -214.435L-359.527 -215.227L341.139 400.649L340.239 401.441Z" fill="#5C2CFF"/>
<path fill-rule="evenodd" clip-rule="evenodd" d="M340.239 401.441L-360.428 -214.435L-359.527 -215.227L341.139 400.649L340.239 401.441Z" fill="black" fill-opacity="0.2"/>
<path fill-rule="evenodd" clip-rule="evenodd" d="M1074.03 401.441L373.361 -214.435L374.261 -215.227L1074.93 400.649L1074.03 401.441Z" fill="#5C2CFF"/>
<path fill-rule="evenodd" clip-rule="evenodd" d="M1074.03 401.441L373.361 -214.435L374.261 -215.227L1074.93 400.649L1074.03 401.441Z" fill="black" fill-opacity="0.2"/>
<path fill-rule="evenodd" clip-rule="evenodd" d="M156.791 401.441L-543.876 -214.435L-542.975 -215.227L157.692 400.649L156.791 401.441Z" fill="#5C2CFF"/>
<path fill-rule="evenodd" clip-rule="evenodd" d="M156.791 401.441L-543.876 -214.435L-542.975 -215.227L157.692 400.649L156.791 401.441Z" fill="black" fill-opacity="0.2"/>
<path fill-rule="evenodd" clip-rule="evenodd" d="M890.58 401.441L189.913 -214.435L190.814 -215.227L891.481 400.649L890.58 401.441Z" fill="#5C2CFF"/>
<path fill-rule="evenodd" clip-rule="evenodd" d="M890.58 401.441L189.913 -214.435L190.814 -215.227L891.481 400.649L890.58 401.441Z" fill="black" fill-opacity="0.2"/>
<path fill-rule="evenodd" clip-rule="evenodd" d="M523.686 401.441L-176.98 -214.435L-176.08 -215.227L524.587 400.649L523.686 401.441Z" fill="#5C2CFF"/>
<path fill-rule="evenodd" clip-rule="evenodd" d="M523.686 401.441L-176.98 -214.435L-176.08 -215.227L524.587 400.649L523.686 401.441Z" fill="black" fill-opacity="0.2"/>
<path fill-rule="evenodd" clip-rule="evenodd" d="M1257.47 401.441L556.808 -214.435L557.708 -215.227L1258.38 400.649L1257.47 401.441Z" fill="#5C2CFF"/>
<path fill-rule="evenodd" clip-rule="evenodd" d="M1257.47 401.441L556.808 -214.435L557.708 -215.227L1258.38 400.649L1257.47 401.441Z" fill="black" fill-opacity="0.2"/>
<path fill-rule="evenodd" clip-rule="evenodd" d="M65.0671 401.441L-635.6 -214.435L-634.699 -215.227L65.9679 400.649L65.0671 401.441Z" fill="#5C2CFF"/>
<path fill-rule="evenodd" clip-rule="evenodd" d="M65.0671 401.441L-635.6 -214.435L-634.699 -215.227L65.9679 400.649L65.0671 401.441Z" fill="black" fill-opacity="0.2"/>
<path fill-rule="evenodd" clip-rule="evenodd" d="M798.858 401.441L98.1912 -214.435L99.092 -215.227L799.759 400.649L798.858 401.441Z" fill="#5C2CFF"/>
<path fill-rule="evenodd" clip-rule="evenodd" d="M798.858 401.441L98.1912 -214.435L99.092 -215.227L799.759 400.649L798.858 401.441Z" fill="black" fill-opacity="0.2"/>
<path fill-rule="evenodd" clip-rule="evenodd" d="M431.962 401.441L-268.705 -214.435L-267.804 -215.227L432.862 400.649L431.962 401.441Z" fill="#5C2CFF"/>
<path fill-rule="evenodd" clip-rule="evenodd" d="M431.962 401.441L-268.705 -214.435L-267.804 -215.227L432.862 400.649L431.962 401.441Z" fill="black" fill-opacity="0.2"/>
<path fill-rule="evenodd" clip-rule="evenodd" d="M1165.75 401.441L465.085 -214.435L465.985 -215.227L1166.65 400.649L1165.75 401.441Z" fill="#5C2CFF"/>
<path fill-rule="evenodd" clip-rule="evenodd" d="M1165.75 401.441L465.085 -214.435L465.985 -215.227L1166.65 400.649L1165.75 401.441Z" fill="black" fill-opacity="0.2"/>
<path fill-rule="evenodd" clip-rule="evenodd" d="M248.515 401.441L-452.151 -214.435L-451.25 -215.227L249.416 400.649L248.515 401.441Z" fill="#5C2CFF"/>
<path fill-rule="evenodd" clip-rule="evenodd" d="M248.515 401.441L-452.151 -214.435L-451.25 -215.227L249.416 400.649L248.515 401.441Z" fill="black" fill-opacity="0.2"/>
<path fill-rule="evenodd" clip-rule="evenodd" d="M982.304 401.441L281.637 -214.435L282.538 -215.227L983.205 400.649L982.304 401.441Z" fill="#5C2CFF"/>
<path fill-rule="evenodd" clip-rule="evenodd" d="M982.304 401.441L281.637 -214.435L282.538 -215.227L983.205 400.649L982.304 401.441Z" fill="black" fill-opacity="0.2"/>
<path fill-rule="evenodd" clip-rule="evenodd" d="M615.409 401.441L-85.2573 -214.435L-84.3564 -215.227L616.31 400.649L615.409 401.441Z" fill="#5C2CFF"/>
<path fill-rule="evenodd" clip-rule="evenodd" d="M615.409 401.441L-85.2573 -214.435L-84.3564 -215.227L616.31 400.649L615.409 401.441Z" fill="black" fill-opacity="0.2"/>
<path fill-rule="evenodd" clip-rule="evenodd" d="M1349.2 401.441L648.532 -214.435L649.433 -215.227L1350.1 400.649L1349.2 401.441Z" fill="#5C2CFF"/>
<path fill-rule="evenodd" clip-rule="evenodd" d="M1349.2 401.441L648.532 -214.435L649.433 -215.227L1350.1 400.649L1349.2 401.441Z" fill="black" fill-opacity="0.2"/>
<path fill-rule="evenodd" clip-rule="evenodd" d="M19.2058 401.441L-681.461 -214.435L-680.56 -215.227L20.1066 400.649L19.2058 401.441Z" fill="#5C2CFF"/>
<path fill-rule="evenodd" clip-rule="evenodd" d="M19.2058 401.441L-681.461 -214.435L-680.56 -215.227L20.1066 400.649L19.2058 401.441Z" fill="black" fill-opacity="0.2"/>
<path fill-rule="evenodd" clip-rule="evenodd" d="M752.995 401.441L52.3279 -214.435L53.2288 -215.227L753.895 400.649L752.995 401.441Z" fill="#5C2CFF"/>
<path fill-rule="evenodd" clip-rule="evenodd" d="M752.995 401.441L52.3279 -214.435L53.2288 -215.227L753.895 400.649L752.995 401.441Z" fill="black" fill-opacity="0.2"/>
<path fill-rule="evenodd" clip-rule="evenodd" d="M386.101 401.441L-314.566 -214.435L-313.665 -215.227L387.001 400.649L386.101 401.441Z" fill="#5C2CFF"/>
<path fill-rule="evenodd" clip-rule="evenodd" d="M386.101 401.441L-314.566 -214.435L-313.665 -215.227L387.001 400.649L386.101 401.441Z" fill="black" fill-opacity="0.2"/>
<path fill-rule="evenodd" clip-rule="evenodd" d="M1119.89 401.441L419.223 -214.435L420.124 -215.227L1120.79 400.649L1119.89 401.441Z" fill="#5C2CFF"/>
<path fill-rule="evenodd" clip-rule="evenodd" d="M1119.89 401.441L419.223 -214.435L420.124 -215.227L1120.79 400.649L1119.89 401.441Z" fill="black" fill-opacity="0.2"/>
<path fill-rule="evenodd" clip-rule="evenodd" d="M202.653 401.441L-498.014 -214.435L-497.113 -215.227L203.554 400.649L202.653 401.441Z" fill="#5C2CFF"/>
<path fill-rule="evenodd" clip-rule="evenodd" d="M202.653 401.441L-498.014 -214.435L-497.113 -215.227L203.554 400.649L202.653 401.441Z" fill="black" fill-opacity="0.2"/>
<path fill-rule="evenodd" clip-rule="evenodd" d="M936.443 401.441L235.776 -214.435L236.677 -215.227L937.344 400.649L936.443 401.441Z" fill="#5C2CFF"/>
<path fill-rule="evenodd" clip-rule="evenodd" d="M936.443 401.441L235.776 -214.435L236.677 -215.227L937.344 400.649L936.443 401.441Z" fill="black" fill-opacity="0.2"/>
<path fill-rule="evenodd" clip-rule="evenodd" d="M569.547 401.441L-131.12 -214.435L-130.219 -215.227L570.448 400.649L569.547 401.441Z" fill="#5C2CFF"/>
<path fill-rule="evenodd" clip-rule="evenodd" d="M569.547 401.441L-131.12 -214.435L-130.219 -215.227L570.448 400.649L569.547 401.441Z" fill="black" fill-opacity="0.2"/>
<path fill-rule="evenodd" clip-rule="evenodd" d="M1303.34 401.441L602.67 -214.435L603.571 -215.227L1304.24 400.649L1303.34 401.441Z" fill="#5C2CFF"/>
<path fill-rule="evenodd" clip-rule="evenodd" d="M1303.34 401.441L602.67 -214.435L603.571 -215.227L1304.24 400.649L1303.34 401.441Z" fill="black" fill-opacity="0.2"/>
<path fill-rule="evenodd" clip-rule="evenodd" d="M110.929 401.441L-589.738 -214.435L-588.837 -215.227L111.83 400.649L110.929 401.441Z" fill="#5C2CFF"/>
<path fill-rule="evenodd" clip-rule="evenodd" d="M110.929 401.441L-589.738 -214.435L-588.837 -215.227L111.83 400.649L110.929 401.441Z" fill="black" fill-opacity="0.2"/>
<path fill-rule="evenodd" clip-rule="evenodd" d="M844.719 401.441L144.052 -214.435L144.953 -215.227L845.62 400.649L844.719 401.441Z" fill="#5C2CFF"/>
<path fill-rule="evenodd" clip-rule="evenodd" d="M844.719 401.441L144.052 -214.435L144.953 -215.227L845.62 400.649L844.719 401.441Z" fill="black" fill-opacity="0.2"/>
<path fill-rule="evenodd" clip-rule="evenodd" d="M477.824 401.441L-222.843 -214.435L-221.942 -215.227L478.725 400.649L477.824 401.441Z" fill="#5C2CFF"/>
<path fill-rule="evenodd" clip-rule="evenodd" d="M477.824 401.441L-222.843 -214.435L-221.942 -215.227L478.725 400.649L477.824 401.441Z" fill="black" fill-opacity="0.2"/>
<path fill-rule="evenodd" clip-rule="evenodd" d="M1211.61 401.441L510.947 -214.435L511.848 -215.227L1212.51 400.649L1211.61 401.441Z" fill="#5C2CFF"/>
<path fill-rule="evenodd" clip-rule="evenodd" d="M1211.61 401.441L510.947 -214.435L511.848 -215.227L1212.51 400.649L1211.61 401.441Z" fill="black" fill-opacity="0.2"/>
<path fill-rule="evenodd" clip-rule="evenodd" d="M294.376 401.441L-406.29 -214.435L-405.39 -215.227L295.277 400.649L294.376 401.441Z" fill="#5C2CFF"/>
<path fill-rule="evenodd" clip-rule="evenodd" d="M294.376 401.441L-406.29 -214.435L-405.39 -215.227L295.277 400.649L294.376 401.441Z" fill="black" fill-opacity="0.2"/>
<path fill-rule="evenodd" clip-rule="evenodd" d="M1028.17 401.441L327.498 -214.435L328.399 -215.227L1029.07 400.649L1028.17 401.441Z" fill="#5C2CFF"/>
<path fill-rule="evenodd" clip-rule="evenodd" d="M1028.17 401.441L327.498 -214.435L328.399 -215.227L1029.07 400.649L1028.17 401.441Z" fill="black" fill-opacity="0.2"/>
<path fill-rule="evenodd" clip-rule="evenodd" d="M661.273 401.441L-39.3942 -214.435L-38.4934 -215.227L662.173 400.649L661.273 401.441Z" fill="#5C2CFF"/>
<path fill-rule="evenodd" clip-rule="evenodd" d="M661.273 401.441L-39.3942 -214.435L-38.4934 -215.227L662.173 400.649L661.273 401.441Z" fill="black" fill-opacity="0.2"/>
<path fill-rule="evenodd" clip-rule="evenodd" d="M1395.06 401.441L694.393 -214.435L695.294 -215.227L1395.96 400.649L1395.06 401.441Z" fill="#5C2CFF"/>
<path fill-rule="evenodd" clip-rule="evenodd" d="M1395.06 401.441L694.393 -214.435L695.294 -215.227L1395.96 400.649L1395.06 401.441Z" fill="black" fill-opacity="0.2"/>
</svg>
