<svg width="104" height="84" viewBox="0 0 104 84" fill="none" xmlns="http://www.w3.org/2000/svg">
<path d="M8.10755 83.189C6.0153 83.1719 4.00944 82.3574 2.5036 80.9135C0.997765 79.4696 0.106773 77.5064 0.0143661 75.4288C-0.0457296 74.036 0.254679 72.6511 0.886865 71.4066L7.17487 58.9514V13.4367C7.17798 11.693 7.52778 9.96709 8.20416 8.3582C8.88055 6.7493 9.87017 5.28914 11.1162 4.06165C12.3566 2.8295 13.8298 1.85309 15.451 1.1885C17.0722 0.523916 18.8095 0.184252 20.5632 0.189014H82.5106C84.262 0.184585 85.997 0.524461 87.6157 1.18908C89.2345 1.85371 90.705 2.82996 91.9427 4.06165C93.1805 5.29283 94.1618 6.75466 94.8304 8.36338C95.4989 9.97211 95.8416 11.6961 95.8388 13.4367V58.9514L102.142 71.4066C102.763 72.6546 103.057 74.0378 102.999 75.4288C102.936 76.8166 102.517 78.1653 101.781 79.3463C101.046 80.5203 100.022 81.4891 98.806 82.1613C97.5902 82.8336 96.2222 83.1873 94.8309 83.189H8.10755ZM12.0338 62.6446L6.25725 74.098C6.08752 74.4258 6.00468 74.7912 6.01656 75.1596C6.04392 75.5246 6.15729 75.878 6.3475 76.1914C6.54123 76.5017 6.81019 76.7587 7.12974 76.939C7.45647 77.1187 7.8244 77.2114 8.1978 77.2081H94.8008C95.1786 77.2075 95.5504 77.1151 95.8839 76.939C96.2035 76.7587 96.4725 76.5017 96.6662 76.1914C96.8664 75.8816 96.9803 75.5246 96.9961 75.1568C97.012 74.789 96.9293 74.4236 96.7564 74.098L90.9799 62.6446H12.0338ZM13.1921 56.6637H89.8216V13.4367C89.8263 12.4814 89.6398 11.5348 89.2731 10.6517C88.9064 9.76873 88.3667 8.96698 87.6855 8.29314C87.0075 7.616 86.2009 7.07958 85.3125 6.71508C84.4241 6.35058 83.4717 6.16527 82.5106 6.16992H20.5181C19.5546 6.16411 18.5996 6.34884 17.7086 6.71335C16.8176 7.07786 16.0084 7.61488 15.3282 8.29314C14.647 8.96698 14.1073 9.76873 13.7406 10.6517C13.3739 11.5348 13.1874 12.4814 13.1921 13.4367V56.6637Z" fill="#4924CC"/>
<path d="M51.906 37.3474C55.5331 37.3416 59.0099 35.8872 61.5747 33.3029C64.1394 30.7186 65.5828 27.2152 65.5886 23.5604C65.5867 19.9038 64.1447 16.3974 61.5794 13.8111C59.014 11.2248 55.5349 9.77001 51.906 9.76611C48.2783 9.77001 44.8003 11.2238 42.2352 13.8085C39.67 16.3932 38.2273 19.8977 38.2234 23.5531C38.2272 27.2091 39.6698 30.7144 42.2348 33.3003C44.7997 35.8861 48.2777 37.3416 51.906 37.3474ZM51.906 16.6633C53.7201 16.6652 55.4593 17.3927 56.7414 18.686C58.0235 19.9793 58.7436 21.7325 58.7436 23.5604C58.7417 25.3871 58.0207 27.1385 56.7388 28.4301C55.4569 29.7218 53.7189 30.4483 51.906 30.4503C50.0931 30.4483 48.3551 29.7218 47.0732 28.4301C45.7913 27.1385 45.0703 25.3871 45.0683 23.5604C45.0683 21.7325 45.7885 19.9793 47.0706 18.686C48.3527 17.3927 50.0919 16.6652 51.906 16.6633Z" fill="#64F9BF"/>
<path d="M70.9962 46.6048C65.6399 42.7445 59.2036 40.7886 51.9062 40.7886C45.1651 40.8233 38.5772 42.8173 32.933 46.5313C32.1708 47.0269 31.635 47.8072 31.4435 48.7006C31.2519 49.5941 31.4202 50.5276 31.9113 51.2961C32.2202 51.7817 32.6456 52.1811 33.1481 52.4574C33.6506 52.7337 34.2141 52.878 34.7865 52.877C35.4416 52.875 36.0824 52.6836 36.6328 52.3255C41.1747 49.3302 46.478 47.7191 51.9062 47.6857C57.7441 47.6857 62.8523 49.2078 67.0191 52.2079C67.3844 52.4718 67.7978 52.6604 68.2356 52.763C68.6735 52.8656 69.1271 52.88 69.5705 52.8056C70.0139 52.7311 70.4383 52.5692 70.8195 52.3291C71.2006 52.089 71.531 51.7754 71.7916 51.4064C72.3163 50.6628 72.5273 49.74 72.3782 48.8401C72.2291 47.9401 71.7321 47.1364 70.9962 46.6048V46.6048Z" fill="#64F9BF"/>
</svg>
