<svg width="51" height="76" viewBox="0 0 51 76" fill="none" xmlns="http://www.w3.org/2000/svg">
<path d="M33.8446 4.50442C32.6865 3.33984 31.3089 2.41656 29.7915 1.78804C28.274 1.15952 26.647 0.83825 25.0046 0.842828C23.3626 0.837976 21.736 1.15914 20.219 1.78768C18.7021 2.41623 17.325 3.33966 16.1677 4.50442C15.0031 5.66253 14.0798 7.04015 13.4513 8.55752C12.8227 10.0749 12.5015 11.7019 12.506 13.3443V38.3595C12.5037 39.9988 12.8261 41.6223 13.4546 43.1363C14.0831 44.6504 15.0052 46.0249 16.1677 47.1807C17.325 48.3455 18.7021 49.2689 20.219 49.8975C21.736 50.526 23.3626 50.8472 25.0046 50.8423C26.647 50.8469 28.274 50.5257 29.7915 49.8971C31.3089 49.2686 32.6865 48.3453 33.8446 47.1807C35.006 46.0243 35.9272 44.6495 36.5551 43.1356C37.183 41.6216 37.5052 39.9985 37.5032 38.3595V13.3597C37.5097 11.715 37.1897 10.0854 36.5617 8.56532C35.9336 7.04523 35.0101 5.66492 33.8446 4.50442ZM31.2539 38.3595C31.2561 39.1764 31.0971 39.9857 30.7858 40.741C30.4746 41.4963 30.0172 42.1827 29.4401 42.7608C28.8618 43.3442 28.1731 43.8067 27.4143 44.1213C26.6554 44.4359 25.8416 44.5963 25.0201 44.5932C24.1988 44.5953 23.3852 44.4344 22.6265 44.1199C21.8678 43.8053 21.179 43.3434 20.6001 42.7608C20.0173 42.1852 19.5543 41.5 19.2377 40.7446C18.9211 39.9892 18.7571 39.1786 18.7553 38.3595V13.3597C18.7528 12.5386 18.9132 11.7252 19.2272 10.9665C19.5412 10.2079 20.0026 9.519 20.5846 8.93982C21.1631 8.35598 21.8516 7.89262 22.6102 7.57651C23.3689 7.2604 24.1827 7.09783 25.0046 7.09819C25.8281 7.09358 26.6442 7.25265 27.4056 7.56614C28.1671 7.87964 28.8586 8.34131 29.4401 8.92434C30.0221 9.50352 30.4835 10.1924 30.7975 10.9511C31.1115 11.7097 31.2719 12.5232 31.2694 13.3443L31.2539 38.3595Z" fill="#64F9BF"/>
<path d="M46.8789 28.9688C46.0506 28.9688 45.2562 29.2978 44.6705 29.8835C44.0848 30.4691 43.7558 31.2635 43.7558 32.0918V38.3595C43.7607 40.8202 43.2777 43.2574 42.3346 45.5302C41.3916 47.803 40.0073 49.8663 38.2618 51.6007C36.5249 53.3471 34.4589 54.7316 32.1833 55.6741C29.9078 56.6166 27.4679 57.0984 25.0048 57.0915C22.5418 57.0984 20.1019 56.6166 17.8263 55.6741C15.5508 54.7316 13.4848 53.3471 11.7479 51.6007C10.0034 49.8657 8.61989 47.8023 7.67742 45.5295C6.73495 43.2568 6.25216 40.8199 6.25695 38.3595V32.1073C6.25858 31.6957 6.17892 31.2878 6.02254 30.9071C5.86617 30.5264 5.63615 30.1803 5.3457 29.8887C5.05524 29.5971 4.71006 29.3658 4.32996 29.2079C3.94987 29.05 3.54233 28.9687 3.13075 28.9688C2.30217 28.9687 1.50748 29.2977 0.921293 29.8833C0.335107 30.4689 0.00537874 31.2632 0.00455836 32.0918V38.3595C-0.00145787 41.6411 0.642603 44.8913 1.89956 47.9226C3.15651 50.9539 5.00146 53.7062 7.3279 56.0206C11.2447 59.9534 16.3667 62.4599 21.8755 63.1395V69.5899H12.5062C12.0957 69.5899 11.6892 69.6707 11.3099 69.8278C10.9306 69.9849 10.586 70.2152 10.2957 70.5055C10.0054 70.7958 9.77512 71.1404 9.61801 71.5197C9.46091 71.899 9.38005 72.3055 9.38005 72.716C9.38005 73.1265 9.46091 73.533 9.61801 73.9123C9.77512 74.2916 10.0054 74.6362 10.2957 74.9265C10.586 75.2168 10.9306 75.4471 11.3099 75.6042C11.6892 75.7613 12.0957 75.8421 12.5062 75.8421H37.5034C38.3325 75.8421 39.1277 75.5128 39.714 74.9265C40.3003 74.3402 40.6296 73.5451 40.6296 72.716C40.6296 71.8869 40.3003 71.0917 39.714 70.5055C39.1277 69.9192 38.3325 69.5899 37.5034 69.5899H28.131V63.1426C33.6402 62.4641 38.7626 59.9575 42.6787 56.0237C45.0067 53.7097 46.8529 50.9571 48.1105 47.9251C49.368 44.8931 50.012 41.6419 50.0051 38.3595V32.1073C50.0067 31.6957 49.9271 31.2878 49.7707 30.9071C49.6143 30.5264 49.3843 30.1803 49.0938 29.8887C48.8034 29.5971 48.4582 29.3658 48.0781 29.2079C47.698 29.05 47.2905 28.9687 46.8789 28.9688Z" fill="#4924CC"/>
</svg>
