<svg width="92" height="94" viewBox="0 0 92 94" fill="none" xmlns="http://www.w3.org/2000/svg">
<path d="M25.4818 93.4463H12.7408C11.0668 93.449 9.40882 93.1213 7.86178 92.482C6.31474 91.8426 4.9091 90.9043 3.72545 89.7206C2.54179 88.537 1.6034 87.1313 0.964074 85.5843C0.324743 84.0372 -0.00295136 82.3792 -0.000227296 80.7053V50.9832C-0.00295136 49.3093 0.324743 47.6512 0.964074 46.1042C1.6034 44.5572 2.54179 43.1515 3.72545 41.9679C4.9091 40.7842 6.31474 39.8458 7.86178 39.2065C9.40882 38.5672 11.0668 38.2395 12.7408 38.2422H25.4818C26.5578 38.3173 27.5653 38.7978 28.301 39.5866C29.0367 40.3755 29.4459 41.414 29.4459 42.4926C29.4459 43.5713 29.0367 44.6099 28.301 45.3987C27.5653 46.1875 26.5578 46.668 25.4818 46.7431H12.7408C12.1889 46.7293 11.6398 46.8261 11.1259 47.0278C10.6121 47.2295 10.1438 47.532 9.7486 47.9175C9.35346 48.303 9.03947 48.7637 8.82514 49.2725C8.61082 49.7812 8.50049 50.3277 8.50067 50.8798V80.7053C8.4836 81.2677 8.58145 81.8277 8.78823 82.351C8.99501 82.8742 9.30636 83.3499 9.70326 83.7487C10.1002 84.1475 10.5742 84.4612 11.0965 84.6705C11.6188 84.8798 12.1783 84.9804 12.7408 84.9661H25.4818C26.6063 84.9661 27.6848 85.4128 28.48 86.208C29.2751 87.0031 29.7219 88.0816 29.7219 89.2062C29.7219 90.3307 29.2751 91.4092 28.48 92.2044C27.6848 92.9996 26.6063 93.4463 25.4818 93.4463V93.4463Z" fill="#64F9BF"/>
<path d="M91.4824 38.9262C90.9664 37.1546 90.0699 35.517 88.8556 34.1277C87.6459 32.7357 86.1503 31.6211 84.4707 30.8597C82.7949 30.1245 80.985 29.7443 79.155 29.7428H59.361V17.0018C59.3555 12.4979 57.5653 8.17973 54.3825 4.99306C51.1997 1.80638 46.8838 0.0109572 42.3799 1.54716e-05C41.5567 -0.0022077 40.7508 0.235205 40.0603 0.683287C39.3698 1.13137 38.8247 1.77074 38.4914 2.52339L22.6272 38.2437L22.627 93.4478H73.3844C76.4327 93.4566 79.3825 92.3687 81.6951 90.3827C84.0077 88.3966 85.5288 85.645 85.9806 82.6303L91.8547 44.4073C92.1247 42.5747 91.9977 40.7055 91.4824 38.9262ZM83.4572 43.0629L77.5831 81.348C77.4412 82.3664 76.925 83.2955 76.1353 83.9541C75.3445 84.6237 74.3377 84.9838 73.3016 84.9676H30.8901V43.3939L44.9446 8.91457C46.667 9.45085 48.1716 10.5262 49.2366 11.9823C50.3016 13.4383 50.8707 15.1979 50.8601 17.0018V33.9829C50.8601 34.5424 50.9703 35.0965 51.1844 35.6134C51.3985 36.1304 51.7124 36.6001 52.108 36.9957C52.5037 37.3914 52.9734 37.7052 53.4903 37.9194C54.0073 38.1335 54.5613 38.2437 55.1209 38.2437H79.1964C79.8181 38.2128 80.4374 38.3409 80.9958 38.616C81.5546 38.8689 82.0547 39.2351 82.4644 39.6915C82.8649 40.1618 83.1609 40.7117 83.3331 41.3048C83.4975 41.8898 83.5398 42.5023 83.4572 43.1043V43.0629Z" fill="#5C2CFF"/>
<path d="M91.4824 38.9262C90.9664 37.1546 90.0699 35.517 88.8556 34.1277C87.6459 32.7357 86.1503 31.6211 84.4707 30.8597C82.7949 30.1245 80.985 29.7443 79.155 29.7428H59.361V17.0018C59.3555 12.4979 57.5653 8.17973 54.3825 4.99306C51.1997 1.80638 46.8838 0.0109572 42.3799 1.54716e-05C41.5567 -0.0022077 40.7508 0.235205 40.0603 0.683287C39.3698 1.13137 38.8247 1.77074 38.4914 2.52339L22.6272 38.2437L22.627 93.4478H73.3844C76.4327 93.4566 79.3825 92.3687 81.6951 90.3827C84.0077 88.3966 85.5288 85.645 85.9806 82.6303L91.8547 44.4073C92.1247 42.5747 91.9977 40.7055 91.4824 38.9262ZM83.4572 43.0629L77.5831 81.348C77.4412 82.3664 76.925 83.2955 76.1353 83.9541C75.3445 84.6237 74.3377 84.9838 73.3016 84.9676H30.8901V43.3939L44.9446 8.91457C46.667 9.45085 48.1716 10.5262 49.2366 11.9823C50.3016 13.4383 50.8707 15.1979 50.8601 17.0018V33.9829C50.8601 34.5424 50.9703 35.0965 51.1844 35.6134C51.3985 36.1304 51.7124 36.6001 52.108 36.9957C52.5037 37.3914 52.9734 37.7052 53.4903 37.9194C54.0073 38.1335 54.5613 38.2437 55.1209 38.2437H79.1964C79.8181 38.2128 80.4374 38.3409 80.9958 38.616C81.5546 38.8689 82.0547 39.2351 82.4644 39.6915C82.8649 40.1618 83.1609 40.7117 83.3331 41.3048C83.4975 41.8898 83.5398 42.5023 83.4572 43.1043V43.0629Z" fill="black" fill-opacity="0.2"/>
</svg>
