<svg width="176" height="75" viewBox="0 0 176 75" fill="none" xmlns="http://www.w3.org/2000/svg">
<path d="M35.3346 45.7063L25.2006 27.6707L22.1422 30.7705V45.7148H14.2067V6.25332H22.1422V18.9923L33.7496 6.25332H44.4519L30.5797 21.6972L44.7907 45.7063H35.3346ZM79.3898 6.25332V14.1525H52.9472V6.25332H79.3898ZM52.9472 29.3615V21.4624H74.8515V29.3615H52.9472ZM52.9472 45.764V37.8648H79.2204V45.764H52.9472ZM87.5398 6.25332H98.7526C101.351 6.23695 103.926 6.73706 106.327 7.72431C108.728 8.71156 110.907 10.1661 112.736 12.0026C114.57 13.7966 116.015 15.945 116.983 18.3155C118.03 20.7463 118.571 23.3637 118.571 26.0086C118.571 28.6536 118.03 31.271 116.983 33.7018C116.028 36.0626 114.581 38.1947 112.736 39.957C109.028 43.6551 104.001 45.7427 98.7526 45.764H90.7741V45.7063H87.5398V6.25332ZM95.4754 37.8734H98.7611C101.895 37.8315 104.886 36.5631 107.087 34.3426C109.288 32.122 110.522 29.1281 110.522 26.0086C110.522 22.8892 109.288 19.8952 107.087 17.6747C104.886 15.4542 101.895 14.1858 98.7611 14.1439H95.4754V37.8734ZM140.73 6.25332H143.054L161.795 45.764H153.002L141.678 21.757L129.395 45.764H120.505L140.73 6.25332Z" fill="#326DE6"/>
<path d="M146.009 44.1158L148.158 40.2858H139.85L142.333 23.1361L142.207 22.9077L129.068 46.5945H129.072L128.676 47.299L137.111 47.2328L134.867 64.0964L134.921 64.3184L145.102 45.7597H145.098L146.009 44.1158Z" stroke="#326DE6" stroke-miterlimit="10"/>
<path d="M145.102 45.7617L148.135 40.2942H139.837L142.436 22.5126L129.542 45.7617H126.689L141.664 17.7944L156.636 45.7617H145.102Z" fill="#326DE6"/>
</svg>
