<svg width="222" height="55" viewBox="0 0 222 55" fill="none" xmlns="http://www.w3.org/2000/svg">
<path d="M69.3885 17.0549H74.356V33.8609H82.7143V37.6429H69.3885V17.0549ZM83.5185 27.0594C83.5185 19.6473 87.3557 16.689 92.7397 16.689C98.0342 16.689 101.871 19.6473 101.871 27.0594C101.871 35.2946 97.9153 38.0092 92.7397 38.0092C87.3557 38.0092 83.5185 35.0504 83.5185 27.0594V27.0594ZM96.7848 27.0594C96.7848 21.935 94.8218 20.2878 92.6801 20.2878C90.5385 20.2878 88.605 21.935 88.605 27.0594C88.605 32.7627 90.5385 34.4099 92.6801 34.4099C94.8218 34.4099 96.7848 32.7627 96.7848 27.0594ZM104.578 17.0549H109.903L115.168 27.2729C115.614 28.1576 116.209 29.7125 116.685 30.9328H116.804C116.744 29.7741 116.596 28.1268 116.596 26.9373V17.0549H120.671V37.6429H115.465L109.992 27.4556C109.436 26.3707 108.949 25.25 108.535 24.1006H108.416C108.505 25.2598 108.654 26.6325 108.654 27.7604V37.6429H104.578L104.578 17.0549ZM132.391 27.2421H140.66V37.6429H137.299V34.1657C136.585 36.4534 134.978 38.0092 131.528 38.0092C126.888 38.0092 123.408 34.7148 123.408 27.2421C123.408 19.7695 126.918 16.689 132.391 16.689C138.548 16.689 140.957 20.2575 140.273 23.8871L135.603 24.4054C135.96 21.5691 134.592 20.2878 132.629 20.2878C130.457 20.2878 128.554 21.9042 128.554 27.3335C128.554 32.7627 130.19 34.2878 132.599 34.2878C134.83 34.2878 136.079 32.8848 136.139 31.4818V30.9025H132.391V27.2421ZM143.635 17.0549H148.602V24.8323H154.7V17.0549H159.668V37.6429H154.7V28.9201H148.602V37.6429H143.635L143.635 17.0549ZM162.375 27.0594C162.375 19.6473 166.212 16.689 171.596 16.689C176.891 16.689 180.728 19.6473 180.728 27.0594C180.728 35.2946 176.772 38.0092 171.596 38.0092C166.212 38.0092 162.375 35.0504 162.375 27.0594L162.375 27.0594ZM175.641 27.0594C175.641 21.935 173.678 20.2878 171.537 20.2878C169.395 20.2878 167.462 21.935 167.462 27.0594C167.462 32.7627 169.395 34.4099 171.537 34.4099C173.678 34.4099 175.641 32.7627 175.641 27.0594L175.641 27.0594ZM183.435 17.0549H191.704C195.631 17.0549 198.278 19.0069 198.278 22.7889C198.289 24.0443 197.899 25.2689 197.169 26.2766C196.439 27.2842 195.408 28.0197 194.232 28.3711C194.821 28.9195 195.296 29.5832 195.631 30.3231C196.463 32.0617 197.028 33.983 198.783 33.983C199.058 33.9814 199.33 33.9298 199.587 33.8306L199.2 37.4602C198.547 37.622 197.879 37.714 197.207 37.7347C194.827 37.7347 193.459 36.789 192.061 33.5253C191.466 32.0617 190.633 29.499 189.533 29.499H188.402V37.6429H183.435V17.0549ZM188.402 20.7455V25.8084H190.187C191.615 25.8084 193.281 25.3511 193.281 23.1553C193.281 21.3556 192.151 20.7455 190.782 20.7455L188.402 20.7455ZM201.669 17.0549H206.994L212.258 27.2729C212.705 28.1576 213.299 29.7125 213.775 30.9328H213.894C213.835 29.7741 213.686 28.1268 213.686 26.9373V17.0549H217.761V37.6429H212.556L207.083 27.4556C206.527 26.3706 206.04 25.2499 205.625 24.1006H205.506C205.595 25.2598 205.744 26.6325 205.744 27.7604V37.6429H201.669L201.669 17.0549Z" fill="#384745"/>
<path d="M51.2168 13.2823C50.8554 13.2274 50.4869 13.246 50.1324 13.337C49.778 13.4281 49.4445 13.5899 49.151 13.8132C48.8575 14.0364 48.6098 14.3167 48.422 14.6381C48.2342 14.9596 48.1099 15.3158 48.0563 15.6864L47.6458 18.548L31.2956 21.8953L14.9454 18.548L14.5348 15.6864C14.4264 14.9386 14.033 14.2654 13.441 13.8148C12.849 13.3641 12.1067 13.1728 11.3773 13.2829C10.6478 13.393 9.99078 13.7955 9.55048 14.4019C9.11017 15.0083 8.92259 15.7692 9.02892 16.5173L9.72511 21.3678C9.80868 21.95 10.0657 22.4914 10.461 22.9179C10.8563 23.3445 11.3705 23.6352 11.9332 23.7505L23.4534 26.109L25.0231 36.0128C25.0922 37.4775 25.7079 38.8589 26.7427 39.8711C27.7775 40.8833 29.1522 41.4488 30.5823 41.4506H32.0086C33.4331 41.4488 34.8029 40.8876 35.8365 39.8824C36.8701 38.8772 37.489 37.5043 37.5661 36.0457L39.3375 26.1019C39.3396 26.0903 39.34 26.0788 39.3419 26.0672L50.6579 23.7505C51.2206 23.6353 51.7348 23.3445 52.1301 22.9179C52.5254 22.4914 52.7824 21.95 52.866 21.3679L53.5622 16.5173V16.5173C53.6687 15.7695 53.4816 15.0089 53.0419 14.4025C52.6022 13.796 51.9459 13.3931 51.2168 13.2823V13.2823ZM32.054 35.2312C32.0238 35.4004 32.0086 35.572 32.0086 35.744H30.5823C30.5823 35.5907 30.5702 35.4376 30.5461 35.2862L29.2805 27.3019L30.7507 27.6029C31.1104 27.6765 31.4807 27.6765 31.8404 27.6029L33.4726 27.2688L32.054 35.2312Z" fill="white"/>
<path d="M31.2956 27.6579C31.1126 27.6579 30.9301 27.6394 30.7507 27.6027L29.2805 27.3017L30.5461 35.286C30.5702 35.4374 30.5823 35.5905 30.5822 35.7438H32.0086C32.0086 35.5718 32.0238 35.4002 32.054 35.231L33.4725 27.2686L31.8404 27.6027C31.661 27.6394 31.4785 27.6579 31.2956 27.6579V27.6579Z" fill="#5F224A"/>
<path d="M52.6008 4.65283H9.99027C8.4743 4.65738 7.02169 5.27692 5.94974 6.37611C4.87778 7.47531 4.2736 8.96483 4.26917 10.5193V44.1785C4.2736 45.733 4.87779 47.2225 5.94974 48.3217C7.0217 49.4209 8.47431 50.0405 9.99028 50.045H52.6008C54.1167 50.0405 55.5693 49.4209 56.6413 48.3217C57.7132 47.2225 58.3174 45.733 58.3218 44.1785V10.5193C58.3174 8.96484 57.7132 7.47532 56.6413 6.37612C55.5693 5.27692 54.1167 4.65739 52.6008 4.65283ZM53.5621 16.5169V16.5169L52.866 21.3675C52.7824 21.9496 52.5253 22.491 52.1301 22.9176C51.7348 23.3441 51.2206 23.6349 50.6579 23.7501L39.3419 26.0668C39.34 26.0784 39.3395 26.0899 39.3374 26.1016L37.566 36.0453C37.4889 37.5039 36.87 38.8768 35.8364 39.882C34.8028 40.8873 33.4331 41.4484 32.0085 41.4502H30.5822C29.1521 41.4484 27.7774 40.8829 26.7426 39.8708C25.7079 38.8586 25.0922 37.4772 25.0231 36.0124L23.4533 26.1086L11.9332 23.7501C11.3704 23.6349 10.8562 23.3441 10.4609 22.9176C10.0657 22.491 9.80863 21.9496 9.72506 21.3675L9.02887 16.5169C8.92254 15.7688 9.11012 15.008 9.55043 14.4015C9.99074 13.7951 10.6478 13.3926 11.3772 13.2826C12.1067 13.1725 12.8489 13.3638 13.4409 13.8144C14.033 14.2651 14.4263 14.9382 14.5347 15.686L14.9453 18.5477L31.2955 21.8949L47.6457 18.5477L48.0563 15.686C48.1647 14.9382 48.5581 14.2651 49.1501 13.8144C49.7421 13.3638 50.4843 13.1725 51.2138 13.2826C51.9433 13.3926 52.6003 13.7951 53.0406 14.4015C53.4809 15.008 53.6685 15.7688 53.5621 16.5169L53.5621 16.5169Z" fill="#5F224A"/>
</svg>
