<?xml version="1.0" encoding="utf-8"?>
<!-- Generator: Adobe Illustrator 25.4.1, SVG Export Plug-In . SVG Version: 6.00 Build 0)  -->
<svg version="1.1" id="Layer_1" xmlns="http://www.w3.org/2000/svg" xmlns:xlink="http://www.w3.org/1999/xlink" x="0px" y="0px"
	 viewBox="0 0 72 72" style="enable-background:new 0 0 72 72;" xml:space="preserve">
<style type="text/css">
	.st0{fill:none;stroke:#FFFFFF;stroke-width:6;stroke-linecap:round;stroke-linejoin:round;}
</style>
<path class="st0" d="M36,3c-2.4,0-4.7,0.9-6.4,2.6C27.9,7.3,27,9.6,27,12v24c0,2.4,0.9,4.7,2.6,6.4c1.7,1.7,4,2.6,6.4,2.6
	s4.7-0.9,6.4-2.6c1.7-1.7,2.6-4,2.6-6.4V12c0-2.4-0.9-4.7-2.6-6.4C40.7,3.9,38.4,3,36,3L36,3z"/>
<path class="st0" d="M57,30v6c0,5.6-2.2,10.9-6.2,14.8C46.9,54.8,41.6,57,36,57s-10.9-2.2-14.8-6.2C17.2,46.9,15,41.6,15,36v-6"/>
<path class="st0" d="M36,57v12"/>
<path class="st0" d="M24,69h24"/>
</svg>
