<svg width="1203" height="453" viewBox="0 0 1203 453" fill="none" xmlns="http://www.w3.org/2000/svg">
<path d="M309 452.148L309 26.1484" stroke="black" stroke-opacity="0.4"/>
<path d="M520 452.148L520 26.1484" stroke="black" stroke-opacity="0.4"/>
<path d="M731 452.148L731 26.1484" stroke="black" stroke-opacity="0.4"/>
<path d="M942 452.148L942 26.1484" stroke="black" stroke-opacity="0.4"/>
<path d="M302.617 18.1484H304.435V5.78244H302.977L299.719 7.99644L300.475 9.31044L302.617 7.94244V18.1484ZM311.596 18.3644C314.674 18.3644 316.852 15.7184 316.852 11.9564C316.852 8.21244 314.674 5.56644 311.596 5.56644C308.482 5.56644 306.304 8.21244 306.304 11.9564C306.304 15.7184 308.482 18.3644 311.596 18.3644ZM311.596 16.6904C309.58 16.6904 308.158 14.7284 308.158 11.9564C308.158 9.18444 309.58 7.24044 311.596 7.24044C313.594 7.24044 314.998 9.18444 314.998 11.9564C314.998 14.7284 313.594 16.6904 311.596 16.6904Z" fill="black" fill-opacity="0.7"/>
<path d="M727.609 18.3644C730.291 18.3644 732.055 16.8524 732.055 14.7644C732.055 13.0364 730.705 12.1004 729.427 11.8124C730.723 11.4164 731.785 10.4624 731.785 8.93244C731.785 6.95244 730.057 5.56644 727.555 5.56644C725.539 5.56644 724.135 6.50244 723.181 7.74444L724.315 8.86044C725.179 7.85244 726.133 7.20444 727.429 7.20444C728.869 7.20444 729.949 8.03244 729.949 9.18444C729.949 10.4264 728.851 11.1104 727.285 11.1104L725.935 11.0924V12.7124H727.285C729.121 12.6944 730.201 13.3604 730.201 14.6384C730.201 15.8804 729.175 16.7264 727.573 16.7264C726.151 16.7264 724.945 16.0604 724.117 15.0524L722.947 16.2584C723.901 17.4464 725.503 18.3644 727.609 18.3644ZM738.512 18.3644C741.59 18.3644 743.768 15.7184 743.768 11.9564C743.768 8.21244 741.59 5.56644 738.512 5.56644C735.398 5.56644 733.22 8.21244 733.22 11.9564C733.22 15.7184 735.398 18.3644 738.512 18.3644ZM738.512 16.6904C736.496 16.6904 735.074 14.7284 735.074 11.9564C735.074 9.18444 736.496 7.24044 738.512 7.24044C740.51 7.24044 741.914 9.18444 741.914 11.9564C741.914 14.7284 740.51 16.6904 738.512 16.6904Z" fill="black" fill-opacity="0.7"/>
<path d="M513.196 18.1484H521.998V16.4564H516.076L518.974 14.0084C521.098 12.2804 521.89 10.9664 521.89 9.31044C521.89 7.06044 520.054 5.56644 517.75 5.56644C515.788 5.56644 514.33 6.46644 513.25 7.96044L514.474 9.04044C515.338 7.92444 516.328 7.20444 517.678 7.20444C518.902 7.20444 520.018 7.99644 520.018 9.34644C520.018 10.4624 519.388 11.5244 517.732 12.9104L513.196 16.6544V18.1484ZM528.389 18.3644C531.467 18.3644 533.645 15.7184 533.645 11.9564C533.645 8.21244 531.467 5.56644 528.389 5.56644C525.275 5.56644 523.097 8.21244 523.097 11.9564C523.097 15.7184 525.275 18.3644 528.389 18.3644ZM528.389 16.6904C526.373 16.6904 524.951 14.7284 524.951 11.9564C524.951 9.18444 526.373 7.24044 528.389 7.24044C530.387 7.24044 531.791 9.18444 531.791 11.9564C531.791 14.7284 530.387 16.6904 528.389 16.6904Z" fill="black" fill-opacity="0.7"/>
<path d="M937.133 18.1484H938.951V15.3044H940.733V13.7024H938.951V5.78244H936.791L930.797 13.8464L930.995 15.3044H937.133V18.1484ZM932.795 13.7024L937.133 7.85244V13.7024H932.795ZM946.644 18.3644C949.722 18.3644 951.9 15.7184 951.9 11.9564C951.9 8.21244 949.722 5.56644 946.644 5.56644C943.53 5.56644 941.352 8.21244 941.352 11.9564C941.352 15.7184 943.53 18.3644 946.644 18.3644ZM946.644 16.6904C944.628 16.6904 943.206 14.7284 943.206 11.9564C943.206 9.18444 944.628 7.24044 946.644 7.24044C948.642 7.24044 950.046 9.18444 950.046 11.9564C950.046 14.7284 948.642 16.6904 946.644 16.6904Z" fill="black" fill-opacity="0.7"/>
<g clip-path="url(#clip0_2099_6158)">
<path d="M995 430.307V389.681V387.817H985.851H107.149H98V389.681V430.307V432.148H107.149H985.851H995V430.307Z" fill="#5C2CFF"/>
<path d="M995 430.307V389.681V387.817H985.851H107.149H98V389.681V430.307V432.148H107.149H985.851H995V430.307Z" fill="black" fill-opacity="0.2"/>
<path d="M843.992 361.969V321.343V319.501H834.843H107.149H98V321.343V361.969V363.81H107.149H834.843H843.992V361.969Z" fill="#5C2CFF"/>
<path d="M843.992 361.969V321.343V319.501H834.843H107.149H98V321.343V361.969V363.81H107.149H834.843H843.992V361.969Z" fill="black" fill-opacity="0.2"/>
<path d="M372.594 293.631V253.005V251.163H363.445H107.149H98V253.005V293.631V295.472H107.149H363.445H372.594V293.631Z" fill="#5C2CFF"/>
<path d="M372.594 293.631V253.005V251.163H363.445H107.149H98V253.005V293.631V295.472H107.149H363.445H372.594V293.631Z" fill="black" fill-opacity="0.2"/>
<path d="M482.432 225.292V184.666V182.825H473.283H107.149H98V184.666V225.292V227.134H107.149H473.283H482.432V225.292Z" fill="#5C2CFF"/>
<path d="M482.432 225.292V184.666V182.825H473.283H107.149H98V184.666V225.292V227.134H107.149H473.283H482.432V225.292Z" fill="black" fill-opacity="0.2"/>
<path d="M308.526 156.954V116.329V114.487H299.377H107.149H98V116.329V156.954V158.818H107.149H299.377H308.526V156.954Z" fill="#5C2CFF"/>
<path d="M308.526 156.954V116.329V114.487H299.377H107.149H98V116.329V156.954V158.818H107.149H299.377H308.526V156.954Z" fill="black" fill-opacity="0.2"/>
<path d="M180.366 88.6377V47.9901V46.1484H171.217H107.149H98V47.9901V88.6377V90.4794H107.149H171.217H180.366V88.6377Z" fill="#5C2CFF"/>
<path d="M180.366 88.6377V47.9901V46.1484H171.217H107.149H98V47.9901V88.6377V90.4794H107.149H171.217H180.366V88.6377Z" fill="black" fill-opacity="0.2"/>
<path d="M607.28 81.1484H609.48V73.2724H614.32V71.1604H609.48V50.9204H606.708L591.748 71.2484L592.056 73.2724H607.28V81.1484ZM594.388 71.1604L607.28 53.5604V71.1604H594.388Z" fill="#5C2CFF"/>
<path d="M607.28 81.1484H609.48V73.2724H614.32V71.1604H609.48V50.9204H606.708L591.748 71.2484L592.056 73.2724H607.28V81.1484ZM594.388 71.1604L607.28 53.5604V71.1604H594.388Z" fill="black" fill-opacity="0.2"/>
<path d="M598.744 150.148H600.944V119.92H599.184L591.352 124.98L592.408 126.696L598.744 122.692V150.148ZM620.867 150.676C627.863 150.676 632.791 144.208 632.791 135.012C632.791 125.86 627.863 119.392 620.867 119.392C613.827 119.392 608.899 125.86 608.899 135.012C608.899 144.208 613.827 150.676 620.867 150.676ZM620.867 148.564C615.147 148.564 611.143 142.932 611.143 135.012C611.143 127.092 615.147 121.504 620.867 121.504C626.543 121.504 630.547 127.092 630.547 135.012C630.547 142.932 626.543 148.564 620.867 148.564Z" fill="#5C2CFF"/>
<path d="M598.744 150.148H600.944V119.92H599.184L591.352 124.98L592.408 126.696L598.744 122.692V150.148ZM620.867 150.676C627.863 150.676 632.791 144.208 632.791 135.012C632.791 125.86 627.863 119.392 620.867 119.392C613.827 119.392 608.899 125.86 608.899 135.012C608.899 144.208 613.827 150.676 620.867 150.676ZM620.867 148.564C615.147 148.564 611.143 142.932 611.143 135.012C611.143 127.092 615.147 121.504 620.867 121.504C626.543 121.504 630.547 127.092 630.547 135.012C630.547 142.932 626.543 148.564 620.867 148.564Z" fill="black" fill-opacity="0.2"/>
<path d="M598.744 218.148H600.944V187.92H599.184L591.352 192.98L592.408 194.696L598.744 190.692V218.148ZM619.371 218.676C625.091 218.676 629.799 215.068 629.799 210.316C629.799 206.752 626.983 203.716 623.155 202.572C626.499 201.428 629.051 198.656 629.051 195.312C629.051 190.824 624.563 187.392 619.371 187.392C614.223 187.392 609.735 190.78 609.735 195.312C609.735 198.568 612.199 201.34 615.587 202.572C611.759 203.672 608.943 206.752 608.943 210.316C608.943 215.024 613.651 218.676 619.371 218.676ZM619.371 201.56C615.367 201.296 611.979 199.008 611.979 195.532C611.979 192.188 615.323 189.504 619.371 189.504C623.419 189.504 626.807 192.188 626.807 195.532C626.807 198.964 623.375 201.296 619.371 201.56ZM619.371 216.564C614.883 216.564 611.187 213.748 611.187 210.184C611.187 206.444 615.015 203.892 619.371 203.76C623.771 203.892 627.555 206.444 627.555 210.184C627.555 213.748 623.815 216.564 619.371 216.564Z" fill="#5C2CFF"/>
<path d="M598.744 218.148H600.944V187.92H599.184L591.352 192.98L592.408 194.696L598.744 190.692V218.148ZM619.371 218.676C625.091 218.676 629.799 215.068 629.799 210.316C629.799 206.752 626.983 203.716 623.155 202.572C626.499 201.428 629.051 198.656 629.051 195.312C629.051 190.824 624.563 187.392 619.371 187.392C614.223 187.392 609.735 190.78 609.735 195.312C609.735 198.568 612.199 201.34 615.587 202.572C611.759 203.672 608.943 206.752 608.943 210.316C608.943 215.024 613.651 218.676 619.371 218.676ZM619.371 201.56C615.367 201.296 611.979 199.008 611.979 195.532C611.979 192.188 615.323 189.504 619.371 189.504C623.419 189.504 626.807 192.188 626.807 195.532C626.807 198.964 623.375 201.296 619.371 201.56ZM619.371 216.564C614.883 216.564 611.187 213.748 611.187 210.184C611.187 206.444 615.015 203.892 619.371 203.76C623.771 203.892 627.555 206.444 627.555 210.184C627.555 213.748 623.815 216.564 619.371 216.564Z" fill="black" fill-opacity="0.2"/>
<path d="M598.744 287.148H600.944V256.92H599.184L591.352 261.98L592.408 263.696L598.744 259.692V287.148ZM617.963 287.676C623.507 287.676 627.863 283.804 627.863 278.92C627.863 275.004 625.311 272.408 621.967 271.66C625.047 270.736 627.203 268.228 627.203 264.62C627.203 260.044 623.023 256.392 617.831 256.392C613.739 256.392 610.483 258.416 607.799 262.024L609.339 263.388C611.715 260.176 614.399 258.504 617.655 258.504C621.659 258.504 624.959 261.32 624.959 264.884C624.959 268.624 621.967 270.824 617.259 270.78H614.311V272.892H617.215C622.451 272.892 625.619 275.004 625.619 278.832C625.619 282.616 622.275 285.564 617.963 285.564C614.179 285.564 611.143 283.804 608.943 280.592L607.403 282.088C610.087 285.652 613.607 287.676 617.963 287.676Z" fill="#5C2CFF"/>
<path d="M598.744 287.148H600.944V256.92H599.184L591.352 261.98L592.408 263.696L598.744 259.692V287.148ZM617.963 287.676C623.507 287.676 627.863 283.804 627.863 278.92C627.863 275.004 625.311 272.408 621.967 271.66C625.047 270.736 627.203 268.228 627.203 264.62C627.203 260.044 623.023 256.392 617.831 256.392C613.739 256.392 610.483 258.416 607.799 262.024L609.339 263.388C611.715 260.176 614.399 258.504 617.655 258.504C621.659 258.504 624.959 261.32 624.959 264.884C624.959 268.624 621.967 270.824 617.259 270.78H614.311V272.892H617.215C622.451 272.892 625.619 275.004 625.619 278.832C625.619 282.616 622.275 285.564 617.963 285.564C614.179 285.564 611.143 283.804 608.943 280.592L607.403 282.088C610.087 285.652 613.607 287.676 617.963 287.676Z" fill="black" fill-opacity="0.2"/>
<line x1="179" y1="67.6484" x2="580" y2="67.6484" stroke="black" stroke-dasharray="2 2"/>
<ellipse rx="7.07907" ry="7.07143" transform="matrix(0 1 1 0 179.071 68.2275)" fill="#8CEDC8"/>
<line x1="308" y1="136.648" x2="580" y2="136.648" stroke="black" stroke-dasharray="2 2"/>
<circle r="7.08" transform="matrix(0 1 1 0 310.08 137.228)" fill="#8CEDC8"/>
<line x1="482" y1="204.648" x2="580" y2="204.648" stroke="black" stroke-dasharray="2 2"/>
<line x1="371" y1="273.648" x2="580" y2="273.648" stroke="black" stroke-dasharray="2 2"/>
<circle r="7.08" transform="matrix(0 1 1 0 482.08 204.228)" fill="#8CEDC8"/>
<circle r="7.08" transform="matrix(0 1 1 0 373.08 273.228)" fill="#8CEDC8"/>
</g>
<path d="M0.836 73.1484H11.946V70.6404H5.104L8.272 68.0884C10.868 66.0864 11.792 64.4804 11.792 62.4784C11.792 59.6844 9.504 57.7704 6.512 57.7704C4.07 57.7704 2.244 58.8484 0.814 60.7184L2.596 62.3684C3.696 61.0484 4.84 60.2344 6.424 60.2344C7.788 60.2344 8.998 61.1144 8.998 62.5444C8.998 63.7764 8.316 64.9204 6.402 66.4604L0.836 70.9044V73.1484ZM19.75 73.4124C23.622 73.4124 26.372 70.1784 26.372 65.5804C26.372 61.0044 23.622 57.7704 19.75 57.7704C15.856 57.7704 13.128 61.0044 13.128 65.5804C13.128 70.1784 15.856 73.4124 19.75 73.4124ZM19.75 70.9044C17.506 70.9044 15.922 68.7044 15.922 65.5804C15.922 62.4564 17.506 60.2784 19.75 60.2784C21.994 60.2784 23.556 62.4564 23.556 65.5804C23.556 68.7044 21.994 70.9044 19.75 70.9044ZM30.5972 73.1484H33.3472V58.0344H31.1472L26.9012 60.9164L28.0012 62.8524L30.5972 61.2024V73.1484ZM42.1967 63.4904C40.6567 63.4904 39.2267 64.1284 38.2807 65.1844C38.4787 62.2364 39.9747 60.1904 42.1087 60.1904C43.4287 60.1904 44.3747 60.7404 45.2987 61.5544L46.6407 59.4644C45.4307 58.4304 44.0007 57.7704 42.1087 57.7704C38.1927 57.7704 35.4427 61.1804 35.4427 65.8444C35.4427 70.2004 37.3347 73.4124 41.6467 73.4124C44.9027 73.4124 47.2787 71.2564 47.2787 68.2644C47.2787 65.2504 44.9687 63.4904 42.1967 63.4904ZM41.5147 71.0804C39.6887 71.0804 38.7427 69.8264 38.4127 67.8024C38.8527 66.5484 39.9967 65.7344 41.4707 65.7344C43.1207 65.7344 44.4847 66.7244 44.4847 68.3744C44.4847 69.7604 43.3627 71.0804 41.5147 71.0804Z" fill="#5C2CFF"/>
<path d="M0.836 73.1484H11.946V70.6404H5.104L8.272 68.0884C10.868 66.0864 11.792 64.4804 11.792 62.4784C11.792 59.6844 9.504 57.7704 6.512 57.7704C4.07 57.7704 2.244 58.8484 0.814 60.7184L2.596 62.3684C3.696 61.0484 4.84 60.2344 6.424 60.2344C7.788 60.2344 8.998 61.1144 8.998 62.5444C8.998 63.7764 8.316 64.9204 6.402 66.4604L0.836 70.9044V73.1484ZM19.75 73.4124C23.622 73.4124 26.372 70.1784 26.372 65.5804C26.372 61.0044 23.622 57.7704 19.75 57.7704C15.856 57.7704 13.128 61.0044 13.128 65.5804C13.128 70.1784 15.856 73.4124 19.75 73.4124ZM19.75 70.9044C17.506 70.9044 15.922 68.7044 15.922 65.5804C15.922 62.4564 17.506 60.2784 19.75 60.2784C21.994 60.2784 23.556 62.4564 23.556 65.5804C23.556 68.7044 21.994 70.9044 19.75 70.9044ZM30.5972 73.1484H33.3472V58.0344H31.1472L26.9012 60.9164L28.0012 62.8524L30.5972 61.2024V73.1484ZM42.1967 63.4904C40.6567 63.4904 39.2267 64.1284 38.2807 65.1844C38.4787 62.2364 39.9747 60.1904 42.1087 60.1904C43.4287 60.1904 44.3747 60.7404 45.2987 61.5544L46.6407 59.4644C45.4307 58.4304 44.0007 57.7704 42.1087 57.7704C38.1927 57.7704 35.4427 61.1804 35.4427 65.8444C35.4427 70.2004 37.3347 73.4124 41.6467 73.4124C44.9027 73.4124 47.2787 71.2564 47.2787 68.2644C47.2787 65.2504 44.9687 63.4904 42.1967 63.4904ZM41.5147 71.0804C39.6887 71.0804 38.7427 69.8264 38.4127 67.8024C38.8527 66.5484 39.9967 65.7344 41.4707 65.7344C43.1207 65.7344 44.4847 66.7244 44.4847 68.3744C44.4847 69.7604 43.3627 71.0804 41.5147 71.0804Z" fill="black" fill-opacity="0.2"/>
<path d="M0.836 142.148H11.946V139.64H5.104L8.272 137.088C10.868 135.086 11.792 133.48 11.792 131.478C11.792 128.684 9.504 126.77 6.512 126.77C4.07 126.77 2.244 127.848 0.814 129.718L2.596 131.368C3.696 130.048 4.84 129.234 6.424 129.234C7.788 129.234 8.998 130.114 8.998 131.544C8.998 132.776 8.316 133.92 6.402 135.46L0.836 139.904V142.148ZM19.75 142.412C23.622 142.412 26.372 139.178 26.372 134.58C26.372 130.004 23.622 126.77 19.75 126.77C15.856 126.77 13.128 130.004 13.128 134.58C13.128 139.178 15.856 142.412 19.75 142.412ZM19.75 139.904C17.506 139.904 15.922 137.704 15.922 134.58C15.922 131.456 17.506 129.278 19.75 129.278C21.994 129.278 23.556 131.456 23.556 134.58C23.556 137.704 21.994 139.904 19.75 139.904ZM30.5972 142.148H33.3472V127.034H31.1472L26.9012 129.916L28.0012 131.852L30.5972 130.202V142.148ZM36.3887 142.148H39.5127L45.7387 129.102V127.034H34.8267V129.542H42.5487L36.3887 142.148Z" fill="#5C2CFF"/>
<path d="M0.836 142.148H11.946V139.64H5.104L8.272 137.088C10.868 135.086 11.792 133.48 11.792 131.478C11.792 128.684 9.504 126.77 6.512 126.77C4.07 126.77 2.244 127.848 0.814 129.718L2.596 131.368C3.696 130.048 4.84 129.234 6.424 129.234C7.788 129.234 8.998 130.114 8.998 131.544C8.998 132.776 8.316 133.92 6.402 135.46L0.836 139.904V142.148ZM19.75 142.412C23.622 142.412 26.372 139.178 26.372 134.58C26.372 130.004 23.622 126.77 19.75 126.77C15.856 126.77 13.128 130.004 13.128 134.58C13.128 139.178 15.856 142.412 19.75 142.412ZM19.75 139.904C17.506 139.904 15.922 137.704 15.922 134.58C15.922 131.456 17.506 129.278 19.75 129.278C21.994 129.278 23.556 131.456 23.556 134.58C23.556 137.704 21.994 139.904 19.75 139.904ZM30.5972 142.148H33.3472V127.034H31.1472L26.9012 129.916L28.0012 131.852L30.5972 130.202V142.148ZM36.3887 142.148H39.5127L45.7387 129.102V127.034H34.8267V129.542H42.5487L36.3887 142.148Z" fill="black" fill-opacity="0.2"/>
<path d="M0.836 210.148H11.946V207.64H5.104L8.272 205.088C10.868 203.086 11.792 201.48 11.792 199.478C11.792 196.684 9.504 194.77 6.512 194.77C4.07 194.77 2.244 195.848 0.814 197.718L2.596 199.368C3.696 198.048 4.84 197.234 6.424 197.234C7.788 197.234 8.998 198.114 8.998 199.544C8.998 200.776 8.316 201.92 6.402 203.46L0.836 207.904V210.148ZM19.75 210.412C23.622 210.412 26.372 207.178 26.372 202.58C26.372 198.004 23.622 194.77 19.75 194.77C15.856 194.77 13.128 198.004 13.128 202.58C13.128 207.178 15.856 210.412 19.75 210.412ZM19.75 207.904C17.506 207.904 15.922 205.704 15.922 202.58C15.922 199.456 17.506 197.278 19.75 197.278C21.994 197.278 23.556 199.456 23.556 202.58C23.556 205.704 21.994 207.904 19.75 207.904ZM30.5972 210.148H33.3472V195.034H31.1472L26.9012 197.916L28.0012 199.852L30.5972 198.202V210.148ZM41.2507 210.412C44.5067 210.412 47.1467 208.828 47.1467 206.122C47.1467 204.34 45.8487 203.02 44.0667 202.338C45.5847 201.722 46.7507 200.6 46.7507 198.84C46.7507 196.288 44.1767 194.77 41.2507 194.77C38.4127 194.77 35.7727 196.244 35.7727 198.84C35.7727 200.556 36.8947 201.678 38.4567 202.338C36.6967 202.976 35.3767 204.296 35.3767 206.122C35.3767 208.806 37.9727 210.412 41.2507 210.412ZM41.2507 201.348C39.9967 201.282 38.4787 200.534 38.4787 199.192C38.4787 198.004 39.6667 197.102 41.2507 197.102C42.8347 197.102 44.0447 198.004 44.0447 199.192C44.0447 200.512 42.5487 201.282 41.2507 201.348ZM41.2507 208.058C39.4687 208.058 38.1267 207.178 38.1267 205.858C38.1267 204.45 39.8647 203.614 41.2507 203.548C42.6587 203.614 44.3747 204.45 44.3747 205.858C44.3747 207.178 43.0107 208.058 41.2507 208.058Z" fill="#5C2CFF"/>
<path d="M0.836 210.148H11.946V207.64H5.104L8.272 205.088C10.868 203.086 11.792 201.48 11.792 199.478C11.792 196.684 9.504 194.77 6.512 194.77C4.07 194.77 2.244 195.848 0.814 197.718L2.596 199.368C3.696 198.048 4.84 197.234 6.424 197.234C7.788 197.234 8.998 198.114 8.998 199.544C8.998 200.776 8.316 201.92 6.402 203.46L0.836 207.904V210.148ZM19.75 210.412C23.622 210.412 26.372 207.178 26.372 202.58C26.372 198.004 23.622 194.77 19.75 194.77C15.856 194.77 13.128 198.004 13.128 202.58C13.128 207.178 15.856 210.412 19.75 210.412ZM19.75 207.904C17.506 207.904 15.922 205.704 15.922 202.58C15.922 199.456 17.506 197.278 19.75 197.278C21.994 197.278 23.556 199.456 23.556 202.58C23.556 205.704 21.994 207.904 19.75 207.904ZM30.5972 210.148H33.3472V195.034H31.1472L26.9012 197.916L28.0012 199.852L30.5972 198.202V210.148ZM41.2507 210.412C44.5067 210.412 47.1467 208.828 47.1467 206.122C47.1467 204.34 45.8487 203.02 44.0667 202.338C45.5847 201.722 46.7507 200.6 46.7507 198.84C46.7507 196.288 44.1767 194.77 41.2507 194.77C38.4127 194.77 35.7727 196.244 35.7727 198.84C35.7727 200.556 36.8947 201.678 38.4567 202.338C36.6967 202.976 35.3767 204.296 35.3767 206.122C35.3767 208.806 37.9727 210.412 41.2507 210.412ZM41.2507 201.348C39.9967 201.282 38.4787 200.534 38.4787 199.192C38.4787 198.004 39.6667 197.102 41.2507 197.102C42.8347 197.102 44.0447 198.004 44.0447 199.192C44.0447 200.512 42.5487 201.282 41.2507 201.348ZM41.2507 208.058C39.4687 208.058 38.1267 207.178 38.1267 205.858C38.1267 204.45 39.8647 203.614 41.2507 203.548C42.6587 203.614 44.3747 204.45 44.3747 205.858C44.3747 207.178 43.0107 208.058 41.2507 208.058Z" fill="black" fill-opacity="0.2"/>
<path d="M0.836 279.148H11.946V276.64H5.104L8.272 274.088C10.868 272.086 11.792 270.48 11.792 268.478C11.792 265.684 9.504 263.77 6.512 263.77C4.07 263.77 2.244 264.848 0.814 266.718L2.596 268.368C3.696 267.048 4.84 266.234 6.424 266.234C7.788 266.234 8.998 267.114 8.998 268.544C8.998 269.776 8.316 270.92 6.402 272.46L0.836 276.904V279.148ZM19.75 279.412C23.622 279.412 26.372 276.178 26.372 271.58C26.372 267.004 23.622 263.77 19.75 263.77C15.856 263.77 13.128 267.004 13.128 271.58C13.128 276.178 15.856 279.412 19.75 279.412ZM19.75 276.904C17.506 276.904 15.922 274.704 15.922 271.58C15.922 268.456 17.506 266.278 19.75 266.278C21.994 266.278 23.556 268.456 23.556 271.58C23.556 274.704 21.994 276.904 19.75 276.904ZM30.5972 279.148H33.3472V264.034H31.1472L26.9012 266.916L28.0012 268.852L30.5972 267.202V279.148ZM40.8547 263.77C37.5987 263.77 35.2227 265.926 35.2227 268.918C35.2227 271.932 37.5327 273.692 40.3047 273.692C41.8447 273.692 43.2747 273.054 44.2207 271.998C44.0227 274.946 42.5267 276.992 40.3927 276.992C39.0727 276.992 38.1267 276.442 37.2027 275.628L35.8607 277.718C37.0707 278.752 38.5007 279.412 40.3927 279.412C44.3087 279.412 47.0587 276.002 47.0587 271.338C47.0587 266.982 45.1667 263.77 40.8547 263.77ZM41.0307 271.448C39.3807 271.448 38.0167 270.458 38.0167 268.808C38.0167 267.422 39.1387 266.102 40.9867 266.102C42.8127 266.102 43.7587 267.356 44.0887 269.38C43.6487 270.634 42.5047 271.448 41.0307 271.448Z" fill="#5C2CFF"/>
<path d="M0.836 279.148H11.946V276.64H5.104L8.272 274.088C10.868 272.086 11.792 270.48 11.792 268.478C11.792 265.684 9.504 263.77 6.512 263.77C4.07 263.77 2.244 264.848 0.814 266.718L2.596 268.368C3.696 267.048 4.84 266.234 6.424 266.234C7.788 266.234 8.998 267.114 8.998 268.544C8.998 269.776 8.316 270.92 6.402 272.46L0.836 276.904V279.148ZM19.75 279.412C23.622 279.412 26.372 276.178 26.372 271.58C26.372 267.004 23.622 263.77 19.75 263.77C15.856 263.77 13.128 267.004 13.128 271.58C13.128 276.178 15.856 279.412 19.75 279.412ZM19.75 276.904C17.506 276.904 15.922 274.704 15.922 271.58C15.922 268.456 17.506 266.278 19.75 266.278C21.994 266.278 23.556 268.456 23.556 271.58C23.556 274.704 21.994 276.904 19.75 276.904ZM30.5972 279.148H33.3472V264.034H31.1472L26.9012 266.916L28.0012 268.852L30.5972 267.202V279.148ZM40.8547 263.77C37.5987 263.77 35.2227 265.926 35.2227 268.918C35.2227 271.932 37.5327 273.692 40.3047 273.692C41.8447 273.692 43.2747 273.054 44.2207 271.998C44.0227 274.946 42.5267 276.992 40.3927 276.992C39.0727 276.992 38.1267 276.442 37.2027 275.628L35.8607 277.718C37.0707 278.752 38.5007 279.412 40.3927 279.412C44.3087 279.412 47.0587 276.002 47.0587 271.338C47.0587 266.982 45.1667 263.77 40.8547 263.77ZM41.0307 271.448C39.3807 271.448 38.0167 270.458 38.0167 268.808C38.0167 267.422 39.1387 266.102 40.9867 266.102C42.8127 266.102 43.7587 267.356 44.0887 269.38C43.6487 270.634 42.5047 271.448 41.0307 271.448Z" fill="black" fill-opacity="0.2"/>
<path d="M0.836 347.148H11.946V344.64H5.104L8.272 342.088C10.868 340.086 11.792 338.48 11.792 336.478C11.792 333.684 9.504 331.77 6.512 331.77C4.07 331.77 2.244 332.848 0.814 334.718L2.596 336.368C3.696 335.048 4.84 334.234 6.424 334.234C7.788 334.234 8.998 335.114 8.998 336.544C8.998 337.776 8.316 338.92 6.402 340.46L0.836 344.904V347.148ZM19.75 347.412C23.622 347.412 26.372 344.178 26.372 339.58C26.372 335.004 23.622 331.77 19.75 331.77C15.856 331.77 13.128 335.004 13.128 339.58C13.128 344.178 15.856 347.412 19.75 347.412ZM19.75 344.904C17.506 344.904 15.922 342.704 15.922 339.58C15.922 336.456 17.506 334.278 19.75 334.278C21.994 334.278 23.556 336.456 23.556 339.58C23.556 342.704 21.994 344.904 19.75 344.904ZM27.2532 347.148H38.3632V344.64H31.5212L34.6892 342.088C37.2852 340.086 38.2092 338.48 38.2092 336.478C38.2092 333.684 35.9212 331.77 32.9292 331.77C30.4872 331.77 28.6612 332.848 27.2312 334.718L29.0132 336.368C30.1132 335.048 31.2572 334.234 32.8412 334.234C34.2052 334.234 35.4152 335.114 35.4152 336.544C35.4152 337.776 34.7332 338.92 32.8192 340.46L27.2532 344.904V347.148ZM46.1672 347.412C50.0392 347.412 52.7892 344.178 52.7892 339.58C52.7892 335.004 50.0392 331.77 46.1672 331.77C42.2732 331.77 39.5452 335.004 39.5452 339.58C39.5452 344.178 42.2732 347.412 46.1672 347.412ZM46.1672 344.904C43.9232 344.904 42.3392 342.704 42.3392 339.58C42.3392 336.456 43.9232 334.278 46.1672 334.278C48.4112 334.278 49.9732 336.456 49.9732 339.58C49.9732 342.704 48.4112 344.904 46.1672 344.904Z" fill="#5C2CFF"/>
<path d="M0.836 347.148H11.946V344.64H5.104L8.272 342.088C10.868 340.086 11.792 338.48 11.792 336.478C11.792 333.684 9.504 331.77 6.512 331.77C4.07 331.77 2.244 332.848 0.814 334.718L2.596 336.368C3.696 335.048 4.84 334.234 6.424 334.234C7.788 334.234 8.998 335.114 8.998 336.544C8.998 337.776 8.316 338.92 6.402 340.46L0.836 344.904V347.148ZM19.75 347.412C23.622 347.412 26.372 344.178 26.372 339.58C26.372 335.004 23.622 331.77 19.75 331.77C15.856 331.77 13.128 335.004 13.128 339.58C13.128 344.178 15.856 347.412 19.75 347.412ZM19.75 344.904C17.506 344.904 15.922 342.704 15.922 339.58C15.922 336.456 17.506 334.278 19.75 334.278C21.994 334.278 23.556 336.456 23.556 339.58C23.556 342.704 21.994 344.904 19.75 344.904ZM27.2532 347.148H38.3632V344.64H31.5212L34.6892 342.088C37.2852 340.086 38.2092 338.48 38.2092 336.478C38.2092 333.684 35.9212 331.77 32.9292 331.77C30.4872 331.77 28.6612 332.848 27.2312 334.718L29.0132 336.368C30.1132 335.048 31.2572 334.234 32.8412 334.234C34.2052 334.234 35.4152 335.114 35.4152 336.544C35.4152 337.776 34.7332 338.92 32.8192 340.46L27.2532 344.904V347.148ZM46.1672 347.412C50.0392 347.412 52.7892 344.178 52.7892 339.58C52.7892 335.004 50.0392 331.77 46.1672 331.77C42.2732 331.77 39.5452 335.004 39.5452 339.58C39.5452 344.178 42.2732 347.412 46.1672 347.412ZM46.1672 344.904C43.9232 344.904 42.3392 342.704 42.3392 339.58C42.3392 336.456 43.9232 334.278 46.1672 334.278C48.4112 334.278 49.9732 336.456 49.9732 339.58C49.9732 342.704 48.4112 344.904 46.1672 344.904Z" fill="black" fill-opacity="0.2"/>
<path d="M0.836 415.148H11.946V412.64H5.104L8.272 410.088C10.868 408.086 11.792 406.48 11.792 404.478C11.792 401.684 9.504 399.77 6.512 399.77C4.07 399.77 2.244 400.848 0.814 402.718L2.596 404.368C3.696 403.048 4.84 402.234 6.424 402.234C7.788 402.234 8.998 403.114 8.998 404.544C8.998 405.776 8.316 406.92 6.402 408.46L0.836 412.904V415.148ZM19.75 415.412C23.622 415.412 26.372 412.178 26.372 407.58C26.372 403.004 23.622 399.77 19.75 399.77C15.856 399.77 13.128 403.004 13.128 407.58C13.128 412.178 15.856 415.412 19.75 415.412ZM19.75 412.904C17.506 412.904 15.922 410.704 15.922 407.58C15.922 404.456 17.506 402.278 19.75 402.278C21.994 402.278 23.556 404.456 23.556 407.58C23.556 410.704 21.994 412.904 19.75 412.904ZM27.2532 415.148H38.3632V412.64H31.5212L34.6892 410.088C37.2852 408.086 38.2092 406.48 38.2092 404.478C38.2092 401.684 35.9212 399.77 32.9292 399.77C30.4872 399.77 28.6612 400.848 27.2312 402.718L29.0132 404.368C30.1132 403.048 31.2572 402.234 32.8412 402.234C34.2052 402.234 35.4152 403.114 35.4152 404.544C35.4152 405.776 34.7332 406.92 32.8192 408.46L27.2532 412.904V415.148ZM42.5812 415.148H45.3312V400.034H43.1312L38.8852 402.916L39.9852 404.852L42.5812 403.202V415.148Z" fill="#5C2CFF"/>
<path d="M0.836 415.148H11.946V412.64H5.104L8.272 410.088C10.868 408.086 11.792 406.48 11.792 404.478C11.792 401.684 9.504 399.77 6.512 399.77C4.07 399.77 2.244 400.848 0.814 402.718L2.596 404.368C3.696 403.048 4.84 402.234 6.424 402.234C7.788 402.234 8.998 403.114 8.998 404.544C8.998 405.776 8.316 406.92 6.402 408.46L0.836 412.904V415.148ZM19.75 415.412C23.622 415.412 26.372 412.178 26.372 407.58C26.372 403.004 23.622 399.77 19.75 399.77C15.856 399.77 13.128 403.004 13.128 407.58C13.128 412.178 15.856 415.412 19.75 415.412ZM19.75 412.904C17.506 412.904 15.922 410.704 15.922 407.58C15.922 404.456 17.506 402.278 19.75 402.278C21.994 402.278 23.556 404.456 23.556 407.58C23.556 410.704 21.994 412.904 19.75 412.904ZM27.2532 415.148H38.3632V412.64H31.5212L34.6892 410.088C37.2852 408.086 38.2092 406.48 38.2092 404.478C38.2092 401.684 35.9212 399.77 32.9292 399.77C30.4872 399.77 28.6612 400.848 27.2312 402.718L29.0132 404.368C30.1132 403.048 31.2572 402.234 32.8412 402.234C34.2052 402.234 35.4152 403.114 35.4152 404.544C35.4152 405.776 34.7332 406.92 32.8192 408.46L27.2532 412.904V415.148ZM42.5812 415.148H45.3312V400.034H43.1312L38.8852 402.916L39.9852 404.852L42.5812 403.202V415.148Z" fill="black" fill-opacity="0.2"/>
<path d="M98 452.148L98 26.1484" stroke="black"/>
<path d="M1006.74 170.148H1009.7V161.268L1016.32 170.148H1019.28V156.408H1016.32V165.288L1009.7 156.408H1006.74V170.148ZM1033.74 159.068V156.408H1023.16V170.148H1033.74V167.488H1026.12V164.468H1033.04V161.808H1026.12V159.068H1033.74ZM1039.99 170.148H1042.97L1046.23 160.708L1049.47 170.148H1052.45L1056.61 156.408H1053.39L1050.87 165.628L1047.83 156.408H1044.61L1041.57 165.628L1039.03 156.408H1035.83L1039.99 170.148ZM1065.18 170.148H1068.14V165.688H1071.36C1074.36 165.688 1076.54 163.768 1076.54 161.048C1076.54 158.328 1074.36 156.408 1071.36 156.408H1065.18V170.148ZM1068.14 162.988V159.108H1071.06C1072.52 159.108 1073.52 159.868 1073.52 161.048C1073.52 162.228 1072.52 162.988 1071.06 162.988H1068.14ZM1090.84 161.048C1090.84 158.328 1088.66 156.408 1085.66 156.408H1079.48V170.148H1082.44V165.688H1084.22L1087.36 170.148H1090.72L1087.42 165.448C1089.48 164.848 1090.84 163.208 1090.84 161.048ZM1082.44 159.108H1085.36C1086.82 159.108 1087.82 159.868 1087.82 161.048C1087.82 162.228 1086.82 162.988 1085.36 162.988H1082.44V159.108ZM1100.46 170.388C1104.42 170.388 1107.74 167.128 1107.74 163.268C1107.74 159.408 1104.42 156.168 1100.46 156.168C1096.5 156.168 1093.14 159.408 1093.14 163.268C1093.14 167.128 1096.5 170.388 1100.46 170.388ZM1100.46 167.708C1098.14 167.708 1096.18 165.668 1096.18 163.268C1096.18 160.888 1098.14 158.848 1100.46 158.848C1102.76 158.848 1104.72 160.888 1104.72 163.268C1104.72 165.668 1102.76 167.708 1100.46 167.708ZM1114.19 170.388C1116.95 170.388 1118.91 168.428 1118.91 165.668V156.408H1115.95V165.428C1115.95 166.768 1115.09 167.708 1113.87 167.708C1112.95 167.708 1111.97 167.088 1111.53 166.188L1109.57 168.108C1110.51 169.448 1112.41 170.388 1114.19 170.388ZM1133.18 159.068V156.408H1122.6V170.148H1133.18V167.488H1125.56V164.468H1132.48V161.808H1125.56V159.068H1133.18ZM1142.93 170.388C1145.01 170.388 1146.91 169.488 1148.25 168.088L1146.11 166.168C1145.33 167.088 1144.19 167.708 1142.93 167.708C1140.61 167.708 1138.65 165.668 1138.65 163.268C1138.65 160.888 1140.61 158.848 1142.93 158.848C1144.17 158.848 1145.33 159.468 1146.11 160.388L1148.25 158.468C1146.91 157.048 1145.01 156.168 1142.93 156.168C1138.97 156.168 1135.61 159.408 1135.61 163.268C1135.61 167.128 1138.97 170.388 1142.93 170.388ZM1154.21 170.148H1157.15V159.068H1161.45V156.408H1149.93V159.068H1154.21V170.148ZM1169.29 170.388C1172.63 170.388 1174.63 168.648 1174.63 166.028C1174.63 163.488 1172.67 162.608 1169.71 161.948C1167.59 161.468 1166.75 161.148 1166.75 160.148C1166.75 159.328 1167.53 158.668 1168.77 158.668C1170.09 158.668 1171.47 159.208 1172.71 160.208L1174.25 158.068C1172.83 156.868 1171.11 156.168 1168.87 156.168C1165.85 156.168 1163.77 157.908 1163.77 160.448C1163.77 163.108 1165.85 163.928 1168.75 164.588C1170.85 165.068 1171.65 165.368 1171.65 166.348C1171.65 167.208 1170.89 167.888 1169.39 167.888C1167.65 167.888 1166.17 167.208 1164.87 166.088L1163.19 168.108C1164.79 169.588 1166.89 170.388 1169.29 170.388ZM1016.68 194.148H1020L1014.4 180.408H1011.1L1005.5 194.148H1008.8L1009.76 191.788H1015.72L1016.68 194.148ZM1010.7 189.488L1012.74 184.468L1014.78 189.488H1010.7ZM1029.15 194.388C1031.23 194.388 1033.13 193.488 1034.47 192.088L1032.33 190.168C1031.55 191.088 1030.41 191.708 1029.15 191.708C1026.83 191.708 1024.87 189.668 1024.87 187.268C1024.87 184.888 1026.83 182.848 1029.15 182.848C1030.39 182.848 1031.55 183.468 1032.33 184.388L1034.47 182.468C1033.13 181.048 1031.23 180.168 1029.15 180.168C1025.19 180.168 1021.83 183.408 1021.83 187.268C1021.83 191.128 1025.19 194.388 1029.15 194.388ZM1043.75 194.388C1045.83 194.388 1047.73 193.488 1049.07 192.088L1046.93 190.168C1046.15 191.088 1045.01 191.708 1043.75 191.708C1041.43 191.708 1039.47 189.668 1039.47 187.268C1039.47 184.888 1041.43 182.848 1043.75 182.848C1044.99 182.848 1046.15 183.468 1046.93 184.388L1049.07 182.468C1047.73 181.048 1045.83 180.168 1043.75 180.168C1039.79 180.168 1036.43 183.408 1036.43 187.268C1036.43 191.128 1039.79 194.388 1043.75 194.388ZM1062.43 183.068V180.408H1051.85V194.148H1062.43V191.488H1054.81V188.468H1061.73V185.808H1054.81V183.068H1062.43ZM1065.68 194.148H1068.64V189.688H1071.86C1074.86 189.688 1077.04 187.768 1077.04 185.048C1077.04 182.328 1074.86 180.408 1071.86 180.408H1065.68V194.148ZM1068.64 186.988V183.108H1071.56C1073.02 183.108 1074.02 183.868 1074.02 185.048C1074.02 186.228 1073.02 186.988 1071.56 186.988H1068.64ZM1083.17 194.148H1086.11V183.068H1090.41V180.408H1078.89V183.068H1083.17V194.148ZM1103.74 183.068V180.408H1093.16V194.148H1103.74V191.488H1096.12V188.468H1103.04V185.808H1096.12V183.068H1103.74ZM1107 194.148H1111.94C1116.56 194.148 1119.84 191.288 1119.84 187.268C1119.84 183.248 1116.56 180.408 1111.94 180.408H1107V194.148ZM1109.96 191.468V183.088H1112.32C1114.94 183.088 1116.8 184.828 1116.8 187.268C1116.8 189.728 1114.94 191.468 1112.32 191.468H1109.96ZM1128.74 194.148H1135.98C1138.6 194.148 1140.48 192.628 1140.48 190.428C1140.48 188.908 1139.56 187.628 1137.96 186.908C1139.18 186.268 1139.88 185.248 1139.88 183.848C1139.88 181.848 1138.16 180.408 1135.7 180.408H1128.74V194.148ZM1131.68 185.948V182.928H1134.98C1136.08 182.928 1136.86 183.568 1136.86 184.428C1136.86 185.308 1136.08 185.948 1134.98 185.948H1131.68ZM1131.68 191.628V188.268H1135.42C1136.62 188.268 1137.46 188.968 1137.46 189.948C1137.46 190.928 1136.62 191.628 1135.42 191.628H1131.68ZM1147.67 194.148H1150.65V189.188L1156.01 180.408H1152.71L1149.15 186.428L1145.73 180.408H1142.29L1147.67 189.188V194.148ZM1013.24 218.388C1015.32 218.388 1017.22 217.488 1018.56 216.088L1016.42 214.168C1015.64 215.088 1014.5 215.708 1013.24 215.708C1010.92 215.708 1008.96 213.668 1008.96 211.268C1008.96 208.888 1010.92 206.848 1013.24 206.848C1014.48 206.848 1015.64 207.468 1016.42 208.388L1018.56 206.468C1017.22 205.048 1015.32 204.168 1013.24 204.168C1009.28 204.168 1005.92 207.408 1005.92 211.268C1005.92 215.128 1009.28 218.388 1013.24 218.388ZM1021.34 218.148H1024.3V209.268L1030.92 218.148H1033.88V204.408H1030.92V213.288L1024.3 204.408H1021.34V218.148ZM1044.25 218.388C1046.33 218.388 1048.23 217.488 1049.57 216.088L1047.43 214.168C1046.65 215.088 1045.51 215.708 1044.25 215.708C1041.93 215.708 1039.97 213.668 1039.97 211.268C1039.97 208.888 1041.93 206.848 1044.25 206.848C1045.49 206.848 1046.65 207.468 1047.43 208.388L1049.57 206.468C1048.23 205.048 1046.33 204.168 1044.25 204.168C1040.29 204.168 1036.93 207.408 1036.93 211.268C1036.93 215.128 1040.29 218.388 1044.25 218.388ZM1062.93 207.068V204.408H1052.35V218.148H1055.31V212.708H1062.23V210.048H1055.31V207.068H1062.93ZM1074.91 218.148H1077.85V207.068H1082.15V204.408H1070.63V207.068H1074.91V218.148ZM1091.4 218.388C1095.36 218.388 1098.68 215.128 1098.68 211.268C1098.68 207.408 1095.36 204.168 1091.4 204.168C1087.44 204.168 1084.08 207.408 1084.08 211.268C1084.08 215.128 1087.44 218.388 1091.4 218.388ZM1091.4 215.708C1089.08 215.708 1087.12 213.668 1087.12 211.268C1087.12 208.888 1089.08 206.848 1091.4 206.848C1093.7 206.848 1095.66 208.888 1095.66 211.268C1095.66 213.668 1093.7 215.708 1091.4 215.708ZM1108.27 218.388C1110.35 218.388 1112.25 217.488 1113.59 216.088L1111.45 214.168C1110.67 215.088 1109.53 215.708 1108.27 215.708C1105.95 215.708 1103.99 213.668 1103.99 211.268C1103.99 208.888 1105.95 206.848 1108.27 206.848C1109.51 206.848 1110.67 207.468 1111.45 208.388L1113.59 206.468C1112.25 205.048 1110.35 204.168 1108.27 204.168C1104.31 204.168 1100.95 207.408 1100.95 211.268C1100.95 215.128 1104.31 218.388 1108.27 218.388ZM1121.29 218.148H1131.67V215.488H1125.85L1128.35 213.548C1130.75 211.808 1131.55 210.388 1131.55 208.548C1131.55 205.968 1129.43 204.168 1126.51 204.168C1124.29 204.168 1122.55 205.128 1121.19 206.848L1123.07 208.668C1124.07 207.528 1125.09 206.848 1126.43 206.848C1127.55 206.848 1128.51 207.528 1128.51 208.668C1128.51 209.628 1127.99 210.528 1126.35 211.828L1121.29 215.748V218.148ZM1140.24 218.388C1143.86 218.388 1146.4 215.448 1146.4 211.268C1146.4 207.108 1143.86 204.168 1140.24 204.168C1136.62 204.168 1134.06 207.108 1134.06 211.268C1134.06 215.448 1136.62 218.388 1140.24 218.388ZM1140.24 215.708C1138.4 215.708 1137.1 213.848 1137.1 211.268C1137.1 208.688 1138.4 206.848 1140.24 206.848C1142.08 206.848 1143.38 208.688 1143.38 211.268C1143.38 213.848 1142.08 215.708 1140.24 215.708ZM1148.58 218.148H1158.96V215.488H1153.14L1155.64 213.548C1158.04 211.808 1158.84 210.388 1158.84 208.548C1158.84 205.968 1156.72 204.168 1153.8 204.168C1151.58 204.168 1149.84 205.128 1148.48 206.848L1150.36 208.668C1151.36 207.528 1152.38 206.848 1153.72 206.848C1154.84 206.848 1155.8 207.528 1155.8 208.668C1155.8 209.628 1155.28 210.528 1153.64 211.828L1148.58 215.748V218.148ZM1164.37 218.148H1167.31V204.408H1164.95L1160.83 207.168L1162.03 209.248L1164.37 207.788V218.148Z" fill="#5C2CFF"/>
<path d="M1006.74 170.148H1009.7V161.268L1016.32 170.148H1019.28V156.408H1016.32V165.288L1009.7 156.408H1006.74V170.148ZM1033.74 159.068V156.408H1023.16V170.148H1033.74V167.488H1026.12V164.468H1033.04V161.808H1026.12V159.068H1033.74ZM1039.99 170.148H1042.97L1046.23 160.708L1049.47 170.148H1052.45L1056.61 156.408H1053.39L1050.87 165.628L1047.83 156.408H1044.61L1041.57 165.628L1039.03 156.408H1035.83L1039.99 170.148ZM1065.18 170.148H1068.14V165.688H1071.36C1074.36 165.688 1076.54 163.768 1076.54 161.048C1076.54 158.328 1074.36 156.408 1071.36 156.408H1065.18V170.148ZM1068.14 162.988V159.108H1071.06C1072.52 159.108 1073.52 159.868 1073.52 161.048C1073.52 162.228 1072.52 162.988 1071.06 162.988H1068.14ZM1090.84 161.048C1090.84 158.328 1088.66 156.408 1085.66 156.408H1079.48V170.148H1082.44V165.688H1084.22L1087.36 170.148H1090.72L1087.42 165.448C1089.48 164.848 1090.84 163.208 1090.84 161.048ZM1082.44 159.108H1085.36C1086.82 159.108 1087.82 159.868 1087.82 161.048C1087.82 162.228 1086.82 162.988 1085.36 162.988H1082.44V159.108ZM1100.46 170.388C1104.42 170.388 1107.74 167.128 1107.74 163.268C1107.74 159.408 1104.42 156.168 1100.46 156.168C1096.5 156.168 1093.14 159.408 1093.14 163.268C1093.14 167.128 1096.5 170.388 1100.46 170.388ZM1100.46 167.708C1098.14 167.708 1096.18 165.668 1096.18 163.268C1096.18 160.888 1098.14 158.848 1100.46 158.848C1102.76 158.848 1104.72 160.888 1104.72 163.268C1104.72 165.668 1102.76 167.708 1100.46 167.708ZM1114.19 170.388C1116.95 170.388 1118.91 168.428 1118.91 165.668V156.408H1115.95V165.428C1115.95 166.768 1115.09 167.708 1113.87 167.708C1112.95 167.708 1111.97 167.088 1111.53 166.188L1109.57 168.108C1110.51 169.448 1112.41 170.388 1114.19 170.388ZM1133.18 159.068V156.408H1122.6V170.148H1133.18V167.488H1125.56V164.468H1132.48V161.808H1125.56V159.068H1133.18ZM1142.93 170.388C1145.01 170.388 1146.91 169.488 1148.25 168.088L1146.11 166.168C1145.33 167.088 1144.19 167.708 1142.93 167.708C1140.61 167.708 1138.65 165.668 1138.65 163.268C1138.65 160.888 1140.61 158.848 1142.93 158.848C1144.17 158.848 1145.33 159.468 1146.11 160.388L1148.25 158.468C1146.91 157.048 1145.01 156.168 1142.93 156.168C1138.97 156.168 1135.61 159.408 1135.61 163.268C1135.61 167.128 1138.97 170.388 1142.93 170.388ZM1154.21 170.148H1157.15V159.068H1161.45V156.408H1149.93V159.068H1154.21V170.148ZM1169.29 170.388C1172.63 170.388 1174.63 168.648 1174.63 166.028C1174.63 163.488 1172.67 162.608 1169.71 161.948C1167.59 161.468 1166.75 161.148 1166.75 160.148C1166.75 159.328 1167.53 158.668 1168.77 158.668C1170.09 158.668 1171.47 159.208 1172.71 160.208L1174.25 158.068C1172.83 156.868 1171.11 156.168 1168.87 156.168C1165.85 156.168 1163.77 157.908 1163.77 160.448C1163.77 163.108 1165.85 163.928 1168.75 164.588C1170.85 165.068 1171.65 165.368 1171.65 166.348C1171.65 167.208 1170.89 167.888 1169.39 167.888C1167.65 167.888 1166.17 167.208 1164.87 166.088L1163.19 168.108C1164.79 169.588 1166.89 170.388 1169.29 170.388ZM1016.68 194.148H1020L1014.4 180.408H1011.1L1005.5 194.148H1008.8L1009.76 191.788H1015.72L1016.68 194.148ZM1010.7 189.488L1012.74 184.468L1014.78 189.488H1010.7ZM1029.15 194.388C1031.23 194.388 1033.13 193.488 1034.47 192.088L1032.33 190.168C1031.55 191.088 1030.41 191.708 1029.15 191.708C1026.83 191.708 1024.87 189.668 1024.87 187.268C1024.87 184.888 1026.83 182.848 1029.15 182.848C1030.39 182.848 1031.55 183.468 1032.33 184.388L1034.47 182.468C1033.13 181.048 1031.23 180.168 1029.15 180.168C1025.19 180.168 1021.83 183.408 1021.83 187.268C1021.83 191.128 1025.19 194.388 1029.15 194.388ZM1043.75 194.388C1045.83 194.388 1047.73 193.488 1049.07 192.088L1046.93 190.168C1046.15 191.088 1045.01 191.708 1043.75 191.708C1041.43 191.708 1039.47 189.668 1039.47 187.268C1039.47 184.888 1041.43 182.848 1043.75 182.848C1044.99 182.848 1046.15 183.468 1046.93 184.388L1049.07 182.468C1047.73 181.048 1045.83 180.168 1043.75 180.168C1039.79 180.168 1036.43 183.408 1036.43 187.268C1036.43 191.128 1039.79 194.388 1043.75 194.388ZM1062.43 183.068V180.408H1051.85V194.148H1062.43V191.488H1054.81V188.468H1061.73V185.808H1054.81V183.068H1062.43ZM1065.68 194.148H1068.64V189.688H1071.86C1074.86 189.688 1077.04 187.768 1077.04 185.048C1077.04 182.328 1074.86 180.408 1071.86 180.408H1065.68V194.148ZM1068.64 186.988V183.108H1071.56C1073.02 183.108 1074.02 183.868 1074.02 185.048C1074.02 186.228 1073.02 186.988 1071.56 186.988H1068.64ZM1083.17 194.148H1086.11V183.068H1090.41V180.408H1078.89V183.068H1083.17V194.148ZM1103.74 183.068V180.408H1093.16V194.148H1103.74V191.488H1096.12V188.468H1103.04V185.808H1096.12V183.068H1103.74ZM1107 194.148H1111.94C1116.56 194.148 1119.84 191.288 1119.84 187.268C1119.84 183.248 1116.56 180.408 1111.94 180.408H1107V194.148ZM1109.96 191.468V183.088H1112.32C1114.94 183.088 1116.8 184.828 1116.8 187.268C1116.8 189.728 1114.94 191.468 1112.32 191.468H1109.96ZM1128.74 194.148H1135.98C1138.6 194.148 1140.48 192.628 1140.48 190.428C1140.48 188.908 1139.56 187.628 1137.96 186.908C1139.18 186.268 1139.88 185.248 1139.88 183.848C1139.88 181.848 1138.16 180.408 1135.7 180.408H1128.74V194.148ZM1131.68 185.948V182.928H1134.98C1136.08 182.928 1136.86 183.568 1136.86 184.428C1136.86 185.308 1136.08 185.948 1134.98 185.948H1131.68ZM1131.68 191.628V188.268H1135.42C1136.62 188.268 1137.46 188.968 1137.46 189.948C1137.46 190.928 1136.62 191.628 1135.42 191.628H1131.68ZM1147.67 194.148H1150.65V189.188L1156.01 180.408H1152.71L1149.15 186.428L1145.73 180.408H1142.29L1147.67 189.188V194.148ZM1013.24 218.388C1015.32 218.388 1017.22 217.488 1018.56 216.088L1016.42 214.168C1015.64 215.088 1014.5 215.708 1013.24 215.708C1010.92 215.708 1008.96 213.668 1008.96 211.268C1008.96 208.888 1010.92 206.848 1013.24 206.848C1014.48 206.848 1015.64 207.468 1016.42 208.388L1018.56 206.468C1017.22 205.048 1015.32 204.168 1013.24 204.168C1009.28 204.168 1005.92 207.408 1005.92 211.268C1005.92 215.128 1009.28 218.388 1013.24 218.388ZM1021.34 218.148H1024.3V209.268L1030.92 218.148H1033.88V204.408H1030.92V213.288L1024.3 204.408H1021.34V218.148ZM1044.25 218.388C1046.33 218.388 1048.23 217.488 1049.57 216.088L1047.43 214.168C1046.65 215.088 1045.51 215.708 1044.25 215.708C1041.93 215.708 1039.97 213.668 1039.97 211.268C1039.97 208.888 1041.93 206.848 1044.25 206.848C1045.49 206.848 1046.65 207.468 1047.43 208.388L1049.57 206.468C1048.23 205.048 1046.33 204.168 1044.25 204.168C1040.29 204.168 1036.93 207.408 1036.93 211.268C1036.93 215.128 1040.29 218.388 1044.25 218.388ZM1062.93 207.068V204.408H1052.35V218.148H1055.31V212.708H1062.23V210.048H1055.31V207.068H1062.93ZM1074.91 218.148H1077.85V207.068H1082.15V204.408H1070.63V207.068H1074.91V218.148ZM1091.4 218.388C1095.36 218.388 1098.68 215.128 1098.68 211.268C1098.68 207.408 1095.36 204.168 1091.4 204.168C1087.44 204.168 1084.08 207.408 1084.08 211.268C1084.08 215.128 1087.44 218.388 1091.4 218.388ZM1091.4 215.708C1089.08 215.708 1087.12 213.668 1087.12 211.268C1087.12 208.888 1089.08 206.848 1091.4 206.848C1093.7 206.848 1095.66 208.888 1095.66 211.268C1095.66 213.668 1093.7 215.708 1091.4 215.708ZM1108.27 218.388C1110.35 218.388 1112.25 217.488 1113.59 216.088L1111.45 214.168C1110.67 215.088 1109.53 215.708 1108.27 215.708C1105.95 215.708 1103.99 213.668 1103.99 211.268C1103.99 208.888 1105.95 206.848 1108.27 206.848C1109.51 206.848 1110.67 207.468 1111.45 208.388L1113.59 206.468C1112.25 205.048 1110.35 204.168 1108.27 204.168C1104.31 204.168 1100.95 207.408 1100.95 211.268C1100.95 215.128 1104.31 218.388 1108.27 218.388ZM1121.29 218.148H1131.67V215.488H1125.85L1128.35 213.548C1130.75 211.808 1131.55 210.388 1131.55 208.548C1131.55 205.968 1129.43 204.168 1126.51 204.168C1124.29 204.168 1122.55 205.128 1121.19 206.848L1123.07 208.668C1124.07 207.528 1125.09 206.848 1126.43 206.848C1127.55 206.848 1128.51 207.528 1128.51 208.668C1128.51 209.628 1127.99 210.528 1126.35 211.828L1121.29 215.748V218.148ZM1140.24 218.388C1143.86 218.388 1146.4 215.448 1146.4 211.268C1146.4 207.108 1143.86 204.168 1140.24 204.168C1136.62 204.168 1134.06 207.108 1134.06 211.268C1134.06 215.448 1136.62 218.388 1140.24 218.388ZM1140.24 215.708C1138.4 215.708 1137.1 213.848 1137.1 211.268C1137.1 208.688 1138.4 206.848 1140.24 206.848C1142.08 206.848 1143.38 208.688 1143.38 211.268C1143.38 213.848 1142.08 215.708 1140.24 215.708ZM1148.58 218.148H1158.96V215.488H1153.14L1155.64 213.548C1158.04 211.808 1158.84 210.388 1158.84 208.548C1158.84 205.968 1156.72 204.168 1153.8 204.168C1151.58 204.168 1149.84 205.128 1148.48 206.848L1150.36 208.668C1151.36 207.528 1152.38 206.848 1153.72 206.848C1154.84 206.848 1155.8 207.528 1155.8 208.668C1155.8 209.628 1155.28 210.528 1153.64 211.828L1148.58 215.748V218.148ZM1164.37 218.148H1167.31V204.408H1164.95L1160.83 207.168L1162.03 209.248L1164.37 207.788V218.148Z" fill="black" fill-opacity="0.2"/>
<path d="M1004.92 357.676C1010.47 357.676 1014.82 353.804 1014.82 348.92C1014.82 345.004 1012.27 342.408 1008.93 341.66C1012.01 340.736 1014.16 338.228 1014.16 334.62C1014.16 330.044 1009.98 326.392 1004.79 326.392C1000.7 326.392 997.444 328.416 994.76 332.024L996.3 333.388C998.676 330.176 1001.36 328.504 1004.62 328.504C1008.62 328.504 1011.92 331.32 1011.92 334.884C1011.92 338.624 1008.93 340.824 1004.22 340.78H1001.27V342.892H1004.18C1009.41 342.892 1012.58 345.004 1012.58 348.832C1012.58 352.616 1009.24 355.564 1004.92 355.564C1001.14 355.564 998.104 353.804 995.904 350.592L994.364 352.088C997.048 355.652 1000.57 357.676 1004.92 357.676ZM1031.08 357.676C1036.66 357.676 1041.11 353.32 1041.11 347.732C1041.11 342.496 1036.8 338.624 1031.65 338.624C1028.88 338.624 1026.37 339.504 1024.65 340.868L1024.96 329.076H1039.83V326.92H1022.8L1022.41 342.232L1024.3 343.2C1026.37 341.616 1028.79 340.692 1031.16 340.692C1035.48 340.692 1038.91 343.86 1038.91 347.864C1038.91 352.132 1035.43 355.608 1031.12 355.608C1027.56 355.608 1024.21 353.936 1021.79 351.252L1020.34 352.88C1022.94 355.828 1026.76 357.676 1031.08 357.676Z" fill="#5C2CFF"/>
<path d="M1004.92 357.676C1010.47 357.676 1014.82 353.804 1014.82 348.92C1014.82 345.004 1012.27 342.408 1008.93 341.66C1012.01 340.736 1014.16 338.228 1014.16 334.62C1014.16 330.044 1009.98 326.392 1004.79 326.392C1000.7 326.392 997.444 328.416 994.76 332.024L996.3 333.388C998.676 330.176 1001.36 328.504 1004.62 328.504C1008.62 328.504 1011.92 331.32 1011.92 334.884C1011.92 338.624 1008.93 340.824 1004.22 340.78H1001.27V342.892H1004.18C1009.41 342.892 1012.58 345.004 1012.58 348.832C1012.58 352.616 1009.24 355.564 1004.92 355.564C1001.14 355.564 998.104 353.804 995.904 350.592L994.364 352.088C997.048 355.652 1000.57 357.676 1004.92 357.676ZM1031.08 357.676C1036.66 357.676 1041.11 353.32 1041.11 347.732C1041.11 342.496 1036.8 338.624 1031.65 338.624C1028.88 338.624 1026.37 339.504 1024.65 340.868L1024.96 329.076H1039.83V326.92H1022.8L1022.41 342.232L1024.3 343.2C1026.37 341.616 1028.79 340.692 1031.16 340.692C1035.48 340.692 1038.91 343.86 1038.91 347.864C1038.91 352.132 1035.43 355.608 1031.12 355.608C1027.56 355.608 1024.21 353.936 1021.79 351.252L1020.34 352.88C1022.94 355.828 1026.76 357.676 1031.08 357.676Z" fill="black" fill-opacity="0.2"/>
<path d="M1031.6 133.148H1035.6V118.828H1044.4V114.988H1035.6V78.1884H1030.56L1003.36 115.148L1003.92 118.828H1031.6V133.148ZM1008.16 114.988L1031.6 82.9884V114.988H1008.16ZM1049.09 133.148H1086.45V129.228H1055.09L1072.69 114.188C1081.33 106.748 1085.33 100.268 1085.33 93.3084C1085.33 84.4284 1078.29 77.2284 1068.45 77.2284C1061.17 77.2284 1054.37 80.7484 1049.57 87.7884L1052.53 90.1884C1056.77 84.2684 1062.37 80.9084 1068.45 80.9084C1076.05 80.9084 1081.33 86.6684 1081.33 93.3884C1081.33 98.8284 1077.97 104.588 1070.05 111.388L1049.09 129.308V133.148Z" fill="#5C2CFF"/>
<path d="M1031.6 133.148H1035.6V118.828H1044.4V114.988H1035.6V78.1884H1030.56L1003.36 115.148L1003.92 118.828H1031.6V133.148ZM1008.16 114.988L1031.6 82.9884V114.988H1008.16ZM1049.09 133.148H1086.45V129.228H1055.09L1072.69 114.188C1081.33 106.748 1085.33 100.268 1085.33 93.3084C1085.33 84.4284 1078.29 77.2284 1068.45 77.2284C1061.17 77.2284 1054.37 80.7484 1049.57 87.7884L1052.53 90.1884C1056.77 84.2684 1062.37 80.9084 1068.45 80.9084C1076.05 80.9084 1081.33 86.6684 1081.33 93.3884C1081.33 98.8284 1077.97 104.588 1070.05 111.388L1049.09 129.308V133.148Z" fill="black" fill-opacity="0.2"/>
<line x1="846" y1="343.648" x2="985" y2="343.648" stroke="black" stroke-dasharray="2 2"/>
<line x1="996" y1="408.648" x2="1098" y2="408.648" stroke="black" stroke-dasharray="2 2"/>
<path d="M1098 239.148L1098 409.148" stroke="black" stroke-dasharray="2 2"/>
<circle r="7.08" transform="matrix(0 1 1 0 844.08 343.228)" fill="#8CEDC8"/>
<circle r="7.08" transform="matrix(0 1 1 0 995.08 409.228)" fill="#8CEDC8"/>
<defs>
<clipPath id="clip0_2099_6158">
<rect width="897" height="386" fill="white" transform="translate(98 46.1484)"/>
</clipPath>
</defs>
</svg>
