<svg width="481" height="156" viewBox="0 0 481 156" fill="none" xmlns="http://www.w3.org/2000/svg">
<path d="M78.7343 9.38086C40.4709 9.38086 9.45081 40.1128 9.45081 78.0218C9.45081 115.932 40.4709 146.662 78.7343 146.662C117.002 146.662 148.019 115.932 148.019 78.0218C148.019 40.1153 117.002 9.38414 78.7335 9.38414L78.7343 9.38086ZM110.507 108.381C109.266 110.397 106.602 111.037 104.567 109.799C88.3 99.9546 67.8218 97.7251 43.705 103.184C41.381 103.709 39.0644 102.266 38.5349 99.9628C38.003 97.6595 39.4533 95.3644 41.7831 94.8398C68.175 88.8661 90.8134 91.4382 109.076 102.496C111.111 103.733 111.757 106.364 110.507 108.381ZM118.987 89.6906C117.424 92.2087 114.098 93.0038 111.558 91.4546C92.9347 80.1136 64.5463 76.8292 42.5186 83.4538C39.6618 84.3087 36.6445 82.7136 35.7774 79.8882C34.917 77.0579 36.5278 74.0743 39.3797 73.2136C64.5414 65.6497 95.8221 69.3136 117.209 82.3341C119.749 83.8833 120.551 87.1784 118.987 89.6915V89.6906ZM119.716 70.2284C97.3857 57.0882 60.5445 55.88 39.2249 62.2907C35.8014 63.3194 32.181 61.4046 31.1435 58.0128C30.106 54.6194 32.0371 51.0349 35.463 50.0038C59.9364 42.6431 100.621 44.0653 126.329 59.1857C129.415 60.9964 130.425 64.9366 128.596 67.9833C126.776 71.0341 122.788 72.0398 119.719 70.2284H119.716ZM197.948 72.7464C185.985 69.9202 183.859 67.9366 183.859 63.7685C183.859 59.8308 187.598 57.1808 193.166 57.1808C198.561 57.1808 203.905 59.1931 209.514 63.3357C209.68 63.4612 209.895 63.5112 210.102 63.4784C210.317 63.4472 210.499 63.3333 210.623 63.162L216.464 55.0046C216.704 54.6685 216.638 54.2054 216.315 53.9489C209.639 48.6431 202.126 46.0636 193.34 46.0636C180.425 46.0636 171.399 53.7431 171.399 64.7308C171.399 76.5136 179.184 80.6857 192.637 83.9062C204.079 86.5185 206.015 88.707 206.015 92.6185C206.015 96.9546 202.11 99.6513 195.822 99.6513C188.839 99.6513 183.139 97.3152 176.769 91.8562C176.611 91.7169 176.396 91.6595 176.198 91.6677C175.983 91.6841 175.792 91.7824 175.66 91.9382L169.107 99.6595C168.834 99.9874 168.867 100.463 169.182 100.741C176.595 107.299 185.712 110.758 195.557 110.758C209.473 110.758 218.466 103.225 218.466 91.5611C218.491 81.7193 212.542 76.2685 197.973 72.757L197.948 72.7464ZM249.955 61.0579C243.923 61.0579 238.976 63.412 234.889 68.2357V62.8062C234.889 62.3775 234.541 62.0284 234.111 62.0284H223.397C222.967 62.0284 222.619 62.3775 222.619 62.8062V123.135C222.619 123.561 222.967 123.914 223.397 123.914H234.111C234.541 123.914 234.889 123.561 234.889 123.135V104.094C238.976 108.627 243.923 110.848 249.955 110.848C261.165 110.848 272.516 102.299 272.516 85.9554C272.533 69.6087 261.182 61.0571 249.963 61.0571L249.955 61.0579ZM260.056 85.9554C260.056 94.2742 254.886 100.086 247.473 100.086C240.151 100.086 234.624 94.012 234.624 85.9554C234.624 77.898 240.151 71.8259 247.473 71.8259C254.761 71.8251 260.056 77.7661 260.056 85.9546V85.9554ZM301.597 61.0579C287.16 61.0579 275.85 72.071 275.85 86.1333C275.85 100.045 287.085 110.938 301.423 110.938C315.91 110.938 327.253 99.9628 327.253 85.9554C327.253 71.9956 315.984 61.0595 301.597 61.0595V61.0579ZM301.597 100.168C293.919 100.168 288.128 94.0529 288.128 85.9513C288.128 77.8128 293.721 71.907 301.423 71.907C309.15 71.907 314.975 78.0193 314.975 86.1292C314.975 94.2661 309.349 100.168 301.597 100.168ZM358.079 62.0284H346.289V50.089C346.289 49.6612 345.942 49.312 345.512 49.312H334.798C334.368 49.312 334.012 49.6612 334.012 50.089V62.0284H328.866C328.436 62.0284 328.088 62.3775 328.088 62.8062V71.9267C328.088 72.3546 328.436 72.7046 328.866 72.7046H334.012V96.307C334.012 105.84 338.802 110.676 348.259 110.676C352.097 110.676 355.283 109.889 358.286 108.2C358.534 108.069 358.683 107.807 358.683 107.528V98.8398C358.683 98.5775 358.542 98.3234 358.311 98.1841C358.079 98.0365 357.789 98.0284 357.549 98.1513C355.489 99.1759 353.496 99.6513 351.262 99.6513C347.828 99.6513 346.289 98.1021 346.289 94.6431V72.7087H358.079C358.509 72.7087 358.857 72.3595 358.857 71.9308V62.8112C358.873 62.3825 358.526 62.0333 358.087 62.0333L358.079 62.0284ZM399.148 62.0751V60.6087C399.148 56.2948 400.819 54.371 404.559 54.371C406.792 54.371 408.588 54.8103 410.598 55.4743C410.846 55.5513 411.103 55.5128 411.301 55.3661C411.508 55.2194 411.624 54.9841 411.624 54.7349V45.7923C411.624 45.4505 411.409 45.1481 411.07 45.0472C408.952 44.4218 406.238 43.78 402.168 43.78C392.281 43.78 387.044 49.2997 387.044 59.7366V61.9825H381.898C381.468 61.9825 381.112 62.3316 381.112 62.7595V71.9267C381.112 72.3546 381.468 72.7046 381.898 72.7046H387.044V109.102C387.044 109.537 387.4 109.881 387.83 109.881H398.536C398.974 109.881 399.322 109.537 399.322 109.102V72.7071H409.324L424.646 109.102C422.909 112.922 421.196 113.684 418.863 113.684C416.977 113.684 414.983 113.127 412.956 112.02C412.766 111.922 412.534 111.905 412.336 111.963C412.129 112.037 411.955 112.184 411.872 112.381L408.24 120.274C408.067 120.651 408.215 121.086 408.58 121.282C412.369 123.315 415.786 124.184 420.013 124.184C427.923 124.184 432.299 120.528 436.146 110.709L454.728 63.1374C454.828 62.898 454.794 62.6275 454.646 62.4152C454.505 62.2046 454.265 62.0775 454.009 62.0775H442.856C442.517 62.0775 442.219 62.2882 442.111 62.5989L430.686 94.9218L418.177 62.5775C418.061 62.2767 417.771 62.0775 417.449 62.0775H399.148V62.0751ZM375.337 62.0284H364.623C364.193 62.0284 363.837 62.3775 363.837 62.8062V109.102C363.837 109.537 364.193 109.881 364.623 109.881H375.337C375.767 109.881 376.123 109.537 376.123 109.102V62.8095C376.123 62.3808 375.776 62.0316 375.337 62.0316V62.0284ZM370.042 40.9472C365.798 40.9472 362.356 44.3505 362.356 48.5546C362.356 52.7612 365.798 56.1685 370.042 56.1685C374.286 56.1685 377.72 52.7612 377.72 48.5546C377.72 44.3513 374.278 40.9472 370.042 40.9472ZM463.879 76.9144C459.643 76.9144 456.342 73.5415 456.342 69.4456C456.342 65.3497 459.684 61.9382 463.92 61.9382C468.156 61.9382 471.457 65.3103 471.457 69.403C471.457 73.4988 468.115 76.9144 463.879 76.9144ZM463.92 62.6808C460.056 62.6808 457.136 65.7218 457.136 69.4456C457.136 73.1677 460.04 76.1677 463.879 76.1677C467.742 76.1677 470.663 73.1292 470.663 69.403C470.663 65.6808 467.759 62.6808 463.92 62.6808ZM465.591 70.171L467.726 73.1284H465.922L464.003 70.4152H462.356V73.1284H460.851V65.289H464.375C466.22 65.289 467.428 66.221 467.428 67.7898C467.436 69.0751 466.683 69.8603 465.599 70.171H465.591ZM464.317 66.6341H462.356V69.1136H464.317C465.293 69.1136 465.881 68.639 465.881 67.8726C465.881 67.0661 465.293 66.6341 464.317 66.6341Z" fill="#1ED760"/>
</svg>
