<svg width="50" height="77" viewBox="0 0 50 77" fill="none" xmlns="http://www.w3.org/2000/svg">
<path d="M0.354558 70.658V5.9908C0.35526 4.97267 0.645838 3.97576 1.19231 3.1167C1.73877 2.25765 2.51853 1.57194 3.4404 1.13978C4.36227 0.707621 5.38811 0.546873 6.39799 0.676341C7.40786 0.805809 8.35999 1.22016 9.14304 1.87089L47.8779 34.2237C48.4789 34.7279 48.9622 35.3576 49.2938 36.0685C49.6253 36.7794 49.7972 37.5544 49.7972 38.3388C49.7972 39.1233 49.6253 39.8982 49.2938 40.6092C48.9622 41.3201 48.4789 41.9498 47.8779 42.4539L9.14304 74.7876C8.36059 75.4429 7.40709 75.8608 6.39493 75.9921C5.38277 76.1234 4.35418 75.9626 3.43044 75.5285C2.5067 75.0945 1.72634 74.4053 1.18135 73.5424C0.636362 72.6794 0.349495 71.6786 0.354558 70.658Z" fill="white"/>
</svg>
