<svg width="80" height="80" viewBox="0 0 80 80" fill="none" xmlns="http://www.w3.org/2000/svg">
<path d="M50.4791 72.2416V57.8416C50.4791 55.932 51.2377 54.1007 52.588 52.7504C53.9382 51.4002 55.7696 50.6416 57.6791 50.6416H72.0791" stroke="#DBF2FF" stroke-width="6.82157" stroke-linecap="round" stroke-linejoin="round"/>
<path d="M21.6786 11.043V18.243C22.4553 20.4515 23.9284 22.3478 25.8763 23.6464C27.8242 24.945 30.1413 25.5755 32.4786 25.443V25.443C34.3882 25.443 36.2196 26.2015 37.5698 27.5518C38.9201 28.9021 39.6786 30.7334 39.6786 32.643C39.6786 34.5525 40.4372 36.3839 41.7875 37.7341C43.1377 39.0844 44.9691 39.843 46.8786 39.843C48.7882 39.843 50.6196 39.0844 51.9698 37.7341C53.3201 36.3839 54.0786 34.5525 54.0786 32.643C54.0786 30.7334 54.8372 28.9021 56.1875 27.5518C57.5377 26.2015 59.3691 25.443 61.2786 25.443H72.0786" stroke="#64F9BF" stroke-width="6.82157" stroke-linecap="round" stroke-linejoin="round"/>
<path d="M7.27911 36.2432H14.4791C16.3887 36.2432 18.22 37.0017 19.5703 38.352C20.9205 39.7023 21.6791 41.5336 21.6791 43.4432V47.0432C21.6791 48.9527 22.4377 50.7841 23.7879 52.1343C25.1382 53.4846 26.9696 54.2432 28.8791 54.2432C30.7887 54.2432 32.62 55.0017 33.9703 56.352C35.3205 57.7023 36.0791 59.5336 36.0791 61.4432V75.8432" stroke="#5C2CFF" stroke-width="6.82157" stroke-linecap="round" stroke-linejoin="round"/>
<path d="M7.27911 36.2432H14.4791C16.3887 36.2432 18.22 37.0017 19.5703 38.352C20.9205 39.7023 21.6791 41.5336 21.6791 43.4432V47.0432C21.6791 48.9527 22.4377 50.7841 23.7879 52.1343C25.1382 53.4846 26.9696 54.2432 28.8791 54.2432C30.7887 54.2432 32.62 55.0017 33.9703 56.352C35.3205 57.7023 36.0791 59.5336 36.0791 61.4432V75.8432" stroke="black" stroke-opacity="0.2" stroke-width="6.82157" stroke-linecap="round" stroke-linejoin="round"/>
<path d="M39.6788 75.8428C59.561 75.8428 75.6788 59.725 75.6788 39.8428C75.6788 19.9605 59.561 3.84277 39.6788 3.84277C19.7965 3.84277 3.67877 19.9605 3.67877 39.8428C3.67877 59.725 19.7965 75.8428 39.6788 75.8428Z" stroke="#4924CC" stroke-width="6.82157" stroke-linecap="round" stroke-linejoin="round"/>
</svg>
